{
DisplayStrings = (
/.notdef
);
classes = (
{
automatic = 1;
code = "A B C D E F G H I J K L M N O P Q R S T U V W X Y Z Agrave Aacute Acircumflex Atilde Adieresis Aring AE Ccedilla Egrave Eacute Ecircumflex Edieresis Igrave Iacute Icircumflex Idieresis Eth Ntilde Ograve Oacute Ocircumflex Otilde Odieresis Oslash Ugrave Uacute Ucircumflex Udieresis Yacute Thorn Cacute Ccaron Gbreve Idotaccent Lslash OE Scedilla Scaron Ydieresis Zcaron Omega Delta";
name = Uppercase;
}
);
copyright = "Original Fonts are \U00A9 Bitstream. OpenDyslexic changes and additional glyphs by Abelardo Gonzalez are licensed under a Creative Commons Attribution 3.0 Unported License.\012Based on a work at http://dyslexicfonts.com. \U26612012 by Abelardo Gonzalez. Copying is an act of love. Please copy.\012Bitstream license available here: http://opendyslexic.org/legal/";
customParameters = (
{
name = glyphOrder;
value = (
    ".notdef",
    uni0000,
    uni000D,
    NULL,
    space,
    exclam,
    quotedbl,
    numbersign,
    dollar,
    percent,
    ampersand,
    quotesingle,
    parenleft,
    parenright,
    asterisk,
    plus,
    comma,
    hyphen,
    period,
    slash,
    zero,
    one,
    two,
    three,
    four,
    five,
    six,
    seven,
    eight,
    nine,
    colon,
    semicolon,
    less,
    equal,
    greater,
    question,
    at,
    A,
    B,
    C,
    D,
    E,
    F,
    G,
    H,
    I,
    J,
    K,
    L,
    M,
    N,
    O,
    P,
    Q,
    R,
    S,
    T,
    U,
    V,
    W,
    X,
    Y,
    Z,
    bracketleft,
    backslash,
    bracketright,
    asciicircum,
    underscore,
    grave,
    a,
    b,
    c,
    d,
    e,
    f,
    g,
    h,
    i,
    j,
    k,
    l,
    m,
    n,
    o,
    p,
    q,
    r,
    s,
    t,
    u,
    v,
    w,
    x,
    y,
    z,
    braceleft,
    bar,
    braceright,
    asciitilde,
    uni00A0,
    exclamdown,
    cent,
    sterling,
    currency,
    yen,
    brokenbar,
    section,
    dieresis,
    copyright,

glyphs = (
{
glyphname = .notdef;
lastChange = "2015-11-24 04:11:55 +0000";
layers = (
{
layerId = "013FA67F-D7C9-4F04-AAC6-32032829ED9A";
name = "Bold Italic";
paths = (
{
closed = 1;
nodes = (
"93 -160 LINE",
"139 128 OFFCURVE",
"164 422 OFFCURVE",
"169 720 CURVE",
"257 706 OFFCURVE",
"337 700 OFFCURVE",
"417 700 CURVE SMOOTH",
"499 700 OFFCURVE",
"586 706 OFFCURVE",
"680 720 CURVE",
"632 422 OFFCURVE",
"604 126 OFFCURVE",
"602 -173 CURVE",
"514 -161 OFFCURVE",
"431 -155 OFFCURVE",
"349 -155 CURVE SMOOTH",
"268 -155 OFFCURVE",
"187 -160 OFFCURVE",
"105 -172 CURVE"
);
},
{
closed = 1;
nodes = (
"167 -14 LINE",
"171 -14 OFFCURVE",
"175 -13 OFFCURVE",
"179 -13 CURVE",
"177 -26 LINE"
);
},
{
closed = 1;
nodes = (
"224 424 OFFCURVE",
"206 207 OFFCURVE",
"179 -13 CURVE",
"239 -9 OFFCURVE",
"301 -7 OFFCURVE",
"362 -7 CURVE SMOOTH",
"393 -7 OFFCURVE",
"423 -7 OFFCURVE",
"452 -8 CURVE SMOOTH",
"481 -9 OFFCURVE",
"509 -11 OFFCURVE",
"541 -13 CURVE",
"552 209 OFFCURVE",
"571 425 OFFCURVE",
"603 645 CURVE",
"539 639 OFFCURVE",
"477 636 OFFCURVE",
"413 636 CURVE SMOOTH",
"352 636 OFFCURVE",
"292 639 OFFCURVE",
"232 644 CURVE"
);
}
);
width = 772;
}
);
},
{
glyphname = exclam;
lastChange = "2015-11-24 04:11:55 +0000";
layers = (
{
layerId = "013FA67F-D7C9-4F04-AAC6-32032829ED9A";
name = "Bold Italic";
paths = (
{
closed = 1;
nodes = (
"123 143 LINE",
"139 146 OFFCURVE",
"154 148 OFFCURVE",
"172 148 CURVE SMOOTH",
"186 148 OFFCURVE",
"205 146 OFFCURVE",
"226 140 CURVE",
"226 117 LINE SMOOTH",
"226 95 OFFCURVE",
"227 73 OFFCURVE",
"227 51 CURVE SMOOTH",
"227 48 OFFCURVE",
"227 45 OFFCURVE",
"227 40 CURVE SMOOTH",
"227 36 OFFCURVE",
"227 31 OFFCURVE",
"228 26 CURVE",
"228 22 OFFCURVE",
"228 17 OFFCURVE",
"228 13 CURVE SMOOTH",
"228 8 OFFCURVE",
"228 4 OFFCURVE",
"228 2 CURVE",
"202 13 OFFCURVE",
"180 19 OFFCURVE",
"162 19 CURVE SMOOTH",
"144 19 OFFCURVE",
"120 13 OFFCURVE",
"91 1 CURVE",
"105 77 LINE",
"105 76 LINE",
"106 86 OFFCURVE",
"108 96 OFFCURVE",
"110 106 CURVE SMOOTH",
"111 116 OFFCURVE",
"113 126 OFFCURVE",
"115 135 CURVE"
);
},
{
closed = 1;
nodes = (
"183 733 LINE",
"195 729 OFFCURVE",
"207 728 OFFCURVE",
"220 728 CURVE SMOOTH",
"234 728 OFFCURVE",
"253 731 OFFCURVE",
"276 739 CURVE",
"268 651 OFFCURVE",
"260 552 OFFCURVE",
"254 465 CURVE SMOOTH",
"254 458 OFFCURVE",
"253 450 OFFCURVE",
"252 441 CURVE SMOOTH",
"252 433 OFFCURVE",
"251 425 OFFCURVE",
"250 417 CURVE",
"250 405 OFFCURVE",
"250 393 OFFCURVE",
"250 381 CURVE SMOOTH",
"250 369 OFFCURVE",
"250 357 OFFCURVE",
"250 345 CURVE",
"250 340 OFFCURVE",
"250 335 OFFCURVE",
"250 329 CURVE SMOOTH",
"250 322 OFFCURVE",
"250 316 OFFCURVE",
"250 309 CURVE",
"249 302 OFFCURVE",
"249 296 OFFCURVE",
"249 289 CURVE SMOOTH",
"249 283 OFFCURVE",
"249 278 OFFCURVE",
"249 273 CURVE SMOOTH",
"249 238 LINE",
"222 242 OFFCURVE",
"201 244 OFFCURVE",
"183 244 CURVE SMOOTH",
"164 244 OFFCURVE",
"141 242 OFFCURVE",
"112 238 CURVE",
"135 396 OFFCURVE",
"154 565 OFFCURVE",
"170 725 CURVE"
);
}
);
width = 361;
}
);
unicode = 0021;
},
{
glyphname = quotedbl;
lastChange = "2015-11-24 04:11:55 +0000";
layers = (
{
layerId = "013FA67F-D7C9-4F04-AAC6-32032829ED9A";
name = "Bold Italic";
paths = (
{
closed = 1;
nodes = (
"270 728 LINE",
"269 638 OFFCURVE",
"264 547 OFFCURVE",
"252 452 CURVE",
"245 451 OFFCURVE",
"236 451 OFFCURVE",
"227 451 CURVE SMOOTH",
"217 450 OFFCURVE",
"207 450 OFFCURVE",
"197 449 CURVE SMOOTH",
"177 448 OFFCURVE",
"157 447 OFFCURVE",
"143 445 CURVE",
"164 537 OFFCURVE",
"174 626 OFFCURVE",
"174 714 CURVE SMOOTH",
"174 743 LINE",
"187 741 OFFCURVE",
"202 741 OFFCURVE",
"218 740 CURVE SMOOTH",
"225 739 OFFCURVE",
"233 739 OFFCURVE",
"241 738 CURVE SMOOTH",
"248 738 OFFCURVE",
"255 738 OFFCURVE",
"261 737 CURVE"
);
},
{
closed = 1;
nodes = (
"467 730 LINE",
"453 661 OFFCURVE",
"446 593 OFFCURVE",
"446 524 CURVE SMOOTH",
"446 502 OFFCURVE",
"446 477 OFFCURVE",
"449 445 CURVE",
"435 447 OFFCURVE",
"415 448 OFFCURVE",
"395 449 CURVE SMOOTH",
"385 450 OFFCURVE",
"375 450 OFFCURVE",
"366 451 CURVE SMOOTH",
"356 451 OFFCURVE",
"348 451 OFFCURVE",
"341 452 CURVE",
"345 548 OFFCURVE",
"355 642 OFFCURVE",
"371 738 CURVE",
"389 738 OFFCURVE",
"415 739 OFFCURVE",
"434 740 CURVE SMOOTH",
"456 742 LINE"
);
}
);
width = 489;
}
);
unicode = 0022;
},
{
glyphname = numbersign;
lastChange = "2015-11-24 04:11:55 +0000";
layers = (
{
layerId = "013FA67F-D7C9-4F04-AAC6-32032829ED9A";
name = "Bold Italic";
paths = (
{
closed = 1;
nodes = (
"510 440 LINE",
"496 440 LINE",
"500 453 LINE"
);
},
{
closed = 1;
nodes = (
"448 294 LINE",
"453 310 OFFCURVE",
"458 326 OFFCURVE",
"464 342 CURVE SMOOTH",
"469 359 OFFCURVE",
"475 375 OFFCURVE",
"480 391 CURVE SMOOTH",
"496 440 LINE",
"475 440 OFFCURVE",
"455 440 OFFCURVE",
"436 440 CURVE SMOOTH",
"416 440 OFFCURVE",
"395 440 OFFCURVE",
"373 439 CURVE",
"373 437 OFFCURVE",
"372 435 OFFCURVE",
"371 433 CURVE",
"370 431 OFFCURVE",
"369 428 OFFCURVE",
"369 426 CURVE",
"365 414 OFFCURVE",
"361 402 OFFCURVE",
"358 392 CURVE SMOOTH",
"351 370 OFFCURVE",
"344 349 OFFCURVE",
"336 328 CURVE SMOOTH",
"333 317 OFFCURVE",
"329 305 OFFCURVE",
"325 293 CURVE",
"369 293 LINE SMOOTH",
"378 293 OFFCURVE",
"388 293 OFFCURVE",
"398 294 CURVE",
"407 294 OFFCURVE",
"417 294 OFFCURVE",
"426 294 CURVE SMOOTH"
);
},
{
closed = 1;
nodes = (
"467 716 LINE",
"455 684 OFFCURVE",
"444 652 OFFCURVE",
"433 619 CURVE SMOOTH",
"421 587 OFFCURVE",
"410 554 OFFCURVE",
"400 522 CURVE",
"411 522 OFFCURVE",
"422 522 OFFCURVE",
"432 522 CURVE SMOOTH",
"442 522 OFFCURVE",
"452 522 OFFCURVE",
"462 522 CURVE SMOOTH",
"471 522 OFFCURVE",
"481 522 OFFCURVE",
"492 522 CURVE",
"502 522 OFFCURVE",
"512 522 OFFCURVE",
"524 522 CURVE",
"547 587 OFFCURVE",
"574 656 OFFCURVE",
"599 719 CURVE",
"610 719 OFFCURVE",
"622 720 OFFCURVE",
"634 721 CURVE SMOOTH",
"647 721 OFFCURVE",
"658 722 OFFCURVE",
"669 723 CURVE",
"689 723 LINE",
"661 657 OFFCURVE",
"634 591 OFFCURVE",
"610 523 CURVE",
"656 525 OFFCURVE",
"710 526 OFFCURVE",
"754 528 CURVE",
"751 514 OFFCURVE",
"748 488 OFFCURVE",
"746 474 CURVE SMOOTH",
"742 443 LINE",
"715 443 OFFCURVE",
"688 442 OFFCURVE",
"661 442 CURVE SMOOTH",
"634 441 OFFCURVE",
"607 441 OFFCURVE",
"580 441 CURVE",
"576 428 OFFCURVE",
"572 415 OFFCURVE",
"568 403 CURVE SMOOTH",
"560 379 OFFCURVE",
"552 356 OFFCURVE",
"545 332 CURVE SMOOTH",
"541 320 OFFCURVE",
"537 307 OFFCURVE",
"533 294 CURVE",
"543 294 OFFCURVE",
"553 294 OFFCURVE",
"563 293 CURVE SMOOTH",
"583 293 OFFCURVE",
"603 292 OFFCURVE",
"634 292 CURVE SMOOTH",
"650 292 OFFCURVE",
"664 292 OFFCURVE",
"676 292 CURVE",
"676 286 OFFCURVE",
"675 280 OFFCURVE",
"675 271 CURVE SMOOTH",
"674 263 OFFCURVE",
"674 256 OFFCURVE",
"673 250 CURVE SMOOTH",
"671 209 LINE",
"653 209 OFFCURVE",
"633 210 OFFCURVE",
"612 210 CURVE SMOOTH",
"591 211 OFFCURVE",
"572 211 OFFCURVE",
"554 211 CURVE SMOOTH",
"545 211 OFFCURVE",
"537 211 OFFCURVE",
"530 212 CURVE SMOOTH",
"523 212 OFFCURVE",
"515 212 OFFCURVE",
"506 212 CURVE",
"499 188 OFFCURVE",
"490 162 OFFCURVE",
"482 138 CURVE SMOOTH",
"479 129 OFFCURVE",
"476 120 OFFCURVE",
"473 109 CURVE SMOOTH",
"467 88 OFFCURVE",
"460 67 OFFCURVE",
"454 46 CURVE",
"451 36 OFFCURVE",
"448 26 OFFCURVE",
"445 17 CURVE",
"434 18 OFFCURVE",
"416 18 OFFCURVE",
"404 18 CURVE SMOOTH",
"357 18 LINE",
"393 128 LINE SMOOTH",
"395 136 OFFCURVE",
"398 143 OFFCURVE",
"400 150 CURVE SMOOTH",
"403 157 OFFCURVE",
"405 164 OFFCURVE",
"407 170 CURVE SMOOTH",
"409 177 OFFCURVE",
"411 184 OFFCURVE",
"413 191 CURVE SMOOTH",
"416 197 OFFCURVE",
"418 205 OFFCURVE",
"421 213 CURVE",
"399 213 OFFCURVE",
"379 213 OFFCURVE",
"359 213 CURVE SMOOTH",
"340 213 OFFCURVE",
"319 212 OFFCURVE",
"296 212 CURVE",
"276 151 OFFCURVE",
"253 92 OFFCURVE",
"229 32 CURVE",
"229 33 LINE",
"223 16 LINE",
"183 14 LINE",
"133 12 LINE",
"161 77 OFFCURVE",
"187 144 OFFCURVE",
"211 211 CURVE",
"188 211 OFFCURVE",
"164 210 OFFCURVE",
"139 209 CURVE SMOOTH",
"113 208 OFFCURVE",
"90 207 OFFCURVE",
"67 207 CURVE",
"68 210 OFFCURVE",
"68 213 OFFCURVE",
"69 218 CURVE SMOOTH",
"69 222 OFFCURVE",
"70 226 OFFCURVE",
"71 231 CURVE SMOOTH",
"71 235 OFFCURVE",
"72 239 OFFCURVE",
"72 244 CURVE SMOOTH",
"73 248 OFFCURVE",
"73 251 OFFCURVE",
"73 254 CURVE SMOOTH",
"74 257 OFFCURVE",
"74 259 OFFCURVE",
"74 263 CURVE",
"75 269 OFFCURVE",
"76 277 OFFCURVE",
"77 283 CURVE SMOOTH",
"78 286 OFFCURVE",
"78 289 OFFCURVE",
"78 291 CURVE",
"166 292 LINE SMOOTH",
"194 292 OFFCURVE",
"212 292 OFFCURVE",
"240 293 CURVE",
"257 344 OFFCURVE",
"271 388 OFFCURVE",
"289 440 CURVE",
"242 440 OFFCURVE",
"188 441 OFFCURVE",
"143 443 CURVE",
"145 478 LINE",
"147 492 OFFCURVE",
"147 513 OFFCURVE",
"147 526 CURVE",
"203 524 OFFCURVE",
"259 523 OFFCURVE",
"315 522 CURVE",
"334 586 OFFCURVE",
"357 654 OFFCURVE",
"377 716 CURVE"
);
}
);
width = 781;
}
);
unicode = 0023;
},
{
glyphname = dollar;
lastChange = "2015-11-24 04:11:55 +0000";
layers = (
{
layerId = "013FA67F-D7C9-4F04-AAC6-32032829ED9A";
name = "Bold Italic";
paths = (
{
closed = 1;
nodes = (
"324 -122 LINE",
"311 -121 OFFCURVE",
"295 -121 OFFCURVE",
"280 -121 CURVE SMOOTH",
"272 -121 OFFCURVE",
"264 -121 OFFCURVE",
"256 -121 CURVE SMOOTH",
"249 -121 OFFCURVE",
"242 -121 OFFCURVE",
"235 -121 CURVE",
"241 -91 LINE SMOOTH",
"243 -80 OFFCURVE",
"245 -71 OFFCURVE",
"246 -62 CURVE SMOOTH",
"249 -44 OFFCURVE",
"252 -26 OFFCURVE",
"255 -8 CURVE SMOOTH",
"257 2 OFFCURVE",
"259 11 OFFCURVE",
"260 22 CURVE",
"198 25 OFFCURVE",
"136 35 OFFCURVE",
"74 61 CURVE",
"80 103 LINE",
"81 108 OFFCURVE",
"82 115 OFFCURVE",
"83 123 CURVE",
"83 130 OFFCURVE",
"84 138 OFFCURVE",
"85 146 CURVE SMOOTH",
"86 153 OFFCURVE",
"87 161 OFFCURVE",
"88 169 CURVE",
"89 176 OFFCURVE",
"90 183 OFFCURVE",
"90 188 CURVE",
"149 149 OFFCURVE",
"210 128 OFFCURVE",
"272 126 CURVE",
"282 214 LINE",
"291 301 LINE",
"243 311 OFFCURVE",
"195 326 OFFCURVE",
"159 362 CURVE SMOOTH",
"129 394 OFFCURVE",
"120 439 OFFCURVE",
"120 482 CURVE",
"122 508 OFFCURVE",
"131 536 OFFCURVE",
"147 560 CURVE SMOOTH",
"162 584 OFFCURVE",
"183 604 OFFCURVE",
"208 618 CURVE",
"251 637 OFFCURVE",
"293 645 OFFCURVE",
"331 647 CURVE",
"334 675 LINE",
"335 681 OFFCURVE",
"336 688 OFFCURVE",
"337 695 CURVE",
"337 702 OFFCURVE",
"338 709 OFFCURVE",
"339 717 CURVE",
"340 731 OFFCURVE",
"341 747 OFFCURVE",
"343 759 CURVE",
"346 759 OFFCURVE",
"351 759 OFFCURVE",
"357 759 CURVE",
"364 759 OFFCURVE",
"368 759 OFFCURVE",
"372 759 CURVE",
"375 758 OFFCURVE",
"380 758 OFFCURVE",
"387 758 CURVE SMOOTH",
"393 758 OFFCURVE",
"398 758 OFFCURVE",
"401 758 CURVE",
"389 648 LINE",
"439 646 OFFCURVE",
"494 640 OFFCURVE",
"551 624 CURVE",
"545 584 LINE",
"539 538 LINE",
"485 566 OFFCURVE",
"433 576 OFFCURVE",
"381 580 CURVE",
"374 513 OFFCURVE",
"367 448 OFFCURVE",
"361 381 CURVE SMOOTH",
"360 371 LINE",
"384 367 OFFCURVE",
"410 361 OFFCURVE",
"434 352 CURVE SMOOTH",
"459 344 OFFCURVE",
"482 332 OFFCURVE",
"501 315 CURVE SMOOTH",
"531 287 OFFCURVE",
"543 243 OFFCURVE",
"543 201 CURVE SMOOTH",
"543 177 OFFCURVE",
"537 152 OFFCURVE",
"526 128 CURVE SMOOTH",
"514 105 OFFCURVE",
"498 83 OFFCURVE",
"478 67 CURVE",
"436 37 OFFCURVE",
"386 25 OFFCURVE",
"337 21 CURVE",
"336 -27 LINE SMOOTH",
"336 -42 OFFCURVE",
"335 -56 OFFCURVE",
"335 -70 CURVE",
"335 -84 OFFCURVE",
"335 -98 OFFCURVE",
"334 -112 CURVE"
);
},
{
closed = 1;
nodes = (
"296 377 LINE",
"296 378 LINE",
"297 378 LINE"
);
},
{
closed = 1;
nodes = (
"195 442 OFFCURVE",
"208 421 OFFCURVE",
"227 405 CURVE SMOOTH",
"246 390 OFFCURVE",
"271 380 OFFCURVE",
"296 378 CURVE",
"298 399 OFFCURVE",
"300 420 OFFCURVE",
"302 441 CURVE SMOOTH",
"304 461 OFFCURVE",
"306 482 OFFCURVE",
"309 504 CURVE SMOOTH",
"310 517 OFFCURVE",
"311 529 OFFCURVE",
"312 539 CURVE SMOOTH",
"313 550 OFFCURVE",
"315 562 OFFCURVE",
"316 576 CURVE",
"285 572 OFFCURVE",
"257 565 OFFCURVE",
"231 544 CURVE SMOOTH",
"207 525 OFFCURVE",
"195 498 OFFCURVE",
"195 468 CURVE SMOOTH"
);
},
{
closed = 1;
nodes = (
"348 291 LINE",
"348 290 OFFCURVE",
"348 288 OFFCURVE",
"348 286 CURVE",
"347 286 OFFCURVE",
"347 286 OFFCURVE",
"347 286 CURVE",
"344 284 LINE"
);
},
{
closed = 1;
nodes = (
"443 226 OFFCURVE",
"430 244 OFFCURVE",
"412 258 CURVE SMOOTH",
"394 272 OFFCURVE",
"370 282 OFFCURVE",
"348 286 CURVE",
"345 253 OFFCURVE",
"344 221 OFFCURVE",
"342 189 CURVE SMOOTH",
"339 123 LINE",
"363 127 OFFCURVE",
"387 133 OFFCURVE",
"411 141 CURVE",
"423 145 OFFCURVE",
"432 155 OFFCURVE",
"437 166 CURVE SMOOTH",
"442 178 OFFCURVE",
"443 190 OFFCURVE",
"443 202 CURVE SMOOTH"
);
}
);
width = 638;
}
);
unicode = 0024;
},
{
glyphname = percent;
lastChange = "2015-11-24 04:11:55 +0000";
layers = (
{
layerId = "013FA67F-D7C9-4F04-AAC6-32032829ED9A";
name = "Bold Italic";
paths = (
{
closed = 1;
nodes = (
"724 326 OFFCURVE",
"702 306 OFFCURVE",
"688 279 CURVE SMOOTH",
"674 252 OFFCURVE",
"669 219 OFFCURVE",
"669 191 CURVE SMOOTH",
"669 165 OFFCURVE",
"675 140 OFFCURVE",
"689 121 CURVE SMOOTH",
"703 102 OFFCURVE",
"724 89 OFFCURVE",
"752 89 CURVE SMOOTH",
"785 89 OFFCURVE",
"804 110 OFFCURVE",
"816 138 CURVE SMOOTH",
"827 165 OFFCURVE",
"830 198 OFFCURVE",
"830 222 CURVE SMOOTH",
"830 246 OFFCURVE",
"826 272 OFFCURVE",
"814 292 CURVE SMOOTH",
"803 312 OFFCURVE",
"785 326 OFFCURVE",
"759 326 CURVE SMOOTH"
);
},
{
closed = 1;
nodes = (
"809 397 OFFCURVE",
"852 380 OFFCURVE",
"878 342 CURVE",
"877 342 LINE",
"906 303 OFFCURVE",
"913 253 OFFCURVE",
"913 204 CURVE SMOOTH",
"913 178 OFFCURVE",
"911 150 OFFCURVE",
"905 124 CURVE SMOOTH",
"898 97 OFFCURVE",
"887 71 OFFCURVE",
"869 49 CURVE",
"869 49 LINE",
"856 31 OFFCURVE",
"838 19 OFFCURVE",
"818 11 CURVE SMOOTH",
"798 3 OFFCURVE",
"776 -1 OFFCURVE",
"756 -1 CURVE SMOOTH",
"706 -1 OFFCURVE",
"654 16 OFFCURVE",
"622 58 CURVE",
"623 57 LINE",
"594 91 OFFCURVE",
"584 135 OFFCURVE",
"584 179 CURVE SMOOTH",
"584 207 OFFCURVE",
"588 237 OFFCURVE",
"597 266 CURVE SMOOTH",
"606 294 OFFCURVE",
"619 321 OFFCURVE",
"640 343 CURVE",
"640 343 LINE",
"672 379 OFFCURVE",
"718 397 OFFCURVE",
"763 397 CURVE SMOOTH"
);
},
{
closed = 1;
nodes = (
"302 675 LINE SMOOTH",
"274 675 OFFCURVE",
"253 658 OFFCURVE",
"241 634 CURVE SMOOTH",
"228 611 OFFCURVE",
"222 582 OFFCURVE",
"222 557 CURVE SMOOTH",
"222 551 LINE",
"222 549 OFFCURVE",
"222 547 OFFCURVE",
"222 545 CURVE SMOOTH",
"222 543 OFFCURVE",
"222 541 OFFCURVE",
"222 539 CURVE SMOOTH",
"222 513 OFFCURVE",
"226 485 OFFCURVE",
"237 463 CURVE SMOOTH",
"249 441 OFFCURVE",
"267 425 OFFCURVE",
"296 425 CURVE SMOOTH",
"331 425 OFFCURVE",
"353 449 OFFCURVE",
"366 478 CURVE SMOOTH",
"380 507 OFFCURVE",
"384 542 OFFCURVE",
"384 567 CURVE SMOOTH",
"384 591 OFFCURVE",
"378 617 OFFCURVE",
"365 638 CURVE SMOOTH",
"352 658 OFFCURVE",
"332 673 OFFCURVE",
"307 675 CURVE"
);
},
{
closed = 1;
nodes = (
"788 745 LINE",
"791 745 OFFCURVE",
"795 745 OFFCURVE",
"800 745 CURVE SMOOTH",
"805 746 OFFCURVE",
"811 746 OFFCURVE",
"816 746 CURVE",
"827 747 OFFCURVE",
"838 748 OFFCURVE",
"844 748 CURVE",
"795 686 OFFCURVE",
"745 619 OFFCURVE",
"697 551 CURVE SMOOTH",
"648 483 OFFCURVE",
"601 414 OFFCURVE",
"557 350 CURVE SMOOTH",
"477 233 OFFCURVE",
"395 114 OFFCURVE",
"309 2 CURVE",
"299 2 OFFCURVE",
"287 2 OFFCURVE",
"276 1 CURVE SMOOTH",
"264 1 OFFCURVE",
"253 0 OFFCURVE",
"242 -1 CURVE",
"217 -1 LINE",
"264 59 OFFCURVE",
"311 124 OFFCURVE",
"358 189 CURVE SMOOTH",
"404 254 OFFCURVE",
"450 320 OFFCURVE",
"493 382 CURVE SMOOTH",
"576 504 OFFCURVE",
"660 627 OFFCURVE",
"751 743 CURVE"
);
},
{
closed = 1;
nodes = (
"308 745 LINE SMOOTH",
"356 744 OFFCURVE",
"401 724 OFFCURVE",
"431 687 CURVE SMOOTH",
"459 653 OFFCURVE",
"469 609 OFFCURVE",
"469 565 CURVE SMOOTH",
"469 537 OFFCURVE",
"465 507 OFFCURVE",
"456 479 CURVE SMOOTH",
"448 451 OFFCURVE",
"433 424 OFFCURVE",
"413 401 CURVE SMOOTH",
"381 367 OFFCURVE",
"338 349 OFFCURVE",
"294 349 CURVE SMOOTH",
"271 349 OFFCURVE",
"247 353 OFFCURVE",
"227 362 CURVE SMOOTH",
"206 370 OFFCURVE",
"187 384 OFFCURVE",
"175 404 CURVE",
"147 444 OFFCURVE",
"140 494 OFFCURVE",
"140 543 CURVE SMOOTH",
"140 569 OFFCURVE",
"142 596 OFFCURVE",
"149 623 CURVE SMOOTH",
"155 649 OFFCURVE",
"166 675 OFFCURVE",
"184 697 CURVE SMOOTH",
"212 731 OFFCURVE",
"254 745 OFFCURVE",
"296 746 CURVE SMOOTH",
"297 746 OFFCURVE",
"298 746 OFFCURVE",
"299 746 CURVE",
"299 745 OFFCURVE",
"300 745 OFFCURVE",
"301 745 CURVE SMOOTH"
);
}
);
width = 1012;
}
);
unicode = 0025;
},
{
glyphname = ampersand;
lastChange = "2015-11-24 04:11:55 +0000";
layers = (
{
layerId = "013FA67F-D7C9-4F04-AAC6-32032829ED9A";
name = "Bold Italic";
paths = (
{
closed = 1;
nodes = (
"243 418 LINE",
"236 411 LINE",
"230 418 LINE"
);
},
{
closed = 1;
nodes = (
"236 411 LINE",
"210 388 OFFCURVE",
"187 362 OFFCURVE",
"171 333 CURVE SMOOTH",
"154 303 OFFCURVE",
"145 271 OFFCURVE",
"145 237 CURVE SMOOTH",
"145 193 OFFCURVE",
"162 160 OFFCURVE",
"190 138 CURVE SMOOTH",
"218 117 OFFCURVE",
"256 106 OFFCURVE",
"296 106 CURVE SMOOTH",
"350 106 OFFCURVE",
"407 127 OFFCURVE",
"453 162 CURVE",
"428 191 OFFCURVE",
"403 219 OFFCURVE",
"379 247 CURVE SMOOTH",
"354 275 OFFCURVE",
"330 303 OFFCURVE",
"305 332 CURVE SMOOTH"
);
},
{
closed = 1;
nodes = (
"299 474 LINE",
"343 427 OFFCURVE",
"385 381 OFFCURVE",
"428 333 CURVE SMOOTH",
"524 225 LINE",
"559 277 OFFCURVE",
"572 339 OFFCURVE",
"581 404 CURVE",
"588 404 OFFCURVE",
"595 404 OFFCURVE",
"603 404 CURVE SMOOTH",
"612 404 OFFCURVE",
"620 404 OFFCURVE",
"629 404 CURVE SMOOTH",
"638 404 OFFCURVE",
"647 404 OFFCURVE",
"655 405 CURVE",
"664 405 OFFCURVE",
"671 405 OFFCURVE",
"677 405 CURVE",
"675 395 OFFCURVE",
"673 384 OFFCURVE",
"671 373 CURVE SMOOTH",
"667 351 OFFCURVE",
"662 327 OFFCURVE",
"657 305 CURVE SMOOTH",
"655 294 OFFCURVE",
"652 283 OFFCURVE",
"650 273 CURVE SMOOTH",
"638 231 OFFCURVE",
"618 191 OFFCURVE",
"593 155 CURVE",
"650 91 LINE",
"729 3 LINE",
"720 4 OFFCURVE",
"710 5 OFFCURVE",
"698 6 CURVE",
"686 6 OFFCURVE",
"674 7 OFFCURVE",
"661 8 CURVE SMOOTH",
"649 9 OFFCURVE",
"636 10 OFFCURVE",
"624 11 CURVE SMOOTH",
"612 11 OFFCURVE",
"602 12 OFFCURVE",
"593 13 CURVE",
"528 84 LINE",
"458 30 OFFCURVE",
"376 5 OFFCURVE",
"291 5 CURVE SMOOTH",
"259 5 OFFCURVE",
"226 9 OFFCURVE",
"196 18 CURVE SMOOTH",
"166 27 OFFCURVE",
"138 41 OFFCURVE",
"116 65 CURVE SMOOTH",
"80 101 OFFCURVE",
"65 151 OFFCURVE",
"65 201 CURVE SMOOTH",
"65 253 OFFCURVE",
"80 301 OFFCURVE",
"105 344 CURVE SMOOTH",
"131 386 OFFCURVE",
"166 423 OFFCURVE",
"208 453 CURVE",
"187 487 OFFCURVE",
"171 524 OFFCURVE",
"171 566 CURVE SMOOTH",
"171 588 OFFCURVE",
"176 614 OFFCURVE",
"186 637 CURVE SMOOTH",
"196 660 OFFCURVE",
"210 681 OFFCURVE",
"230 696 CURVE",
"230 696 LINE",
"251 714 OFFCURVE",
"275 725 OFFCURVE",
"301 732 CURVE SMOOTH",
"326 739 OFFCURVE",
"352 741 OFFCURVE",
"378 741 CURVE SMOOTH",
"433 741 OFFCURVE",
"490 726 OFFCURVE",
"544 704 CURVE",
"538 694 OFFCURVE",
"530 680 OFFCURVE",
"521 666 CURVE SMOOTH",
"516 659 OFFCURVE",
"512 652 OFFCURVE",
"508 646 CURVE SMOOTH",
"504 639 OFFCURVE",
"500 633 OFFCURVE",
"497 628 CURVE",
"449 654 OFFCURVE",
"398 675 OFFCURVE",
"345 675 CURVE SMOOTH",
"317 675 OFFCURVE",
"290 667 OFFCURVE",
"271 651 CURVE SMOOTH",
"251 635 OFFCURVE",
"238 612 OFFCURVE",
"238 583 CURVE SMOOTH",
"238 562 OFFCURVE",
"247 542 OFFCURVE",
"259 524 CURVE SMOOTH",
"270 506 OFFCURVE",
"285 489 OFFCURVE",
"299 473 CURVE"
);
}
);
width = 863;
}
);
unicode = 0026;
},
{
glyphname = quotesingle;
lastChange = "2015-11-24 04:11:55 +0000";
layers = (
{
layerId = "013FA67F-D7C9-4F04-AAC6-32032829ED9A";
name = "Bold Italic";
paths = (
{
closed = 1;
nodes = (
"267 732 LINE",
"256 644 OFFCURVE",
"248 546 OFFCURVE",
"243 458 CURVE",
"225 464 OFFCURVE",
"211 467 OFFCURVE",
"200 467 CURVE SMOOTH",
"186 467 OFFCURVE",
"169 464 OFFCURVE",
"149 459 CURVE",
"155 503 OFFCURVE",
"160 553 OFFCURVE",
"165 603 CURVE SMOOTH",
"169 653 OFFCURVE",
"173 702 OFFCURVE",
"175 746 CURVE",
"194 739 OFFCURVE",
"208 737 OFFCURVE",
"219 737 CURVE SMOOTH",
"231 737 OFFCURVE",
"243 738 OFFCURVE",
"255 742 CURVE"
);
}
);
width = 280;
}
);
unicode = 0027;
},
{
glyphname = parenleft;
lastChange = "2015-11-24 04:11:55 +0000";
layers = (
{
layerId = "013FA67F-D7C9-4F04-AAC6-32032829ED9A";
name = "Bold Italic";
paths = (
{
closed = 1;
nodes = (
"384 753 LINE",
"338 689 OFFCURVE",
"295 622 OFFCURVE",
"260 551 CURVE SMOOTH",
"225 481 OFFCURVE",
"200 407 OFFCURVE",
"192 330 CURVE",
"192 331 LINE",
"190 297 OFFCURVE",
"189 263 OFFCURVE",
"189 229 CURVE SMOOTH",
"189 191 OFFCURVE",
"191 154 OFFCURVE",
"194 116 CURVE SMOOTH",
"200 43 OFFCURVE",
"221 -38 OFFCURVE",
"250 -116 CURVE",
"208 -108 OFFCURVE",
"172 -105 OFFCURVE",
"137 -104 CURVE",
"99 5 OFFCURVE",
"85 116 OFFCURVE",
"85 228 CURVE SMOOTH",
"85 266 OFFCURVE",
"87 304 OFFCURVE",
"90 341 CURVE",
"102 419 OFFCURVE",
"130 493 OFFCURVE",
"168 563 CURVE SMOOTH",
"205 633 OFFCURVE",
"253 699 OFFCURVE",
"305 761 CURVE",
"330 761 OFFCURVE",
"352 765 OFFCURVE",
"374 769 CURVE"
);
}
);
width = 408;
}
);
unicode = 0028;
},
{
glyphname = parenright;
lastChange = "2015-11-24 04:11:55 +0000";
layers = (
{
layerId = "013FA67F-D7C9-4F04-AAC6-32032829ED9A";
name = "Bold Italic";
paths = (
{
closed = 1;
nodes = (
"234 569 OFFCURVE",
"218 667 OFFCURVE",
"179 766 CURVE",
"187 765 LINE",
"185 773 LINE",
"211 768 OFFCURVE",
"238 765 OFFCURVE",
"264 763 CURVE",
"288 710 OFFCURVE",
"305 656 OFFCURVE",
"316 600 CURVE SMOOTH",
"326 544 OFFCURVE",
"331 487 OFFCURVE",
"331 426 CURVE SMOOTH",
"331 316 OFFCURVE",
"316 209 OFFCURVE",
"266 109 CURVE SMOOTH",
"232 40 OFFCURVE",
"190 -31 OFFCURVE",
"146 -98 CURVE",
"110 -98 OFFCURVE",
"69 -102 OFFCURVE",
"17 -113 CURVE",
"67 -43 OFFCURVE",
"114 30 OFFCURVE",
"151 104 CURVE SMOOTH",
"189 178 OFFCURVE",
"216 254 OFFCURVE",
"228 330 CURVE",
"228 330 LINE",
"232 372 OFFCURVE",
"234 414 OFFCURVE",
"234 456 CURVE SMOOTH"
);
}
);
width = 395;
}
);
unicode = 0029;
},
{
glyphname = asterisk;
lastChange = "2015-11-24 04:11:55 +0000";
layers = (
{
layerId = "013FA67F-D7C9-4F04-AAC6-32032829ED9A";
name = "Bold Italic";
paths = (
{
closed = 1;
nodes = (
"568 610 LINE",
"517 582 OFFCURVE",
"466 554 OFFCURVE",
"414 526 CURVE",
"406 522 LINE",
"431 507 OFFCURVE",
"457 492 OFFCURVE",
"484 476 CURVE SMOOTH",
"510 460 OFFCURVE",
"536 445 OFFCURVE",
"560 429 CURVE",
"558 426 OFFCURVE",
"555 422 OFFCURVE",
"552 417 CURVE SMOOTH",
"546 407 OFFCURVE",
"539 396 OFFCURVE",
"533 387 CURVE",
"530 382 OFFCURVE",
"527 378 OFFCURVE",
"525 375 CURVE",
"501 391 OFFCURVE",
"477 408 OFFCURVE",
"454 423 CURVE SMOOTH",
"430 439 OFFCURVE",
"406 455 OFFCURVE",
"381 472 CURVE",
"378 437 LINE SMOOTH",
"374 393 OFFCURVE",
"370 343 OFFCURVE",
"368 299 CURVE",
"302 299 LINE",
"304 323 OFFCURVE",
"307 357 OFFCURVE",
"310 381 CURVE SMOOTH",
"311 389 OFFCURVE",
"312 397 OFFCURVE",
"312 405 CURVE SMOOTH",
"313 412 OFFCURVE",
"314 419 OFFCURVE",
"314 426 CURVE",
"316 440 OFFCURVE",
"317 454 OFFCURVE",
"318 471 CURVE",
"304 463 OFFCURVE",
"291 455 OFFCURVE",
"277 447 CURVE SMOOTH",
"264 439 OFFCURVE",
"250 431 OFFCURVE",
"236 422 CURVE SMOOTH",
"155 374 LINE",
"145 399 LINE",
"143 403 OFFCURVE",
"141 408 OFFCURVE",
"139 415 CURVE SMOOTH",
"136 421 OFFCURVE",
"134 426 OFFCURVE",
"132 430 CURVE",
"159 445 OFFCURVE",
"187 461 OFFCURVE",
"216 477 CURVE SMOOTH",
"246 492 OFFCURVE",
"274 508 OFFCURVE",
"302 523 CURVE",
"250 551 OFFCURVE",
"195 584 OFFCURVE",
"147 616 CURVE",
"148 617 OFFCURVE",
"150 619 OFFCURVE",
"151 621 CURVE SMOOTH",
"153 624 OFFCURVE",
"154 626 OFFCURVE",
"156 629 CURVE SMOOTH",
"157 631 OFFCURVE",
"159 633 OFFCURVE",
"160 636 CURVE",
"162 638 OFFCURVE",
"163 639 OFFCURVE",
"164 641 CURVE SMOOTH",
"165 642 OFFCURVE",
"165 644 OFFCURVE",
"165 644 CURVE SMOOTH",
"165 645 OFFCURVE",
"166 646 OFFCURVE",
"167 648 CURVE",
"167 649 OFFCURVE",
"169 651 OFFCURVE",
"171 655 CURVE",
"173 658 OFFCURVE",
"177 663 OFFCURVE",
"182 670 CURVE",
"220 643 OFFCURVE",
"266 614 OFFCURVE",
"304 588 CURVE",
"310 585 OFFCURVE",
"313 583 OFFCURVE",
"316 581 CURVE SMOOTH",
"318 579 OFFCURVE",
"321 577 OFFCURVE",
"327 573 CURVE",
"333 647 LINE",
"341 746 LINE",
"407 746 LINE",
"400 686 OFFCURVE",
"394 633 OFFCURVE",
"390 573 CURVE",
"416 589 OFFCURVE",
"444 605 OFFCURVE",
"472 622 CURVE SMOOTH",
"500 639 OFFCURVE",
"527 656 OFFCURVE",
"552 671 CURVE",
"555 665 OFFCURVE",
"558 657 OFFCURVE",
"562 647 CURVE",
"566 637 OFFCURVE",
"569 629 OFFCURVE",
"572 622 CURVE"
);
}
);
width = 602;
}
);
unicode = 002A;
},
{
glyphname = plus;
lastChange = "2015-11-24 04:11:55 +0000";
layers = (
{
layerId = "013FA67F-D7C9-4F04-AAC6-32032829ED9A";
name = "Bold Italic";
paths = (
{
closed = 1;
nodes = (
"462 627 LINE",
"452 540 OFFCURVE",
"444 454 OFFCURVE",
"436 366 CURVE",
"519 366 OFFCURVE",
"608 367 OFFCURVE",
"690 368 CURVE",
"682 276 LINE",
"639 277 OFFCURVE",
"597 277 OFFCURVE",
"555 277 CURVE SMOOTH",
"513 277 OFFCURVE",
"470 277 OFFCURVE",
"428 277 CURVE",
"420 193 OFFCURVE",
"414 101 OFFCURVE",
"408 17 CURVE",
"316 17 LINE",
"323 89 LINE SMOOTH",
"325 103 OFFCURVE",
"326 117 OFFCURVE",
"328 133 CURVE SMOOTH",
"329 149 OFFCURVE",
"331 166 OFFCURVE",
"332 182 CURVE SMOOTH",
"336 216 OFFCURVE",
"339 249 OFFCURVE",
"341 277 CURVE",
"321 277 OFFCURVE",
"302 277 OFFCURVE",
"283 277 CURVE SMOOTH",
"263 277 OFFCURVE",
"244 277 OFFCURVE",
"224 277 CURVE SMOOTH",
"214 277 OFFCURVE",
"203 277 OFFCURVE",
"191 277 CURVE",
"179 276 OFFCURVE",
"167 276 OFFCURVE",
"155 276 CURVE SMOOTH",
"142 276 OFFCURVE",
"130 276 OFFCURVE",
"119 276 CURVE SMOOTH",
"107 276 OFFCURVE",
"96 276 OFFCURVE",
"87 276 CURVE",
"95 369 LINE",
"180 367 OFFCURVE",
"263 367 OFFCURVE",
"349 367 CURVE",
"361 513 LINE",
"370 627 LINE"
);
}
);
width = 757;
}
);
unicode = 002B;
},
{
glyphname = comma;
lastChange = "2015-11-24 04:11:55 +0000";
layers = (
{
layerId = "013FA67F-D7C9-4F04-AAC6-32032829ED9A";
name = "Bold Italic";
paths = (
{
closed = 1;
nodes = (
"72 129 LINE",
"77 129 OFFCURVE",
"82 129 OFFCURVE",
"86 129 CURVE SMOOTH",
"91 129 OFFCURVE",
"96 129 OFFCURVE",
"101 129 CURVE SMOOTH",
"129 129 OFFCURVE",
"161 131 OFFCURVE",
"197 135 CURVE",
"194 119 OFFCURVE",
"191 99 OFFCURVE",
"188 79 CURVE SMOOTH",
"185 59 OFFCURVE",
"182 40 OFFCURVE",
"180 24 CURVE",
"159 -6 LINE SMOOTH",
"144 -27 OFFCURVE",
"127 -48 OFFCURVE",
"111 -69 CURVE SMOOTH",
"94 -91 OFFCURVE",
"77 -112 OFFCURVE",
"61 -131 CURVE",
"56 -132 OFFCURVE",
"51 -132 OFFCURVE",
"45 -132 CURVE SMOOTH",
"32 -133 OFFCURVE",
"17 -135 OFFCURVE",
"4 -136 CURVE SMOOTH",
"-3 -137 OFFCURVE",
"-9 -138 OFFCURVE",
"-13 -138 CURVE",
"-5 -119 OFFCURVE",
"6 -96 OFFCURVE",
"16 -72 CURVE SMOOTH",
"26 -48 OFFCURVE",
"36 -25 OFFCURVE",
"44 -5 CURVE SMOOTH",
"55 26 LINE",
"58 58 OFFCURVE",
"60 88 OFFCURVE",
"62 120 CURVE"
);
}
);
width = 309;
}
);
unicode = 002C;
},
{
glyphname = hyphen;
lastChange = "2015-11-24 04:11:55 +0000";
layers = (
{
layerId = "013FA67F-D7C9-4F04-AAC6-32032829ED9A";
name = "Bold Italic";
paths = (
{
closed = 1;
nodes = (
"96 328 LINE",
"98 328 OFFCURVE",
"101 328 OFFCURVE",
"104 328 CURVE",
"107 327 OFFCURVE",
"110 327 OFFCURVE",
"113 327 CURVE SMOOTH",
"130 327 LINE SMOOTH",
"161 327 OFFCURVE",
"191 328 OFFCURVE",
"222 329 CURVE SMOOTH",
"252 330 OFFCURVE",
"282 331 OFFCURVE",
"314 332 CURVE SMOOTH",
"364 333 LINE",
"351 310 OFFCURVE",
"342 289 OFFCURVE",
"342 273 CURVE SMOOTH",
"342 266 OFFCURVE",
"344 256 OFFCURVE",
"348 243 CURVE",
"306 243 OFFCURVE",
"257 243 OFFCURVE",
"208 242 CURVE SMOOTH",
"158 241 OFFCURVE",
"109 240 OFFCURVE",
"67 238 CURVE",
"81 262 OFFCURVE",
"88 283 OFFCURVE",
"88 298 CURVE SMOOTH",
"88 305 OFFCURVE",
"88 311 OFFCURVE",
"87 316 CURVE"
);
}
);
width = 431;
}
);
unicode = 002D;
},
{
glyphname = period;
lastChange = "2015-11-24 04:11:55 +0000";
layers = (
{
layerId = "013FA67F-D7C9-4F04-AAC6-32032829ED9A";
name = "Bold Italic";
paths = (
{
closed = 1;
nodes = (
"62 173 LINE",
"83 171 OFFCURVE",
"103 170 OFFCURVE",
"124 170 CURVE SMOOTH",
"136 170 OFFCURVE",
"151 170 OFFCURVE",
"167 171 CURVE SMOOTH",
"174 172 OFFCURVE",
"182 172 OFFCURVE",
"190 172 CURVE SMOOTH",
"197 173 OFFCURVE",
"204 173 OFFCURVE",
"210 174 CURVE",
"198 122 OFFCURVE",
"193 76 OFFCURVE",
"193 35 CURVE SMOOTH",
"193 33 OFFCURVE",
"193 31 OFFCURVE",
"194 28 CURVE",
"194 25 OFFCURVE",
"194 22 OFFCURVE",
"194 19 CURVE SMOOTH",
"194 16 OFFCURVE",
"194 13 OFFCURVE",
"194 11 CURVE",
"194 8 OFFCURVE",
"194 6 OFFCURVE",
"194 4 CURVE",
"164 7 OFFCURVE",
"138 8 OFFCURVE",
"116 8 CURVE SMOOTH",
"93 8 OFFCURVE",
"66 7 OFFCURVE",
"35 4 CURVE",
"46 55 OFFCURVE",
"51 102 OFFCURVE",
"51 144 CURVE SMOOTH",
"51 163 LINE"
);
}
);
width = 327;
}
);
unicode = 002E;
},
{
glyphname = slash;
lastChange = "2015-11-24 04:11:55 +0000";
layers = (
{
layerId = "013FA67F-D7C9-4F04-AAC6-32032829ED9A";
name = "Bold Italic";
paths = (
{
closed = 1;
nodes = (
"360 722 LINE",
"366 723 OFFCURVE",
"372 723 OFFCURVE",
"379 724 CURVE SMOOTH",
"386 725 OFFCURVE",
"393 726 OFFCURVE",
"400 727 CURVE SMOOTH",
"408 728 OFFCURVE",
"415 729 OFFCURVE",
"422 730 CURVE SMOOTH",
"429 731 OFFCURVE",
"435 732 OFFCURVE",
"440 733 CURVE",
"381 593 OFFCURVE",
"322 438 OFFCURVE",
"268 296 CURVE SMOOTH",
"220 172 OFFCURVE",
"171 44 OFFCURVE",
"121 -79 CURVE",
"87 -80 OFFCURVE",
"51 -83 OFFCURVE",
"-3 -91 CURVE",
"27 -26 OFFCURVE",
"58 43 OFFCURVE",
"88 112 CURVE SMOOTH",
"118 181 OFFCURVE",
"148 250 OFFCURVE",
"176 315 CURVE SMOOTH",
"189 347 OFFCURVE",
"204 380 OFFCURVE",
"218 414 CURVE SMOOTH",
"247 482 OFFCURVE",
"277 551 OFFCURVE",
"308 619 CURVE SMOOTH",
"323 652 OFFCURVE",
"338 685 OFFCURVE",
"352 716 CURVE"
);
}
);
width = 418;
}
);
unicode = 002F;
},
{
glyphname = zero;
lastChange = "2015-11-24 04:11:55 +0000";
layers = (
{
layerId = "013FA67F-D7C9-4F04-AAC6-32032829ED9A";
name = "Bold Italic";
paths = (
{
closed = 1;
nodes = (
"367 692 LINE SMOOTH",
"341 692 OFFCURVE",
"315 683 OFFCURVE",
"294 667 CURVE SMOOTH",
"272 651 OFFCURVE",
"255 628 OFFCURVE",
"246 603 CURVE",
"230 561 OFFCURVE",
"220 519 OFFCURVE",
"215 478 CURVE SMOOTH",
"210 437 OFFCURVE",
"209 397 OFFCURVE",
"209 359 CURVE SMOOTH",
"209 319 OFFCURVE",
"212 281 OFFCURVE",
"225 245 CURVE SMOOTH",
"239 209 OFFCURVE",
"275 189 OFFCURVE",
"313 189 CURVE SMOOTH",
"318 189 LINE SMOOTH",
"319 189 OFFCURVE",
"319 189 OFFCURVE",
"320 189 CURVE",
"320 188 OFFCURVE",
"321 188 OFFCURVE",
"321 188 CURVE SMOOTH",
"325 188 LINE SMOOTH",
"364 188 OFFCURVE",
"394 206 OFFCURVE",
"417 234 CURVE SMOOTH",
"440 262 OFFCURVE",
"456 300 OFFCURVE",
"468 338 CURVE SMOOTH",
"479 377 OFFCURVE",
"485 417 OFFCURVE",
"489 450 CURVE SMOOTH",
"493 484 OFFCURVE",
"493 509 OFFCURVE",
"493 520 CURVE SMOOTH",
"493 545 OFFCURVE",
"492 570 OFFCURVE",
"486 595 CURVE",
"482 623 OFFCURVE",
"470 647 OFFCURVE",
"452 665 CURVE SMOOTH",
"433 683 OFFCURVE",
"409 693 OFFCURVE",
"383 693 CURVE SMOOTH",
"383 693 OFFCURVE",
"382 693 OFFCURVE",
"381 693 CURVE",
"380 692 OFFCURVE",
"379 692 OFFCURVE",
"379 692 CURVE SMOOTH"
);
},
{
closed = 1;
nodes = (
"385 740 LINE SMOOTH",
"417 740 OFFCURVE",
"451 733 OFFCURVE",
"480 718 CURVE SMOOTH",
"509 704 OFFCURVE",
"533 682 OFFCURVE",
"548 652 CURVE SMOOTH",
"577 591 OFFCURVE",
"584 526 OFFCURVE",
"584 461 CURVE SMOOTH",
"584 431 OFFCURVE",
"583 401 OFFCURVE",
"581 372 CURVE",
"575 327 OFFCURVE",
"568 281 OFFCURVE",
"556 235 CURVE SMOOTH",
"544 190 OFFCURVE",
"527 145 OFFCURVE",
"501 105 CURVE SMOOTH",
"477 71 OFFCURVE",
"448 46 OFFCURVE",
"415 30 CURVE SMOOTH",
"382 13 OFFCURVE",
"346 5 OFFCURVE",
"312 5 CURVE SMOOTH",
"296 5 LINE SMOOTH",
"263 5 OFFCURVE",
"230 13 OFFCURVE",
"201 27 CURVE SMOOTH",
"172 42 OFFCURVE",
"148 64 OFFCURVE",
"133 93 CURVE SMOOTH",
"103 153 OFFCURVE",
"96 216 OFFCURVE",
"96 279 CURVE SMOOTH",
"96 311 OFFCURVE",
"98 343 OFFCURVE",
"100 374 CURVE",
"106 417 OFFCURVE",
"114 464 OFFCURVE",
"126 510 CURVE SMOOTH",
"138 556 OFFCURVE",
"155 601 OFFCURVE",
"180 640 CURVE SMOOTH",
"203 673 OFFCURVE",
"233 698 OFFCURVE",
"267 715 CURVE SMOOTH",
"301 732 OFFCURVE",
"337 740 OFFCURVE",
"371 740 CURVE SMOOTH"
);
}
);
width = 641;
}
);
unicode = 0030;
},
{
glyphname = one;
lastChange = "2015-11-24 04:11:55 +0000";
layers = (
{
layerId = "013FA67F-D7C9-4F04-AAC6-32032829ED9A";
name = "Bold Italic";
paths = (
{
closed = 1;
nodes = (
"147 153 LINE",
"198 157 OFFCURVE",
"242 159 OFFCURVE",
"294 160 CURVE",
"298 200 OFFCURVE",
"301 240 OFFCURVE",
"305 279 CURVE SMOOTH",
"308 317 OFFCURVE",
"311 356 OFFCURVE",
"315 395 CURVE SMOOTH",
"321 472 OFFCURVE",
"328 549 OFFCURVE",
"334 629 CURVE",
"283 620 OFFCURVE",
"223 613 OFFCURVE",
"165 607 CURVE",
"165 621 OFFCURVE",
"166 639 OFFCURVE",
"166 657 CURVE SMOOTH",
"166 666 OFFCURVE",
"166 675 OFFCURVE",
"167 684 CURVE",
"167 693 OFFCURVE",
"167 701 OFFCURVE",
"167 707 CURVE",
"227 711 OFFCURVE",
"279 718 OFFCURVE",
"332 726 CURVE SMOOTH",
"346 728 LINE",
"353 728 OFFCURVE",
"361 728 OFFCURVE",
"369 728 CURVE SMOOTH",
"377 728 OFFCURVE",
"385 728 OFFCURVE",
"392 728 CURVE SMOOTH",
"396 728 OFFCURVE",
"401 728 OFFCURVE",
"406 728 CURVE SMOOTH",
"416 728 OFFCURVE",
"427 728 OFFCURVE",
"437 729 CURVE",
"442 729 OFFCURVE",
"446 729 OFFCURVE",
"450 729 CURVE",
"429 539 OFFCURVE",
"411 350 OFFCURVE",
"397 160 CURVE",
"447 158 OFFCURVE",
"503 155 OFFCURVE",
"551 151 CURVE",
"549 114 OFFCURVE",
"548 68 OFFCURVE",
"548 32 CURVE SMOOTH",
"548 4 LINE",
"472 14 OFFCURVE",
"400 19 OFFCURVE",
"331 19 CURVE SMOOTH",
"263 19 OFFCURVE",
"193 14 OFFCURVE",
"117 6 CURVE",
"121 26 OFFCURVE",
"124 51 OFFCURVE",
"128 75 CURVE SMOOTH",
"131 99 OFFCURVE",
"134 123 OFFCURVE",
"138 144 CURVE"
);
}
);
width = 681;
}
);
unicode = 0031;
},
{
glyphname = two;
lastChange = "2015-11-24 04:11:55 +0000";
layers = (
{
layerId = "013FA67F-D7C9-4F04-AAC6-32032829ED9A";
name = "Bold Italic";
paths = (
{
closed = 1;
nodes = (
"428 281 LINE",
"392 247 OFFCURVE",
"360 209 OFFCURVE",
"344 165 CURVE",
"416 165 OFFCURVE",
"491 163 OFFCURVE",
"572 156 CURVE",
"571 145 OFFCURVE",
"571 133 OFFCURVE",
"571 120 CURVE",
"570 106 OFFCURVE",
"570 93 OFFCURVE",
"570 80 CURVE SMOOTH",
"569 66 OFFCURVE",
"569 53 OFFCURVE",
"569 40 CURVE SMOOTH",
"569 27 OFFCURVE",
"569 15 OFFCURVE",
"569 4 CURVE",
"489 14 OFFCURVE",
"412 19 OFFCURVE",
"338 19 CURVE SMOOTH",
"262 19 OFFCURVE",
"181 14 OFFCURVE",
"96 4 CURVE",
"98 15 OFFCURVE",
"100 27 OFFCURVE",
"102 40 CURVE SMOOTH",
"104 52 OFFCURVE",
"106 65 OFFCURVE",
"109 79 CURVE SMOOTH",
"113 105 OFFCURVE",
"117 132 OFFCURVE",
"120 154 CURVE",
"174 200 OFFCURVE",
"233 246 OFFCURVE",
"289 288 CURVE SMOOTH",
"329 316 OFFCURVE",
"368 344 OFFCURVE",
"401 378 CURVE",
"427 406 OFFCURVE",
"453 433 OFFCURVE",
"470 463 CURVE SMOOTH",
"486 488 OFFCURVE",
"495 517 OFFCURVE",
"495 546 CURVE SMOOTH",
"495 581 OFFCURVE",
"480 608 OFFCURVE",
"458 625 CURVE SMOOTH",
"435 642 OFFCURVE",
"404 650 OFFCURVE",
"372 650 CURVE SMOOTH",
"305 650 OFFCURVE",
"233 627 OFFCURVE",
"163 595 CURVE",
"163 602 OFFCURVE",
"164 611 OFFCURVE",
"164 620 CURVE SMOOTH",
"165 639 OFFCURVE",
"166 660 OFFCURVE",
"166 679 CURVE SMOOTH",
"166 689 OFFCURVE",
"166 697 OFFCURVE",
"166 704 CURVE",
"238 722 OFFCURVE",
"308 740 OFFCURVE",
"376 740 CURVE SMOOTH",
"407 740 OFFCURVE",
"439 737 OFFCURVE",
"470 729 CURVE SMOOTH",
"500 721 OFFCURVE",
"528 709 OFFCURVE",
"552 689 CURVE",
"586 659 OFFCURVE",
"601 615 OFFCURVE",
"601 571 CURVE SMOOTH",
"601 531 OFFCURVE",
"591 494 OFFCURVE",
"575 459 CURVE SMOOTH",
"558 424 OFFCURVE",
"534 391 OFFCURVE",
"508 360 CURVE",
"492 344 LINE SMOOTH",
"482 333 OFFCURVE",
"471 323 OFFCURVE",
"460 312 CURVE SMOOTH",
"450 301 OFFCURVE",
"439 291 OFFCURVE",
"428 280 CURVE"
);
}
);
width = 702;
}
);
unicode = 0032;
},
{
glyphname = three;
lastChange = "2015-11-24 04:11:55 +0000";
layers = (
{
layerId = "013FA67F-D7C9-4F04-AAC6-32032829ED9A";
name = "Bold Italic";
paths = (
{
closed = 1;
nodes = (
"595 546 OFFCURVE",
"583 507 OFFCURVE",
"561 474 CURVE SMOOTH",
"540 442 OFFCURVE",
"508 416 OFFCURVE",
"470 402 CURVE",
"502 396 OFFCURVE",
"530 380 OFFCURVE",
"549 352 CURVE SMOOTH",
"569 322 OFFCURVE",
"578 287 OFFCURVE",
"578 249 CURVE SMOOTH",
"578 217 OFFCURVE",
"574 181 OFFCURVE",
"563 148 CURVE SMOOTH",
"551 114 OFFCURVE",
"532 84 OFFCURVE",
"502 61 CURVE SMOOTH",
"466 35 OFFCURVE",
"425 21 OFFCURVE",
"385 14 CURVE SMOOTH",
"345 6 OFFCURVE",
"304 4 OFFCURVE",
"267 4 CURVE SMOOTH",
"208 4 OFFCURVE",
"149 12 OFFCURVE",
"88 28 CURVE",
"92 52 OFFCURVE",
"96 82 OFFCURVE",
"100 111 CURVE SMOOTH",
"102 125 OFFCURVE",
"104 139 OFFCURVE",
"106 154 CURVE SMOOTH",
"108 168 OFFCURVE",
"110 181 OFFCURVE",
"111 193 CURVE",
"169 161 OFFCURVE",
"227 151 OFFCURVE",
"283 151 CURVE SMOOTH",
"308 151 OFFCURVE",
"334 152 OFFCURVE",
"359 158 CURVE SMOOTH",
"384 164 OFFCURVE",
"407 173 OFFCURVE",
"427 189 CURVE",
"439 198 OFFCURVE",
"451 208 OFFCURVE",
"461 219 CURVE SMOOTH",
"471 231 OFFCURVE",
"478 243 OFFCURVE",
"478 258 CURVE SMOOTH",
"478 287 OFFCURVE",
"463 312 OFFCURVE",
"443 329 CURVE",
"426 344 OFFCURVE",
"405 353 OFFCURVE",
"383 357 CURVE SMOOTH",
"361 361 OFFCURVE",
"336 362 OFFCURVE",
"314 362 CURVE SMOOTH",
"247 362 LINE",
"249 396 LINE SMOOTH",
"250 403 OFFCURVE",
"251 413 OFFCURVE",
"252 423 CURVE",
"252 434 OFFCURVE",
"253 443 OFFCURVE",
"254 451 CURVE",
"257 451 OFFCURVE",
"262 451 OFFCURVE",
"267 451 CURVE SMOOTH",
"271 451 OFFCURVE",
"276 451 OFFCURVE",
"281 451 CURVE",
"286 450 OFFCURVE",
"291 450 OFFCURVE",
"296 450 CURVE SMOOTH",
"300 450 OFFCURVE",
"305 450 OFFCURVE",
"309 450 CURVE",
"316 450 OFFCURVE",
"324 450 OFFCURVE",
"332 450 CURVE SMOOTH",
"339 450 OFFCURVE",
"347 450 OFFCURVE",
"355 450 CURVE SMOOTH",
"390 450 OFFCURVE",
"424 461 OFFCURVE",
"449 481 CURVE SMOOTH",
"474 502 OFFCURVE",
"490 533 OFFCURVE",
"490 571 CURVE SMOOTH",
"490 609 OFFCURVE",
"470 631 OFFCURVE",
"443 643 CURVE SMOOTH",
"416 656 OFFCURVE",
"382 659 OFFCURVE",
"357 659 CURVE SMOOTH",
"297 659 OFFCURVE",
"233 648 OFFCURVE",
"167 633 CURVE",
"167 638 OFFCURVE",
"167 645 OFFCURVE",
"168 653 CURVE",
"168 660 OFFCURVE",
"168 668 OFFCURVE",
"168 676 CURVE SMOOTH",
"169 692 OFFCURVE",
"169 708 OFFCURVE",
"169 720 CURVE",
"239 731 OFFCURVE",
"306 740 OFFCURVE",
"371 740 CURVE SMOOTH",
"404 740 OFFCURVE",
"441 737 OFFCURVE",
"474 728 CURVE SMOOTH",
"507 719 OFFCURVE",
"537 705 OFFCURVE",
"559 682 CURVE SMOOTH",
"581 659 OFFCURVE",
"595 627 OFFCURVE",
"595 585 CURVE SMOOTH"
);
}
);
width = 667;
}
);
unicode = 0033;
},
{
glyphname = four;
lastChange = "2015-11-24 04:11:55 +0000";
layers = (
{
layerId = "013FA67F-D7C9-4F04-AAC6-32032829ED9A";
name = "Bold Italic";
paths = (
{
closed = 1;
nodes = (
"441 683 LINE",
"419 654 LINE",
"420 666 OFFCURVE",
"422 677 OFFCURVE",
"424 691 CURVE"
);
},
{
closed = 1;
nodes = (
"393 421 OFFCURVE",
"405 536 OFFCURVE",
"419 654 CURVE",
"375 594 OFFCURVE",
"334 538 OFFCURVE",
"293 480 CURVE SMOOTH",
"252 423 OFFCURVE",
"210 365 OFFCURVE",
"168 304 CURVE",
"204 304 OFFCURVE",
"240 304 OFFCURVE",
"275 305 CURVE SMOOTH",
"309 305 OFFCURVE",
"345 305 OFFCURVE",
"382 305 CURVE"
);
},
{
closed = 1;
nodes = (
"409 728 LINE",
"428 729 OFFCURVE",
"450 729 OFFCURVE",
"473 730 CURVE SMOOTH",
"495 731 OFFCURVE",
"517 732 OFFCURVE",
"537 733 CURVE",
"516 589 OFFCURVE",
"503 448 OFFCURVE",
"493 304 CURVE",
"509 304 OFFCURVE",
"527 304 OFFCURVE",
"544 303 CURVE SMOOTH",
"546 303 OFFCURVE",
"550 303 OFFCURVE",
"554 303 CURVE SMOOTH",
"558 303 OFFCURVE",
"562 303 OFFCURVE",
"566 303 CURVE",
"570 303 OFFCURVE",
"574 303 OFFCURVE",
"577 303 CURVE SMOOTH",
"581 303 OFFCURVE",
"583 303 OFFCURVE",
"585 303 CURVE",
"584 290 OFFCURVE",
"582 268 OFFCURVE",
"582 256 CURVE",
"581 250 OFFCURVE",
"581 242 OFFCURVE",
"581 233 CURVE",
"580 224 OFFCURVE",
"580 216 OFFCURVE",
"580 211 CURVE",
"564 211 OFFCURVE",
"549 212 OFFCURVE",
"533 213 CURVE SMOOTH",
"518 213 OFFCURVE",
"502 214 OFFCURVE",
"487 214 CURVE",
"486 205 OFFCURVE",
"486 195 OFFCURVE",
"486 186 CURVE SMOOTH",
"486 176 OFFCURVE",
"486 167 OFFCURVE",
"486 157 CURVE SMOOTH",
"486 112 OFFCURVE",
"487 58 OFFCURVE",
"489 12 CURVE",
"469 14 OFFCURVE",
"443 15 OFFCURVE",
"418 16 CURVE SMOOTH",
"405 17 OFFCURVE",
"393 17 OFFCURVE",
"380 18 CURVE SMOOTH",
"368 18 OFFCURVE",
"357 18 OFFCURVE",
"346 18 CURVE",
"356 107 LINE SMOOTH",
"360 146 OFFCURVE",
"363 177 OFFCURVE",
"369 216 CURVE",
"329 216 LINE SMOOTH",
"246 216 OFFCURVE",
"152 214 OFFCURVE",
"67 211 CURVE",
"69 220 OFFCURVE",
"70 233 OFFCURVE",
"72 245 CURVE SMOOTH",
"73 257 OFFCURVE",
"74 270 OFFCURVE",
"76 279 CURVE",
"182 429 OFFCURVE",
"289 578 OFFCURVE",
"401 724 CURVE"
);
}
);
width = 669;
}
);
unicode = 0034;
},
{
glyphname = five;
lastChange = "2015-11-24 04:11:55 +0000";
layers = (
{
layerId = "013FA67F-D7C9-4F04-AAC6-32032829ED9A";
name = "Bold Italic";
paths = (
{
closed = 1;
nodes = (
"182 737 LINE",
"246 730 OFFCURVE",
"311 727 OFFCURVE",
"376 727 CURVE SMOOTH",
"434 727 OFFCURVE",
"498 730 OFFCURVE",
"570 737 CURVE",
"557 653 LINE",
"494 648 OFFCURVE",
"434 646 OFFCURVE",
"374 646 CURVE SMOOTH",
"332 646 OFFCURVE",
"299 646 OFFCURVE",
"257 648 CURVE",
"256 619 OFFCURVE",
"255 591 OFFCURVE",
"253 563 CURVE SMOOTH",
"252 549 OFFCURVE",
"251 535 OFFCURVE",
"251 521 CURVE SMOOTH",
"250 507 OFFCURVE",
"249 492 OFFCURVE",
"247 477 CURVE",
"276 484 OFFCURVE",
"304 490 OFFCURVE",
"332 490 CURVE SMOOTH",
"365 490 OFFCURVE",
"399 486 OFFCURVE",
"430 476 CURVE SMOOTH",
"461 465 OFFCURVE",
"488 449 OFFCURVE",
"512 425 CURVE SMOOTH",
"551 383 OFFCURVE",
"566 326 OFFCURVE",
"566 268 CURVE SMOOTH",
"566 233 OFFCURVE",
"562 194 OFFCURVE",
"549 158 CURVE SMOOTH",
"537 122 OFFCURVE",
"516 88 OFFCURVE",
"484 63 CURVE SMOOTH",
"453 39 OFFCURVE",
"417 24 OFFCURVE",
"379 15 CURVE SMOOTH",
"341 7 OFFCURVE",
"302 4 OFFCURVE",
"266 4 CURVE SMOOTH",
"206 4 OFFCURVE",
"146 9 OFFCURVE",
"81 24 CURVE",
"85 48 OFFCURVE",
"90 77 OFFCURVE",
"94 106 CURVE SMOOTH",
"98 135 OFFCURVE",
"102 163 OFFCURVE",
"106 187 CURVE",
"162 157 OFFCURVE",
"220 146 OFFCURVE",
"277 146 CURVE SMOOTH",
"299 146 OFFCURVE",
"324 148 OFFCURVE",
"347 154 CURVE SMOOTH",
"370 160 OFFCURVE",
"392 171 OFFCURVE",
"411 187 CURVE SMOOTH",
"425 199 OFFCURVE",
"437 212 OFFCURVE",
"446 227 CURVE SMOOTH",
"454 241 OFFCURVE",
"460 258 OFFCURVE",
"460 278 CURVE SMOOTH",
"460 313 OFFCURVE",
"448 349 OFFCURVE",
"422 370 CURVE",
"388 394 OFFCURVE",
"348 400 OFFCURVE",
"310 400 CURVE SMOOTH",
"262 400 OFFCURVE",
"208 388 OFFCURVE",
"152 363 CURVE",
"157 421 OFFCURVE",
"161 484 OFFCURVE",
"165 546 CURVE SMOOTH",
"168 608 OFFCURVE",
"171 670 OFFCURVE",
"171 728 CURVE"
);
}
);
width = 652;
}
);
unicode = 0035;
},
{
glyphname = six;
lastChange = "2015-11-24 04:11:55 +0000";
layers = (
{
layerId = "013FA67F-D7C9-4F04-AAC6-32032829ED9A";
name = "Bold Italic";
paths = (
{
closed = 1;
nodes = (
"316 405 OFFCURVE",
"279 391 OFFCURVE",
"253 363 CURVE SMOOTH",
"237 346 OFFCURVE",
"226 324 OFFCURVE",
"218 302 CURVE SMOOTH",
"210 279 OFFCURVE",
"205 255 OFFCURVE",
"205 234 CURVE SMOOTH",
"205 202 OFFCURVE",
"223 181 OFFCURVE",
"247 168 CURVE SMOOTH",
"271 156 OFFCURVE",
"303 151 OFFCURVE",
"332 151 CURVE SMOOTH",
"362 151 OFFCURVE",
"394 159 OFFCURVE",
"420 175 CURVE SMOOTH",
"445 191 OFFCURVE",
"464 215 OFFCURVE",
"467 247 CURVE",
"467 258 LINE SMOOTH",
"467 260 OFFCURVE",
"467 262 OFFCURVE",
"468 264 CURVE",
"468 265 OFFCURVE",
"468 267 OFFCURVE",
"468 269 CURVE SMOOTH",
"468 303 OFFCURVE",
"462 337 OFFCURVE",
"442 364 CURVE",
"422 393 OFFCURVE",
"388 405 OFFCURVE",
"352 405 CURVE SMOOTH"
);
},
{
closed = 1;
nodes = (
"569 713 LINE",
"578 714 LINE",
"573 687 OFFCURVE",
"568 648 OFFCURVE",
"564 621 CURVE",
"517 640 OFFCURVE",
"470 650 OFFCURVE",
"428 650 CURVE SMOOTH",
"400 650 OFFCURVE",
"372 647 OFFCURVE",
"346 637 CURVE SMOOTH",
"319 628 OFFCURVE",
"295 613 OFFCURVE",
"276 590 CURVE SMOOTH",
"255 564 OFFCURVE",
"241 536 OFFCURVE",
"230 507 CURVE SMOOTH",
"220 478 OFFCURVE",
"213 448 OFFCURVE",
"207 419 CURVE",
"250 463 OFFCURVE",
"307 490 OFFCURVE",
"368 490 CURVE SMOOTH",
"398 490 OFFCURVE",
"428 486 OFFCURVE",
"455 475 CURVE SMOOTH",
"482 465 OFFCURVE",
"506 449 OFFCURVE",
"524 425 CURVE",
"524 426 LINE",
"542 404 OFFCURVE",
"554 380 OFFCURVE",
"562 354 CURVE SMOOTH",
"569 327 OFFCURVE",
"572 299 OFFCURVE",
"572 271 CURVE SMOOTH",
"572 237 OFFCURVE",
"568 199 OFFCURVE",
"556 163 CURVE SMOOTH",
"545 127 OFFCURVE",
"526 93 OFFCURVE",
"498 65 CURVE SMOOTH",
"472 41 OFFCURVE",
"441 26 OFFCURVE",
"409 17 CURVE SMOOTH",
"376 8 OFFCURVE",
"343 5 OFFCURVE",
"311 5 CURVE SMOOTH",
"275 5 OFFCURVE",
"239 12 OFFCURVE",
"208 27 CURVE SMOOTH",
"176 41 OFFCURVE",
"149 64 OFFCURVE",
"133 96 CURVE SMOOTH",
"103 151 OFFCURVE",
"96 212 OFFCURVE",
"96 276 CURVE SMOOTH",
"96 330 OFFCURVE",
"100 396 OFFCURVE",
"114 462 CURVE SMOOTH",
"129 527 OFFCURVE",
"153 592 OFFCURVE",
"195 643 CURVE",
"226 678 OFFCURVE",
"265 702 OFFCURVE",
"307 718 CURVE SMOOTH",
"349 734 OFFCURVE",
"394 741 OFFCURVE",
"437 741 CURVE SMOOTH",
"483 741 OFFCURVE",
"529 733 OFFCURVE",
"574 721 CURVE"
);
}
);
width = 657;
}
);
unicode = 0036;
},
{
glyphname = seven;
lastChange = "2015-11-24 04:11:55 +0000";
layers = (
{
layerId = "013FA67F-D7C9-4F04-AAC6-32032829ED9A";
name = "Bold Italic";
paths = (
{
closed = 1;
nodes = (
"184 742 LINE",
"256 732 OFFCURVE",
"329 727 OFFCURVE",
"402 727 CURVE SMOOTH",
"479 727 OFFCURVE",
"561 733 OFFCURVE",
"646 744 CURVE",
"646 743 OFFCURVE",
"646 741 OFFCURVE",
"646 739 CURVE SMOOTH",
"645 736 OFFCURVE",
"645 733 OFFCURVE",
"645 731 CURVE",
"644 725 OFFCURVE",
"643 720 OFFCURVE",
"643 718 CURVE",
"639 695 LINE",
"569 527 OFFCURVE",
"511 353 OFFCURVE",
"455 181 CURVE SMOOTH",
"438 130 OFFCURVE",
"418 69 OFFCURVE",
"400 18 CURVE",
"392 19 OFFCURVE",
"383 19 OFFCURVE",
"372 19 CURVE SMOOTH",
"362 19 OFFCURVE",
"352 19 OFFCURVE",
"344 19 CURVE SMOOTH",
"324 19 OFFCURVE",
"301 19 OFFCURVE",
"278 18 CURVE SMOOTH",
"254 17 OFFCURVE",
"230 16 OFFCURVE",
"211 14 CURVE",
"241 70 OFFCURVE",
"273 131 OFFCURVE",
"303 192 CURVE SMOOTH",
"334 253 OFFCURVE",
"364 314 OFFCURVE",
"392 372 CURVE SMOOTH",
"416 421 OFFCURVE",
"438 466 OFFCURVE",
"461 512 CURVE SMOOTH",
"483 557 OFFCURVE",
"506 602 OFFCURVE",
"532 651 CURVE",
"485 648 OFFCURVE",
"438 646 OFFCURVE",
"391 646 CURVE SMOOTH",
"319 646 OFFCURVE",
"246 651 OFFCURVE",
"172 660 CURVE",
"172 670 OFFCURVE",
"172 683 OFFCURVE",
"172 696 CURVE SMOOTH",
"172 710 OFFCURVE",
"172 722 OFFCURVE",
"172 733 CURVE"
);
}
);
width = 625;
}
);
unicode = 0037;
},
{
glyphname = eight;
lastChange = "2015-11-24 04:11:55 +0000";
layers = (
{
layerId = "013FA67F-D7C9-4F04-AAC6-32032829ED9A";
name = "Bold Italic";
paths = (
{
closed = 1;
nodes = (
"302 360 OFFCURVE",
"263 348 OFFCURVE",
"234 324 CURVE",
"219 311 OFFCURVE",
"208 294 OFFCURVE",
"200 276 CURVE SMOOTH",
"192 257 OFFCURVE",
"188 237 OFFCURVE",
"188 219 CURVE SMOOTH",
"188 197 OFFCURVE",
"201 178 OFFCURVE",
"217 162 CURVE SMOOTH",
"242 139 OFFCURVE",
"280 132 OFFCURVE",
"317 132 CURVE SMOOTH",
"353 132 OFFCURVE",
"393 139 OFFCURVE",
"422 163 CURVE SMOOTH",
"446 183 OFFCURVE",
"463 209 OFFCURVE",
"464 241 CURVE SMOOTH",
"464 273 OFFCURVE",
"455 303 OFFCURVE",
"434 325 CURVE SMOOTH",
"410 351 OFFCURVE",
"375 360 OFFCURVE",
"338 360 CURVE SMOOTH"
);
},
{
closed = 1;
nodes = (
"129 336 LINE",
"156 364 OFFCURVE",
"190 384 OFFCURVE",
"227 396 CURVE",
"198 406 OFFCURVE",
"175 427 OFFCURVE",
"160 452 CURVE SMOOTH",
"144 478 OFFCURVE",
"136 508 OFFCURVE",
"136 539 CURVE SMOOTH",
"136 592 OFFCURVE",
"156 648 OFFCURVE",
"200 685 CURVE",
"224 703 OFFCURVE",
"252 715 OFFCURVE",
"282 722 CURVE SMOOTH",
"311 729 OFFCURVE",
"341 731 OFFCURVE",
"369 731 CURVE SMOOTH",
"397 731 OFFCURVE",
"427 729 OFFCURVE",
"455 722 CURVE SMOOTH",
"483 715 OFFCURVE",
"509 703 OFFCURVE",
"531 685 CURVE",
"559 659 OFFCURVE",
"574 621 OFFCURVE",
"574 582 CURVE SMOOTH",
"574 544 OFFCURVE",
"562 503 OFFCURVE",
"541 469 CURVE SMOOTH",
"519 435 OFFCURVE",
"487 408 OFFCURVE",
"447 397 CURVE",
"484 386 OFFCURVE",
"516 365 OFFCURVE",
"539 336 CURVE SMOOTH",
"561 308 OFFCURVE",
"575 271 OFFCURVE",
"575 229 CURVE SMOOTH",
"575 199 OFFCURVE",
"570 165 OFFCURVE",
"559 134 CURVE SMOOTH",
"547 103 OFFCURVE",
"529 75 OFFCURVE",
"500 55 CURVE SMOOTH",
"472 34 OFFCURVE",
"440 22 OFFCURVE",
"407 14 CURVE SMOOTH",
"374 7 OFFCURVE",
"340 5 OFFCURVE",
"307 5 CURVE SMOOTH",
"274 5 OFFCURVE",
"241 7 OFFCURVE",
"209 14 CURVE SMOOTH",
"177 22 OFFCURVE",
"147 34 OFFCURVE",
"121 54 CURVE SMOOTH",
"84 84 OFFCURVE",
"72 131 OFFCURVE",
"72 179 CURVE SMOOTH",
"72 205 OFFCURVE",
"75 234 OFFCURVE",
"85 261 CURVE SMOOTH",
"94 289 OFFCURVE",
"108 314 OFFCURVE",
"130 336 CURVE"
);
},
{
closed = 1;
nodes = (
"232 573 LINE",
"231 567 OFFCURVE",
"231 562 OFFCURVE",
"231 557 CURVE SMOOTH",
"231 530 OFFCURVE",
"243 506 OFFCURVE",
"262 489 CURVE SMOOTH",
"282 472 OFFCURVE",
"307 462 OFFCURVE",
"335 462 CURVE SMOOTH",
"336 462 OFFCURVE",
"338 462 OFFCURVE",
"340 462 CURVE SMOOTH",
"342 462 OFFCURVE",
"344 462 OFFCURVE",
"346 462 CURVE",
"347 462 OFFCURVE",
"349 462 OFFCURVE",
"351 462 CURVE SMOOTH",
"353 462 OFFCURVE",
"355 462 OFFCURVE",
"356 462 CURVE SMOOTH",
"390 462 OFFCURVE",
"421 476 OFFCURVE",
"444 498 CURVE SMOOTH",
"466 521 OFFCURVE",
"481 552 OFFCURVE",
"481 586 CURVE SMOOTH",
"481 619 OFFCURVE",
"465 641 OFFCURVE",
"443 655 CURVE SMOOTH",
"421 668 OFFCURVE",
"391 674 OFFCURVE",
"363 674 CURVE SMOOTH",
"333 674 OFFCURVE",
"301 665 OFFCURVE",
"276 649 CURVE SMOOTH",
"251 632 OFFCURVE",
"234 607 OFFCURVE",
"232 574 CURVE"
);
}
);
width = 667;
}
);
unicode = 0038;
},
{
glyphname = nine;
lastChange = "2015-11-24 04:11:55 +0000";
layers = (
{
layerId = "013FA67F-D7C9-4F04-AAC6-32032829ED9A";
name = "Bold Italic";
paths = (
{
closed = 1;
nodes = (
"217 4 OFFCURVE",
"170 11 OFFCURVE",
"125 25 CURVE",
"132 30 LINE",
"120 31 LINE",
"124 54 OFFCURVE",
"128 80 OFFCURVE",
"132 107 CURVE SMOOTH",
"133 120 OFFCURVE",
"135 133 OFFCURVE",
"137 146 CURVE SMOOTH",
"138 158 OFFCURVE",
"140 171 OFFCURVE",
"141 182 CURVE",
"189 162 OFFCURVE",
"234 151 OFFCURVE",
"278 151 CURVE SMOOTH",
"328 151 OFFCURVE",
"382 156 OFFCURVE",
"428 184 CURVE",
"427 183 LINE",
"448 201 OFFCURVE",
"462 224 OFFCURVE",
"471 248 CURVE SMOOTH",
"480 273 OFFCURVE",
"485 300 OFFCURVE",
"489 326 CURVE",
"447 282 OFFCURVE",
"390 255 OFFCURVE",
"330 255 CURVE SMOOTH",
"300 255 OFFCURVE",
"270 260 OFFCURVE",
"243 270 CURVE SMOOTH",
"216 280 OFFCURVE",
"191 297 OFFCURVE",
"173 320 CURVE",
"173 320 LINE",
"137 362 OFFCURVE",
"127 420 OFFCURVE",
"127 476 CURVE SMOOTH",
"127 511 OFFCURVE",
"131 548 OFFCURVE",
"142 584 CURVE SMOOTH",
"153 620 OFFCURVE",
"170 653 OFFCURVE",
"200 679 CURVE SMOOTH",
"226 704 OFFCURVE",
"257 719 OFFCURVE",
"289 728 CURVE SMOOTH",
"321 737 OFFCURVE",
"355 740 OFFCURVE",
"387 740 CURVE SMOOTH",
"421 740 OFFCURVE",
"457 734 OFFCURVE",
"487 720 CURVE SMOOTH",
"518 706 OFFCURVE",
"545 684 OFFCURVE",
"562 654 CURVE",
"594 593 OFFCURVE",
"602 529 OFFCURVE",
"602 464 CURVE SMOOTH",
"602 410 OFFCURVE",
"597 344 OFFCURVE",
"582 280 CURVE SMOOTH",
"567 215 OFFCURVE",
"542 152 OFFCURVE",
"502 101 CURVE SMOOTH",
"471 66 OFFCURVE",
"433 42 OFFCURVE",
"392 26 CURVE SMOOTH",
"350 11 OFFCURVE",
"306 4 OFFCURVE",
"264 4 CURVE SMOOTH"
);
},
{
closed = 1;
nodes = (
"384 406 OFFCURVE",
"426 409 OFFCURVE",
"464 424 CURVE SMOOTH",
"486 433 OFFCURVE",
"499 454 OFFCURVE",
"507 476 CURVE SMOOTH",
"514 499 OFFCURVE",
"516 524 OFFCURVE",
"516 542 CURVE SMOOTH",
"516 576 OFFCURVE",
"508 607 OFFCURVE",
"485 629 CURVE SMOOTH",
"455 661 OFFCURVE",
"409 670 OFFCURVE",
"363 670 CURVE SMOOTH",
"321 670 OFFCURVE",
"277 657 OFFCURVE",
"244 629 CURVE SMOOTH",
"226 613 OFFCURVE",
"213 592 OFFCURVE",
"205 570 CURVE SMOOTH",
"197 548 OFFCURVE",
"193 524 OFFCURVE",
"193 501 CURVE SMOOTH",
"193 486 OFFCURVE",
"195 469 OFFCURVE",
"200 455 CURVE SMOOTH",
"205 441 OFFCURVE",
"214 429 OFFCURVE",
"228 423 CURVE SMOOTH",
"264 409 OFFCURVE",
"304 406 OFFCURVE",
"344 406 CURVE SMOOTH"
);
}
);
width = 657;
}
);
unicode = 0039;
},
{
glyphname = colon;
lastChange = "2015-11-24 04:11:55 +0000";
layers = (
{
layerId = "013FA67F-D7C9-4F04-AAC6-32032829ED9A";
name = "Bold Italic";
paths = (
{
closed = 1;
nodes = (
"109 164 LINE",
"128 167 OFFCURVE",
"148 169 OFFCURVE",
"168 169 CURVE SMOOTH",
"187 169 OFFCURVE",
"209 167 OFFCURVE",
"232 163 CURVE",
"231 151 OFFCURVE",
"230 138 OFFCURVE",
"230 124 CURVE",
"229 110 OFFCURVE",
"228 96 OFFCURVE",
"227 82 CURVE SMOOTH",
"225 53 OFFCURVE",
"223 24 OFFCURVE",
"222 1 CURVE",
"196 10 OFFCURVE",
"174 15 OFFCURVE",
"156 15 CURVE SMOOTH",
"136 15 OFFCURVE",
"111 10 OFFCURVE",
"83 1 CURVE",
"85 13 OFFCURVE",
"86 25 OFFCURVE",
"88 39 CURVE SMOOTH",
"91 65 OFFCURVE",
"94 92 OFFCURVE",
"97 119 CURVE SMOOTH",
"98 132 OFFCURVE",
"99 144 OFFCURVE",
"100 156 CURVE"
);
},
{
closed = 1;
nodes = (
"145 550 LINE",
"162 544 OFFCURVE",
"179 540 OFFCURVE",
"198 540 CURVE SMOOTH",
"217 540 OFFCURVE",
"241 546 OFFCURVE",
"271 557 CURVE",
"268 535 OFFCURVE",
"265 508 OFFCURVE",
"262 480 CURVE SMOOTH",
"259 452 OFFCURVE",
"256 425 OFFCURVE",
"254 403 CURVE",
"230 399 OFFCURVE",
"208 396 OFFCURVE",
"187 396 CURVE SMOOTH",
"168 396 OFFCURVE",
"147 399 OFFCURVE",
"122 405 CURVE",
"124 420 OFFCURVE",
"125 436 OFFCURVE",
"126 453 CURVE SMOOTH",
"127 469 OFFCURVE",
"128 485 OFFCURVE",
"129 499 CURVE SMOOTH",
"132 542 LINE"
);
}
);
width = 356;
}
);
unicode = 003A;
},
{
glyphname = semicolon;
lastChange = "2015-11-24 04:11:55 +0000";
layers = (
{
layerId = "013FA67F-D7C9-4F04-AAC6-32032829ED9A";
name = "Bold Italic";
paths = (
{
closed = 1;
nodes = (
"140 537 LINE",
"150 535 OFFCURVE",
"161 535 OFFCURVE",
"171 535 CURVE SMOOTH",
"196 535 OFFCURVE",
"224 540 OFFCURVE",
"258 553 CURVE",
"257 530 LINE",
"252 488 OFFCURVE",
"247 440 OFFCURVE",
"243 398 CURVE",
"211 389 OFFCURVE",
"184 387 OFFCURVE",
"160 387 CURVE SMOOTH",
"149 387 OFFCURVE",
"138 387 OFFCURVE",
"118 389 CURVE",
"119 403 OFFCURVE",
"121 418 OFFCURVE",
"122 434 CURVE SMOOTH",
"123 451 OFFCURVE",
"124 466 OFFCURVE",
"125 479 CURVE SMOOTH",
"126 487 OFFCURVE",
"127 495 OFFCURVE",
"127 504 CURVE SMOOTH",
"128 512 OFFCURVE",
"128 520 OFFCURVE",
"129 528 CURVE"
);
},
{
closed = 1;
nodes = (
"125 123 LINE SMOOTH",
"128 123 OFFCURVE",
"131 123 OFFCURVE",
"134 124 CURVE",
"137 124 OFFCURVE",
"140 124 OFFCURVE",
"144 124 CURVE SMOOTH",
"164 124 OFFCURVE",
"186 123 OFFCURVE",
"214 121 CURVE",
"214 112 OFFCURVE",
"213 102 OFFCURVE",
"212 91 CURVE",
"211 80 OFFCURVE",
"210 70 OFFCURVE",
"210 62 CURVE SMOOTH",
"207 23 LINE",
"164 -49 LINE SMOOTH",
"154 -64 OFFCURVE",
"145 -79 OFFCURVE",
"135 -96 CURVE SMOOTH",
"124 -112 OFFCURVE",
"115 -128 OFFCURVE",
"106 -143 CURVE",
"83 -144 OFFCURVE",
"56 -150 OFFCURVE",
"24 -162 CURVE",
"27 -151 OFFCURVE",
"31 -140 OFFCURVE",
"35 -128 CURVE SMOOTH",
"39 -116 OFFCURVE",
"43 -103 OFFCURVE",
"48 -90 CURVE SMOOTH",
"56 -65 OFFCURVE",
"65 -40 OFFCURVE",
"72 -19 CURVE SMOOTH",
"89 30 LINE",
"91 44 OFFCURVE",
"92 58 OFFCURVE",
"93 72 CURVE",
"94 79 OFFCURVE",
"95 87 OFFCURVE",
"95 97 CURVE SMOOTH",
"96 107 OFFCURVE",
"97 116 OFFCURVE",
"97 123 CURVE"
);
}
);
width = 336;
}
);
unicode = 003B;
},
{
glyphname = less;
lastChange = "2015-11-24 04:11:55 +0000";
layers = (
{
layerId = "013FA67F-D7C9-4F04-AAC6-32032829ED9A";
name = "Bold Italic";
paths = (
{
closed = 1;
nodes = (
"721 484 LINE",
"635 458 OFFCURVE",
"556 436 OFFCURVE",
"476 415 CURVE SMOOTH",
"396 394 OFFCURVE",
"316 374 OFFCURVE",
"230 353 CURVE",
"393 273 LINE SMOOTH",
"481 231 OFFCURVE",
"576 185 OFFCURVE",
"663 140 CURVE",
"659 102 OFFCURVE",
"658 60 OFFCURVE",
"658 12 CURVE",
"616 34 OFFCURVE",
"569 57 OFFCURVE",
"523 80 CURVE SMOOTH",
"477 102 OFFCURVE",
"430 125 OFFCURVE",
"388 146 CURVE SMOOTH",
"289 194 OFFCURVE",
"184 245 OFFCURVE",
"87 295 CURVE",
"89 304 OFFCURVE",
"90 313 OFFCURVE",
"92 323 CURVE SMOOTH",
"95 343 OFFCURVE",
"98 363 OFFCURVE",
"101 383 CURVE SMOOTH",
"102 393 OFFCURVE",
"103 402 OFFCURVE",
"104 411 CURVE",
"197 434 LINE SMOOTH",
"285 455 OFFCURVE",
"382 480 OFFCURVE",
"479 506 CURVE SMOOTH",
"575 532 OFFCURVE",
"671 559 OFFCURVE",
"758 587 CURVE",
"756 580 OFFCURVE",
"753 573 OFFCURVE",
"751 565 CURVE",
"745 548 OFFCURVE",
"739 530 OFFCURVE",
"734 513 CURVE SMOOTH",
"731 505 OFFCURVE",
"729 497 OFFCURVE",
"727 491 CURVE"
);
}
);
width = 789;
}
);
unicode = 003C;
},
{
glyphname = equal;
lastChange = "2015-11-24 04:11:55 +0000";
layers = (
{
layerId = "013FA67F-D7C9-4F04-AAC6-32032829ED9A";
name = "Bold Italic";
paths = (
{
closed = 1;
nodes = (
"124 468 LINE",
"222 464 OFFCURVE",
"320 462 OFFCURVE",
"420 462 CURVE SMOOTH",
"526 462 OFFCURVE",
"646 465 OFFCURVE",
"753 468 CURVE",
"739 437 OFFCURVE",
"729 406 OFFCURVE",
"723 376 CURVE",
"621 374 OFFCURVE",
"515 373 OFFCURVE",
"413 373 CURVE SMOOTH",
"319 373 OFFCURVE",
"217 374 OFFCURVE",
"123 376 CURVE",
"121 404 OFFCURVE",
"119 431 OFFCURVE",
"113 456 CURVE"
);
},
{
closed = 1;
nodes = (
"124 284 LINE",
"230 285 OFFCURVE",
"335 286 OFFCURVE",
"442 286 CURVE SMOOTH",
"529 286 OFFCURVE",
"625 285 OFFCURVE",
"713 284 CURVE",
"713 248 OFFCURVE",
"717 212 OFFCURVE",
"726 176 CURVE",
"626 180 OFFCURVE",
"514 182 OFFCURVE",
"412 182 CURVE SMOOTH",
"360 182 OFFCURVE",
"304 181 OFFCURVE",
"249 180 CURVE SMOOTH",
"193 179 OFFCURVE",
"137 178 OFFCURVE",
"85 176 CURVE",
"100 214 OFFCURVE",
"109 246 OFFCURVE",
"114 276 CURVE"
);
}
);
width = 823;
}
);
unicode = 003D;
},
{
glyphname = greater;
lastChange = "2015-11-24 04:11:55 +0000";
layers = (
{
layerId = "013FA67F-D7C9-4F04-AAC6-32032829ED9A";
name = "Bold Italic";
paths = (
{
closed = 1;
nodes = (
"148 550 LINE",
"148 555 OFFCURVE",
"148 560 OFFCURVE",
"149 565 CURVE",
"149 570 OFFCURVE",
"149 575 OFFCURVE",
"150 580 CURVE",
"150 588 OFFCURVE",
"151 600 OFFCURVE",
"152 612 CURVE",
"152 618 OFFCURVE",
"152 624 OFFCURVE",
"153 629 CURVE SMOOTH",
"153 635 OFFCURVE",
"153 639 OFFCURVE",
"153 643 CURVE",
"203 618 OFFCURVE",
"256 591 OFFCURVE",
"309 565 CURVE SMOOTH",
"362 539 OFFCURVE",
"415 512 OFFCURVE",
"465 488 CURVE SMOOTH",
"549 447 OFFCURVE",
"639 403 OFFCURVE",
"723 361 CURVE",
"715 322 OFFCURVE",
"709 284 OFFCURVE",
"705 244 CURVE",
"600 218 LINE SMOOTH",
"512 196 OFFCURVE",
"419 172 OFFCURVE",
"326 147 CURVE SMOOTH",
"233 122 OFFCURVE",
"140 96 OFFCURVE",
"52 68 CURVE",
"62 96 OFFCURVE",
"69 120 OFFCURVE",
"75 141 CURVE SMOOTH",
"81 162 OFFCURVE",
"86 180 OFFCURVE",
"91 198 CURVE",
"214 234 OFFCURVE",
"340 267 OFFCURVE",
"464 299 CURVE SMOOTH",
"583 329 LINE",
"555 343 OFFCURVE",
"528 357 OFFCURVE",
"501 370 CURVE SMOOTH",
"446 396 OFFCURVE",
"373 432 OFFCURVE",
"285 475 CURVE SMOOTH",
"241 496 OFFCURVE",
"197 518 OFFCURVE",
"153 541 CURVE"
);
}
);
width = 787;
}
);
unicode = 003E;
},
{
glyphname = question;
lastChange = "2015-11-24 04:11:55 +0000";
layers = (
{
layerId = "013FA67F-D7C9-4F04-AAC6-32032829ED9A";
name = "Bold Italic";
paths = (
{
closed = 1;
nodes = (
"216 155 LINE",
"247 157 OFFCURVE",
"279 158 OFFCURVE",
"311 158 CURVE SMOOTH",
"341 158 LINE",
"335 84 LINE SMOOTH",
"334 74 OFFCURVE",
"333 62 OFFCURVE",
"333 49 CURVE",
"332 36 OFFCURVE",
"331 24 OFFCURVE",
"330 14 CURVE",
"301 14 LINE SMOOTH",
"268 14 OFFCURVE",
"224 12 OFFCURVE",
"190 10 CURVE",
"192 30 OFFCURVE",
"196 54 OFFCURVE",
"199 78 CURVE SMOOTH",
"202 102 OFFCURVE",
"204 125 OFFCURVE",
"206 146 CURVE"
);
},
{
closed = 1;
nodes = (
"338 207 LINE",
"301 207 OFFCURVE",
"253 206 OFFCURVE",
"215 204 CURVE",
"219 246 LINE SMOOTH",
"223 286 OFFCURVE",
"226 325 OFFCURVE",
"243 365 CURVE",
"259 395 OFFCURVE",
"282 418 OFFCURVE",
"305 440 CURVE",
"310 443 OFFCURVE",
"314 446 OFFCURVE",
"318 450 CURVE",
"321 453 OFFCURVE",
"325 456 OFFCURVE",
"330 460 CURVE",
"354 481 LINE",
"362 487 LINE SMOOTH",
"377 499 OFFCURVE",
"395 513 OFFCURVE",
"410 528 CURVE SMOOTH",
"424 544 OFFCURVE",
"435 560 OFFCURVE",
"435 577 CURVE SMOOTH",
"435 605 OFFCURVE",
"424 627 OFFCURVE",
"406 643 CURVE SMOOTH",
"388 658 OFFCURVE",
"363 666 OFFCURVE",
"337 666 CURVE SMOOTH",
"310 666 OFFCURVE",
"281 660 OFFCURVE",
"251 650 CURVE SMOOTH",
"221 639 OFFCURVE",
"190 625 OFFCURVE",
"161 609 CURVE",
"161 616 OFFCURVE",
"162 628 OFFCURVE",
"163 640 CURVE",
"163 645 OFFCURVE",
"163 651 OFFCURVE",
"163 657 CURVE SMOOTH",
"164 662 OFFCURVE",
"164 667 OFFCURVE",
"164 670 CURVE SMOOTH",
"164 674 OFFCURVE",
"164 679 OFFCURVE",
"164 684 CURVE SMOOTH",
"165 690 OFFCURVE",
"165 694 OFFCURVE",
"165 698 CURVE",
"229 726 OFFCURVE",
"295 740 OFFCURVE",
"359 740 CURVE SMOOTH",
"384 740 OFFCURVE",
"409 738 OFFCURVE",
"433 732 CURVE SMOOTH",
"457 726 OFFCURVE",
"480 716 OFFCURVE",
"498 700 CURVE SMOOTH",
"526 676 OFFCURVE",
"537 640 OFFCURVE",
"537 604 CURVE SMOOTH",
"537 566 OFFCURVE",
"525 535 OFFCURVE",
"507 506 CURVE SMOOTH",
"489 478 OFFCURVE",
"464 452 OFFCURVE",
"440 427 CURVE SMOOTH",
"401 386 LINE",
"396 379 LINE SMOOTH",
"393 375 OFFCURVE",
"391 371 OFFCURVE",
"388 368 CURVE",
"386 364 OFFCURVE",
"383 360 OFFCURVE",
"380 357 CURVE SMOOTH",
"375 350 LINE",
"370 343 OFFCURVE",
"366 337 OFFCURVE",
"363 329 CURVE",
"353 303 OFFCURVE",
"352 273 OFFCURVE",
"350 245 CURVE",
"350 240 OFFCURVE",
"350 235 OFFCURVE",
"350 230 CURVE",
"349 225 OFFCURVE",
"349 220 OFFCURVE",
"348 215 CURVE"
);
}
);
width = 546;
}
);
unicode = 003F;
},
{
glyphname = at;
lastChange = "2015-11-24 04:11:55 +0000";
layers = (
{
layerId = "013FA67F-D7C9-4F04-AAC6-32032829ED9A";
name = "Bold Italic";
paths = (
{
closed = 1;
nodes = (
"363 303 OFFCURVE",
"363 297 OFFCURVE",
"363 291 CURVE SMOOTH",
"363 257 OFFCURVE",
"374 231 OFFCURVE",
"393 213 CURVE SMOOTH",
"412 195 OFFCURVE",
"439 186 OFFCURVE",
"471 186 CURVE SMOOTH",
"501 186 OFFCURVE",
"534 195 OFFCURVE",
"556 218 CURVE SMOOTH",
"586 248 OFFCURVE",
"596 288 OFFCURVE",
"596 328 CURVE SMOOTH",
"596 360 OFFCURVE",
"585 387 OFFCURVE",
"566 404 CURVE SMOOTH",
"546 422 OFFCURVE",
"519 431 OFFCURVE",
"489 431 CURVE SMOOTH",
"457 431 OFFCURVE",
"426 421 OFFCURVE",
"403 399 CURVE SMOOTH",
"377 375 OFFCURVE",
"367 342 OFFCURVE",
"364 308 CURVE SMOOTH"
);
},
{
closed = 1;
nodes = (
"600 104 LINE",
"601 117 LINE",
"562 80 OFFCURVE",
"512 56 OFFCURVE",
"460 56 CURVE SMOOTH",
"408 56 OFFCURVE",
"357 75 OFFCURVE",
"327 116 CURVE SMOOTH",
"300 151 OFFCURVE",
"289 197 OFFCURVE",
"289 242 CURVE SMOOTH",
"289 274 OFFCURVE",
"293 307 OFFCURVE",
"303 339 CURVE SMOOTH",
"313 371 OFFCURVE",
"329 401 OFFCURVE",
"353 426 CURVE",
"391 468 OFFCURVE",
"442 486 OFFCURVE",
"496 486 CURVE SMOOTH",
"549 486 OFFCURVE",
"596 461 OFFCURVE",
"628 423 CURVE",
"628 427 LINE",
"629 434 OFFCURVE",
"630 442 OFFCURVE",
"631 452 CURVE",
"631 462 OFFCURVE",
"632 470 OFFCURVE",
"633 477 CURVE",
"637 477 OFFCURVE",
"643 477 OFFCURVE",
"650 478 CURVE",
"657 478 OFFCURVE",
"664 478 OFFCURVE",
"671 478 CURVE",
"679 478 OFFCURVE",
"686 478 OFFCURVE",
"693 479 CURVE",
"699 479 OFFCURVE",
"705 479 OFFCURVE",
"710 479 CURVE",
"696 362 OFFCURVE",
"685 249 OFFCURVE",
"677 133 CURVE",
"716 140 OFFCURVE",
"751 160 OFFCURVE",
"777 192 CURVE SMOOTH",
"795 216 OFFCURVE",
"808 245 OFFCURVE",
"816 274 CURVE SMOOTH",
"824 304 OFFCURVE",
"827 334 OFFCURVE",
"827 362 CURVE SMOOTH",
"827 412 OFFCURVE",
"815 460 OFFCURVE",
"789 502 CURVE",
"790 502 LINE",
"762 541 OFFCURVE",
"723 571 OFFCURVE",
"679 591 CURVE SMOOTH",
"635 611 OFFCURVE",
"586 621 OFFCURVE",
"536 621 CURVE SMOOTH",
"462 621 OFFCURVE",
"388 603 OFFCURVE",
"322 563 CURVE SMOOTH",
"264 528 OFFCURVE",
"221 477 OFFCURVE",
"193 418 CURVE SMOOTH",
"164 360 OFFCURVE",
"151 294 OFFCURVE",
"151 231 CURVE SMOOTH",
"151 203 OFFCURVE",
"154 176 OFFCURVE",
"165 152 CURVE",
"165 152 LINE",
"183 112 OFFCURVE",
"210 77 OFFCURVE",
"238 43 CURVE",
"238 44 LINE",
"266 11 OFFCURVE",
"302 -9 OFFCURVE",
"342 -21 CURVE SMOOTH",
"381 -33 OFFCURVE",
"424 -37 OFFCURVE",
"468 -38 CURVE SMOOTH",
"545 -37 OFFCURVE",
"628 -16 OFFCURVE",
"702 37 CURVE",
"708 24 OFFCURVE",
"715 6 OFFCURVE",
"723 -12 CURVE",
"727 -21 OFFCURVE",
"731 -29 OFFCURVE",
"735 -38 CURVE SMOOTH",
"739 -46 OFFCURVE",
"742 -53 OFFCURVE",
"745 -60 CURVE",
"657 -122 OFFCURVE",
"556 -153 OFFCURVE",
"458 -153 CURVE SMOOTH",
"403 -153 OFFCURVE",
"347 -144 OFFCURVE",
"296 -125 CURVE SMOOTH",
"245 -105 OFFCURVE",
"199 -77 OFFCURVE",
"164 -35 CURVE",
"164 -36 LINE",
"132 -2 OFFCURVE",
"110 40 OFFCURVE",
"96 84 CURVE SMOOTH",
"82 128 OFFCURVE",
"76 175 OFFCURVE",
"76 223 CURVE SMOOTH",
"76 285 OFFCURVE",
"87 351 OFFCURVE",
"109 413 CURVE SMOOTH",
"132 475 OFFCURVE",
"167 533 OFFCURVE",
"216 580 CURVE",
"263 620 OFFCURVE",
"317 650 OFFCURVE",
"374 670 CURVE SMOOTH",
"430 690 OFFCURVE",
"490 699 OFFCURVE",
"548 699 CURVE SMOOTH",
"610 699 OFFCURVE",
"671 687 OFFCURVE",
"723 663 CURVE SMOOTH",
"775 639 OFFCURVE",
"821 602 OFFCURVE",
"853 553 CURVE SMOOTH",
"884 505 OFFCURVE",
"903 444 OFFCURVE",
"903 370 CURVE SMOOTH",
"903 330 OFFCURVE",
"897 285 OFFCURVE",
"882 242 CURVE SMOOTH",
"867 199 OFFCURVE",
"844 158 OFFCURVE",
"812 126 CURVE",
"784 101 OFFCURVE",
"749 83 OFFCURVE",
"712 72 CURVE SMOOTH",
"674 60 OFFCURVE",
"634 54 OFFCURVE",
"596 54 CURVE"
);
}
);
width = 967;
}
);
unicode = 0040;
},
{
glyphname = A;
lastChange = "2015-11-24 04:11:55 +0000";
layers = (
{
anchors = (
{
name = bottom;
position = "{360, 8}";
},
{
name = ogonek;
position = "{674, 5}";
},
{
name = top;
position = "{420, 728}";
}
);
layerId = "013FA67F-D7C9-4F04-AAC6-32032829ED9A";
name = "Bold Italic";
paths = (
{
closed = 1;
nodes = (
"445 486 OFFCURVE",
"439 513 OFFCURVE",
"433 539 CURVE SMOOTH",
"426 566 OFFCURVE",
"420 593 OFFCURVE",
"413 620 CURVE",
"353 471 LINE SMOOTH",
"323 397 OFFCURVE",
"294 328 OFFCURVE",
"263 254 CURVE",
"283 254 OFFCURVE",
"302 254 OFFCURVE",
"322 254 CURVE SMOOTH",
"341 254 OFFCURVE",
"360 254 OFFCURVE",
"380 254 CURVE SMOOTH",
"391 254 OFFCURVE",
"402 254 OFFCURVE",
"414 254 CURVE",
"425 254 OFFCURVE",
"436 254 OFFCURVE",
"447 254 CURVE SMOOTH",
"500 254 LINE",
"492 288 OFFCURVE",
"483 322 OFFCURVE",
"476 356 CURVE SMOOTH",
"468 390 OFFCURVE",
"460 424 OFFCURVE",
"451 459 CURVE SMOOTH"
);
},
{
closed = 1;
nodes = (
"473 728 LINE",
"491 666 OFFCURVE",
"510 597 OFFCURVE",
"528 535 CURVE SMOOTH",
"552 447 OFFCURVE",
"577 360 OFFCURVE",
"605 272 CURVE SMOOTH",
"633 184 OFFCURVE",
"664 94 OFFCURVE",
"702 4 CURVE",
"681 6 OFFCURVE",
"654 8 OFFCURVE",
"627 10 CURVE SMOOTH",
"600 12 OFFCURVE",
"572 13 OFFCURVE",
"550 15 CURVE",
"541 53 OFFCURVE",
"532 92 OFFCURVE",
"525 131 CURVE",
"473 133 OFFCURVE",
"423 133 OFFCURVE",
"372 133 CURVE SMOOTH",
"318 133 OFFCURVE",
"271 133 OFFCURVE",
"217 131 CURVE",
"210 112 OFFCURVE",
"201 93 OFFCURVE",
"191 72 CURVE SMOOTH",
"181 52 OFFCURVE",
"172 33 OFFCURVE",
"163 14 CURVE",
"153 14 OFFCURVE",
"142 13 OFFCURVE",
"129 12 CURVE",
"117 11 OFFCURVE",
"104 10 OFFCURVE",
"91 9 CURVE SMOOTH",
"77 8 OFFCURVE",
"64 7 OFFCURVE",
"52 7 CURVE",
"39 6 OFFCURVE",
"28 5 OFFCURVE",
"17 4 CURVE",
"116 172 OFFCURVE",
"195 342 OFFCURVE",
"269 504 CURVE SMOOTH",
"303 576 OFFCURVE",
"340 657 OFFCURVE",
"374 728 CURVE"
);
}
);
width = 835;
}
);
unicode = 0041;
},
{
glyphname = B;
lastChange = "2015-11-24 04:11:55 +0000";
layers = (
{
layerId = "013FA67F-D7C9-4F04-AAC6-32032829ED9A";
name = "Bold Italic";
paths = (
{
closed = 1;
nodes = (
"257 352 LINE",
"255 331 LINE SMOOTH",
"249 275 OFFCURVE",
"245 222 OFFCURVE",
"237 165 CURVE",
"285 166 OFFCURVE",
"335 168 OFFCURVE",
"383 168 CURVE SMOOTH",
"420 168 OFFCURVE",
"460 170 OFFCURVE",
"495 188 CURVE",
"494 187 LINE",
"508 195 OFFCURVE",
"519 209 OFFCURVE",
"525 224 CURVE SMOOTH",
"531 240 OFFCURVE",
"534 256 OFFCURVE",
"534 272 CURVE SMOOTH",
"534 292 OFFCURVE",
"518 309 OFFCURVE",
"505 323 CURVE",
"505 323 LINE",
"491 335 OFFCURVE",
"475 342 OFFCURVE",
"457 347 CURVE SMOOTH",
"439 351 OFFCURVE",
"419 352 OFFCURVE",
"401 352 CURVE SMOOTH"
);
},
{
closed = 1;
nodes = (
"277 667 LINE",
"277 666 OFFCURVE",
"277 664 OFFCURVE",
"277 662 CURVE",
"277 661 OFFCURVE",
"277 659 OFFCURVE",
"277 657 CURVE",
"267 658 LINE"
);
},
{
closed = 1;
nodes = (
"369 654 OFFCURVE",
"323 655 OFFCURVE",
"277 657 CURVE",
"274 583 OFFCURVE",
"270 515 OFFCURVE",
"265 439 CURVE",
"286 439 OFFCURVE",
"308 438 OFFCURVE",
"330 439 CURVE SMOOTH",
"352 439 OFFCURVE",
"374 439 OFFCURVE",
"395 439 CURVE SMOOTH",
"428 439 OFFCURVE",
"464 443 OFFCURVE",
"492 462 CURVE",
"507 474 OFFCURVE",
"518 491 OFFCURVE",
"526 508 CURVE SMOOTH",
"533 526 OFFCURVE",
"537 543 OFFCURVE",
"537 558 CURVE SMOOTH",
"537 594 OFFCURVE",
"522 618 OFFCURVE",
"499 633 CURVE SMOOTH",
"476 648 OFFCURVE",
"445 654 OFFCURVE",
"415 654 CURVE SMOOTH"
);
},
{
closed = 1;
nodes = (
"183 742 LINE",
"256 732 OFFCURVE",
"329 729 OFFCURVE",
"403 728 CURVE SMOOTH",
"448 727 OFFCURVE",
"492 723 OFFCURVE",
"532 708 CURVE SMOOTH",
"562 696 OFFCURVE",
"584 678 OFFCURVE",
"598 656 CURVE SMOOTH",
"612 633 OFFCURVE",
"620 606 OFFCURVE",
"620 580 CURVE SMOOTH",
"620 544 OFFCURVE",
"611 506 OFFCURVE",
"593 473 CURVE SMOOTH",
"575 441 OFFCURVE",
"547 413 OFFCURVE",
"510 401 CURVE",
"549 392 OFFCURVE",
"584 371 OFFCURVE",
"609 343 CURVE SMOOTH",
"634 314 OFFCURVE",
"649 277 OFFCURVE",
"649 236 CURVE SMOOTH",
"649 205 OFFCURVE",
"645 172 OFFCURVE",
"634 142 CURVE SMOOTH",
"622 112 OFFCURVE",
"603 85 OFFCURVE",
"573 65 CURVE SMOOTH",
"543 45 OFFCURVE",
"510 34 OFFCURVE",
"477 27 CURVE SMOOTH",
"444 21 OFFCURVE",
"409 19 OFFCURVE",
"377 19 CURVE SMOOTH",
"291 19 OFFCURVE",
"203 14 OFFCURVE",
"107 4 CURVE",
"151 251 OFFCURVE",
"172 495 OFFCURVE",
"172 733 CURVE"
);
}
);
width = 740;
}
);
unicode = 0042;
},
{
glyphname = C;
lastChange = "2015-11-24 04:11:55 +0000";
layers = (
{
anchors = (
{
name = bottom;
position = "{421, 0}";
},
{
name = top;
position = "{421, 728}";
}
);
layerId = "013FA67F-D7C9-4F04-AAC6-32032829ED9A";
name = "Bold Italic";
paths = (
{
closed = 1;
nodes = (
"687 679 LINE",
"699 678 LINE",
"697 671 OFFCURVE",
"696 662 OFFCURVE",
"694 652 CURVE SMOOTH",
"693 643 OFFCURVE",
"691 633 OFFCURVE",
"689 623 CURVE SMOOTH",
"686 603 OFFCURVE",
"683 582 OFFCURVE",
"681 567 CURVE",
"625 623 OFFCURVE",
"553 652 OFFCURVE",
"483 652 CURVE SMOOTH",
"449 652 OFFCURVE",
"414 649 OFFCURVE",
"380 639 CURVE SMOOTH",
"346 629 OFFCURVE",
"314 612 OFFCURVE",
"288 586 CURVE",
"289 586 LINE",
"255 550 OFFCURVE",
"235 509 OFFCURVE",
"223 465 CURVE SMOOTH",
"210 421 OFFCURVE",
"206 376 OFFCURVE",
"206 336 CURVE SMOOTH",
"206 311 OFFCURVE",
"208 286 OFFCURVE",
"215 263 CURVE SMOOTH",
"222 241 OFFCURVE",
"233 220 OFFCURVE",
"251 204 CURVE",
"251 205 LINE",
"275 185 OFFCURVE",
"305 173 OFFCURVE",
"337 167 CURVE SMOOTH",
"369 160 OFFCURVE",
"402 158 OFFCURVE",
"434 158 CURVE SMOOTH",
"468 158 OFFCURVE",
"506 166 OFFCURVE",
"543 181 CURVE SMOOTH",
"579 197 OFFCURVE",
"616 219 OFFCURVE",
"649 249 CURVE",
"648 225 OFFCURVE",
"647 196 OFFCURVE",
"646 167 CURVE SMOOTH",
"645 137 OFFCURVE",
"644 108 OFFCURVE",
"644 85 CURVE SMOOTH",
"644 64 LINE",
"574 20 OFFCURVE",
"496 5 OFFCURVE",
"421 5 CURVE SMOOTH",
"373 5 OFFCURVE",
"324 11 OFFCURVE",
"279 25 CURVE SMOOTH",
"233 40 OFFCURVE",
"192 64 OFFCURVE",
"160 100 CURVE",
"136 130 OFFCURVE",
"121 164 OFFCURVE",
"111 201 CURVE SMOOTH",
"101 237 OFFCURVE",
"98 276 OFFCURVE",
"98 316 CURVE SMOOTH",
"98 367 OFFCURVE",
"104 428 OFFCURVE",
"121 486 CURVE SMOOTH",
"138 544 OFFCURVE",
"165 601 OFFCURVE",
"207 645 CURVE",
"245 681 OFFCURVE",
"291 706 OFFCURVE",
"340 721 CURVE SMOOTH",
"388 736 OFFCURVE",
"439 741 OFFCURVE",
"487 741 CURVE SMOOTH",
"561 741 OFFCURVE",
"636 726 OFFCURVE",
"696 684 CURVE"
);
}
);
width = 765;
}
);
unicode = 0043;
},
{
glyphname = D;
lastChange = "2015-11-24 04:11:55 +0000";
layers = (
{
anchors = (
{
name = bottom;
position = "{369, -11}";
},
{
name = center;
position = "{404, 364}";
},
{
name = top;
position = "{404, 728}";
}
);
layerId = "013FA67F-D7C9-4F04-AAC6-32032829ED9A";
name = "Bold Italic";
paths = (
{
closed = 1;
nodes = (
"282 653 LINE",
"282 652 OFFCURVE",
"282 650 OFFCURVE",
"282 648 CURVE",
"282 647 OFFCURVE",
"282 645 OFFCURVE",
"282 643 CURVE",
"280 643 OFFCURVE",
"278 643 OFFCURVE",
"277 643 CURVE SMOOTH",
"275 643 OFFCURVE",
"273 643 OFFCURVE",
"272 644 CURVE"
);
},
{
closed = 1;
nodes = (
"356 640 OFFCURVE",
"319 641 OFFCURVE",
"282 643 CURVE",
"276 494 OFFCURVE",
"266 350 OFFCURVE",
"248 202 CURVE",
"284 204 OFFCURVE",
"320 204 OFFCURVE",
"356 205 CURVE SMOOTH",
"358 205 OFFCURVE",
"361 205 OFFCURVE",
"363 205 CURVE",
"366 205 OFFCURVE",
"368 205 OFFCURVE",
"371 205 CURVE SMOOTH",
"402 206 OFFCURVE",
"434 208 OFFCURVE",
"465 212 CURVE SMOOTH",
"496 217 OFFCURVE",
"526 226 OFFCURVE",
"554 242 CURVE",
"554 242 LINE",
"578 258 OFFCURVE",
"595 281 OFFCURVE",
"609 306 CURVE SMOOTH",
"622 331 OFFCURVE",
"632 358 OFFCURVE",
"641 384 CURVE",
"642 400 OFFCURVE",
"642 416 OFFCURVE",
"642 431 CURVE SMOOTH",
"642 482 OFFCURVE",
"631 535 OFFCURVE",
"601 573 CURVE",
"574 599 OFFCURVE",
"540 615 OFFCURVE",
"504 625 CURVE SMOOTH",
"467 635 OFFCURVE",
"429 639 OFFCURVE",
"393 640 CURVE"
);
},
{
closed = 1;
nodes = (
"183 742 LINE",
"249 734 OFFCURVE",
"312 731 OFFCURVE",
"378 729 CURVE SMOOTH",
"430 727 OFFCURVE",
"485 724 OFFCURVE",
"538 712 CURVE SMOOTH",
"590 701 OFFCURVE",
"639 681 OFFCURVE",
"679 645 CURVE",
"705 619 OFFCURVE",
"722 587 OFFCURVE",
"732 552 CURVE SMOOTH",
"742 518 OFFCURVE",
"745 480 OFFCURVE",
"745 444 CURVE SMOOTH",
"745 392 OFFCURVE",
"741 328 OFFCURVE",
"725 266 CURVE SMOOTH",
"709 203 OFFCURVE",
"680 142 OFFCURVE",
"630 100 CURVE SMOOTH",
"584 64 OFFCURVE",
"533 45 OFFCURVE",
"479 34 CURVE SMOOTH",
"425 22 OFFCURVE",
"370 19 OFFCURVE",
"318 17 CURVE SMOOTH",
"284 16 OFFCURVE",
"249 14 OFFCURVE",
"213 12 CURVE SMOOTH",
"176 10 OFFCURVE",
"140 7 OFFCURVE",
"107 4 CURVE",
"151 230 OFFCURVE",
"173 452 OFFCURVE",
"173 670 CURVE SMOOTH",
"173 680 OFFCURVE",
"173 691 OFFCURVE",
"173 701 CURVE SMOOTH",
"173 712 OFFCURVE",
"173 722 OFFCURVE",
"172 733 CURVE"
);
}
);
width = 803;
}
);
unicode = 0044;
},
{
glyphname = E;
lastChange = "2015-11-24 04:11:55 +0000";
layers = (
{
anchors = (
{
name = bottom;
position = "{333, 0}";
},
{
name = ogonek;
position = "{614, 5}";
},
{
name = top;
position = "{333, 728}";
}
);
layerId = "013FA67F-D7C9-4F04-AAC6-32032829ED9A";
name = "Bold Italic";
paths = (
{
closed = 1;
nodes = (
"184 742 LINE",
"257 732 OFFCURVE",
"330 727 OFFCURVE",
"405 727 CURVE SMOOTH",
"480 727 OFFCURVE",
"560 733 OFFCURVE",
"644 743 CURVE",
"637 701 LINE SMOOTH",
"634 686 OFFCURVE",
"631 664 OFFCURVE",
"629 649 CURVE",
"551 641 OFFCURVE",
"478 637 OFFCURVE",
"408 637 CURVE SMOOTH",
"361 637 OFFCURVE",
"323 638 OFFCURVE",
"276 641 CURVE",
"275 606 OFFCURVE",
"273 573 OFFCURVE",
"270 542 CURVE SMOOTH",
"268 510 OFFCURVE",
"266 476 OFFCURVE",
"263 442 CURVE",
"301 441 OFFCURVE",
"336 441 OFFCURVE",
"374 441 CURVE SMOOTH",
"443 441 OFFCURVE",
"521 442 OFFCURVE",
"590 444 CURVE",
"586 424 OFFCURVE",
"583 396 OFFCURVE",
"582 377 CURVE",
"582 374 OFFCURVE",
"582 370 OFFCURVE",
"581 364 CURVE SMOOTH",
"581 359 OFFCURVE",
"581 354 OFFCURVE",
"581 352 CURVE",
"554 352 OFFCURVE",
"525 352 OFFCURVE",
"495 352 CURVE SMOOTH",
"464 351 OFFCURVE",
"436 351 OFFCURVE",
"409 351 CURVE SMOOTH",
"255 351 LINE",
"253 320 OFFCURVE",
"250 291 OFFCURVE",
"247 262 CURVE SMOOTH",
"246 247 OFFCURVE",
"244 232 OFFCURVE",
"242 218 CURVE SMOOTH",
"241 203 OFFCURVE",
"239 188 OFFCURVE",
"237 172 CURVE",
"280 174 OFFCURVE",
"321 175 OFFCURVE",
"363 175 CURVE SMOOTH",
"435 175 OFFCURVE",
"510 172 OFFCURVE",
"591 165 CURVE",
"589 142 OFFCURVE",
"589 113 OFFCURVE",
"588 85 CURVE SMOOTH",
"588 70 OFFCURVE",
"588 56 OFFCURVE",
"588 42 CURVE SMOOTH",
"588 28 OFFCURVE",
"588 15 OFFCURVE",
"588 4 CURVE",
"505 14 OFFCURVE",
"426 19 OFFCURVE",
"352 19 CURVE SMOOTH",
"275 19 OFFCURVE",
"194 13 OFFCURVE",
"108 4 CURVE",
"150 252 OFFCURVE",
"170 493 OFFCURVE",
"172 733 CURVE"
);
}
);
width = 721;
}
);
unicode = 0045;
},
{
glyphname = F;
lastChange = "2015-11-24 04:11:55 +0000";
layers = (
{
layerId = "013FA67F-D7C9-4F04-AAC6-32032829ED9A";
name = "Bold Italic";
paths = (
{
closed = 1;
nodes = (
"183 739 LINE",
"242 731 OFFCURVE",
"301 727 OFFCURVE",
"360 727 CURVE SMOOTH",
"429 727 OFFCURVE",
"502 733 OFFCURVE",
"582 744 CURVE",
"581 738 OFFCURVE",
"580 730 OFFCURVE",
"579 721 CURVE SMOOTH",
"577 713 OFFCURVE",
"576 704 OFFCURVE",
"575 695 CURVE SMOOTH",
"573 685 OFFCURVE",
"572 676 OFFCURVE",
"571 668 CURVE SMOOTH",
"569 659 OFFCURVE",
"568 651 OFFCURVE",
"567 645 CURVE",
"493 636 OFFCURVE",
"423 632 OFFCURVE",
"353 632 CURVE SMOOTH",
"324 632 OFFCURVE",
"302 632 OFFCURVE",
"274 634 CURVE",
"272 617 OFFCURVE",
"270 601 OFFCURVE",
"268 585 CURVE SMOOTH",
"265 554 OFFCURVE",
"261 523 OFFCURVE",
"257 492 CURVE SMOOTH",
"255 476 OFFCURVE",
"253 459 OFFCURVE",
"251 442 CURVE",
"256 442 OFFCURVE",
"261 442 OFFCURVE",
"268 442 CURVE",
"274 442 OFFCURVE",
"280 442 OFFCURVE",
"284 442 CURVE SMOOTH",
"329 442 LINE SMOOTH",
"389 442 OFFCURVE",
"458 443 OFFCURVE",
"518 444 CURVE",
"517 434 OFFCURVE",
"516 422 OFFCURVE",
"514 409 CURVE",
"514 402 OFFCURVE",
"513 396 OFFCURVE",
"512 390 CURVE SMOOTH",
"512 383 OFFCURVE",
"511 378 OFFCURVE",
"511 373 CURVE SMOOTH",
"507 333 LINE",
"492 334 OFFCURVE",
"477 334 OFFCURVE",
"459 334 CURVE SMOOTH",
"442 334 OFFCURVE",
"426 334 OFFCURVE",
"411 334 CURVE SMOOTH",
"397 334 OFFCURVE",
"382 334 OFFCURVE",
"368 334 CURVE SMOOTH",
"353 333 OFFCURVE",
"339 333 OFFCURVE",
"324 333 CURVE SMOOTH",
"246 333 LINE",
"240 230 OFFCURVE",
"232 120 OFFCURVE",
"222 17 CURVE",
"180 13 OFFCURVE",
"136 11 OFFCURVE",
"88 3 CURVE",
"134 250 OFFCURVE",
"160 492 OFFCURVE",
"172 730 CURVE"
);
}
);
width = 570;
}
);
unicode = 0046;
},
{
glyphname = G;
lastChange = "2015-11-24 04:11:55 +0000";
layers = (
{
anchors = (
{
name = bottom;
position = "{443, 0}";
},
{
name = top;
position = "{443, 728}";
}
);
layerId = "013FA67F-D7C9-4F04-AAC6-32032829ED9A";
name = "Bold Italic";
paths = (
{
closed = 1;
nodes = (
"578 196 LINE",
"577 195 LINE",
"578 195 OFFCURVE",
"578 196 OFFCURVE",
"578 196 CURVE"
);
},
{
closed = 1;
nodes = (
"436 168 LINE",
"448 168 OFFCURVE",
"460 168 OFFCURVE",
"474 169 CURVE",
"500 169 OFFCURVE",
"526 172 OFFCURVE",
"549 180 CURVE SMOOTH",
"560 184 OFFCURVE",
"569 190 OFFCURVE",
"577 197 CURVE SMOOTH",
"578 198 LINE",
"579 210 OFFCURVE",
"580 222 OFFCURVE",
"580 233 CURVE SMOOTH",
"581 245 OFFCURVE",
"582 256 OFFCURVE",
"582 268 CURVE",
"559 268 OFFCURVE",
"534 269 OFFCURVE",
"509 269 CURVE SMOOTH",
"483 269 OFFCURVE",
"459 269 OFFCURVE",
"436 269 CURVE",
"445 380 LINE",
"575 380 LINE SMOOTH",
"596 380 OFFCURVE",
"618 380 OFFCURVE",
"641 381 CURVE SMOOTH",
"665 381 OFFCURVE",
"686 381 OFFCURVE",
"707 381 CURVE",
"697 276 OFFCURVE",
"692 175 OFFCURVE",
"692 75 CURVE",
"610 23 OFFCURVE",
"517 5 OFFCURVE",
"429 5 CURVE SMOOTH",
"381 5 OFFCURVE",
"330 10 OFFCURVE",
"283 24 CURVE SMOOTH",
"237 38 OFFCURVE",
"194 62 OFFCURVE",
"161 98 CURVE",
"138 127 OFFCURVE",
"123 161 OFFCURVE",
"113 197 CURVE SMOOTH",
"103 233 OFFCURVE",
"99 271 OFFCURVE",
"99 309 CURVE SMOOTH",
"99 361 OFFCURVE",
"104 424 OFFCURVE",
"120 484 CURVE SMOOTH",
"136 544 OFFCURVE",
"163 602 OFFCURVE",
"209 646 CURVE SMOOTH",
"245 680 OFFCURVE",
"292 704 OFFCURVE",
"340 719 CURVE SMOOTH",
"389 734 OFFCURVE",
"440 741 OFFCURVE",
"486 741 CURVE SMOOTH",
"527 741 OFFCURVE",
"569 738 OFFCURVE",
"611 729 CURVE SMOOTH",
"652 720 OFFCURVE",
"692 705 OFFCURVE",
"728 681 CURVE",
"724 655 LINE SMOOTH",
"723 650 OFFCURVE",
"722 644 OFFCURVE",
"721 637 CURVE SMOOTH",
"720 629 OFFCURVE",
"719 622 OFFCURVE",
"718 615 CURVE",
"715 600 OFFCURVE",
"713 585 OFFCURVE",
"712 575 CURVE",
"647 634 OFFCURVE",
"567 661 OFFCURVE",
"489 661 CURVE SMOOTH",
"455 661 OFFCURVE",
"419 658 OFFCURVE",
"384 648 CURVE SMOOTH",
"349 638 OFFCURVE",
"316 622 OFFCURVE",
"290 597 CURVE",
"258 563 OFFCURVE",
"238 522 OFFCURVE",
"226 479 CURVE SMOOTH",
"213 436 OFFCURVE",
"209 391 OFFCURVE",
"209 352 CURVE SMOOTH",
"209 326 OFFCURVE",
"210 298 OFFCURVE",
"217 274 CURVE SMOOTH",
"223 249 OFFCURVE",
"234 227 OFFCURVE",
"254 210 CURVE",
"254 211 LINE",
"278 193 OFFCURVE",
"309 182 OFFCURVE",
"340 176 CURVE SMOOTH",
"371 170 OFFCURVE",
"404 168 OFFCURVE",
"436 168 CURVE SMOOTH",
"436 168 LINE"
);
}
);
width = 810;
}
);
unicode = 0047;
},
{
glyphname = H;
lastChange = "2015-11-24 04:11:55 +0000";
layers = (
{
anchors = (
{
name = bottom;
position = "{382, 7}";
},
{
name = center;
position = "{397, 364}";
},
{
name = top;
position = "{397, 728}";
}
);
layerId = "013FA67F-D7C9-4F04-AAC6-32032829ED9A";
name = "Bold Italic";
paths = (
{
closed = 1;
nodes = (
"183 741 LINE",
"213 737 OFFCURVE",
"247 734 OFFCURVE",
"284 732 CURVE",
"280 619 OFFCURVE",
"275 509 OFFCURVE",
"265 395 CURVE",
"272 395 OFFCURVE",
"278 395 OFFCURVE",
"283 395 CURVE",
"289 394 OFFCURVE",
"295 394 OFFCURVE",
"302 394 CURVE SMOOTH",
"350 394 LINE SMOOTH",
"427 394 OFFCURVE",
"495 395 OFFCURVE",
"572 395 CURVE",
"582 505 OFFCURVE",
"596 623 OFFCURVE",
"614 733 CURVE",
"659 736 LINE SMOOTH",
"669 737 OFFCURVE",
"681 738 OFFCURVE",
"694 739 CURVE",
"700 740 OFFCURVE",
"706 741 OFFCURVE",
"712 741 CURVE SMOOTH",
"718 742 OFFCURVE",
"724 742 OFFCURVE",
"728 743 CURVE",
"691 529 OFFCURVE",
"671 322 OFFCURVE",
"671 120 CURVE SMOOTH",
"671 84 OFFCURVE",
"672 39 OFFCURVE",
"673 4 CURVE",
"657 6 OFFCURVE",
"635 8 OFFCURVE",
"613 10 CURVE",
"602 10 OFFCURVE",
"591 11 OFFCURVE",
"580 12 CURVE",
"570 13 OFFCURVE",
"560 14 OFFCURVE",
"551 14 CURVE",
"552 94 OFFCURVE",
"554 173 OFFCURVE",
"560 252 CURVE",
"534 253 OFFCURVE",
"509 253 OFFCURVE",
"483 253 CURVE SMOOTH",
"458 253 OFFCURVE",
"432 253 OFFCURVE",
"407 253 CURVE SMOOTH",
"379 253 OFFCURVE",
"354 253 OFFCURVE",
"329 253 CURVE SMOOTH",
"305 253 OFFCURVE",
"279 253 OFFCURVE",
"252 252 CURVE",
"243 176 OFFCURVE",
"233 91 OFFCURVE",
"221 14 CURVE",
"204 13 OFFCURVE",
"182 11 OFFCURVE",
"159 9 CURVE SMOOTH",
"148 8 OFFCURVE",
"137 7 OFFCURVE",
"126 7 CURVE",
"115 6 OFFCURVE",
"105 5 OFFCURVE",
"97 4 CURVE",
"147 252 OFFCURVE",
"169 492 OFFCURVE",
"172 732 CURVE"
);
}
);
width = 806;
}
);
unicode = 0048;
},
{
glyphname = I;
lastChange = "2015-11-24 04:11:55 +0000";
layers = (
{
anchors = (
{
name = bottom;
position = "{151, -33}";
},
{
name = ogonek;
position = "{268, 22}";
},
{
name = top;
position = "{233, 728}";
}
);
layerId = "013FA67F-D7C9-4F04-AAC6-32032829ED9A";
name = "Bold Italic";
paths = (
{
closed = 1;
nodes = (
"184 734 LINE",
"195 730 OFFCURVE",
"207 728 OFFCURVE",
"218 728 CURVE SMOOTH",
"233 728 OFFCURVE",
"252 733 OFFCURVE",
"275 744 CURVE",
"265 625 OFFCURVE",
"254 498 OFFCURVE",
"245 371 CURVE SMOOTH",
"235 244 OFFCURVE",
"227 117 OFFCURVE",
"220 -2 CURVE",
"197 12 OFFCURVE",
"177 19 OFFCURVE",
"159 19 CURVE SMOOTH",
"142 19 OFFCURVE",
"119 11 OFFCURVE",
"91 -3 CURVE",
"121 236 OFFCURVE",
"148 488 OFFCURVE",
"171 726 CURVE"
);
}
);
width = 355;
}
);
unicode = 0049;
},
{
glyphname = J;
lastChange = "2015-11-24 04:11:55 +0000";
layers = (
{
anchors = (
{
name = top;
position = "{200, 728}";
}
);
layerId = "013FA67F-D7C9-4F04-AAC6-32032829ED9A";
name = "Bold Italic";
paths = (
{
closed = 1;
nodes = (
"281 727 LINE",
"311 728 OFFCURVE",
"342 730 OFFCURVE",
"387 739 CURVE",
"349 511 OFFCURVE",
"318 272 OFFCURVE",
"293 43 CURVE SMOOTH",
"289 13 OFFCURVE",
"286 -20 OFFCURVE",
"277 -51 CURVE SMOOTH",
"268 -82 OFFCURVE",
"252 -112 OFFCURVE",
"228 -136 CURVE",
"206 -154 OFFCURVE",
"182 -166 OFFCURVE",
"158 -174 CURVE SMOOTH",
"133 -182 OFFCURVE",
"107 -187 OFFCURVE",
"82 -191 CURVE SMOOTH",
"57 -195 LINE",
"49 -195 OFFCURVE",
"36 -196 OFFCURVE",
"24 -198 CURVE",
"18 -198 OFFCURVE",
"12 -199 OFFCURVE",
"7 -200 CURVE SMOOTH",
"1 -200 OFFCURVE",
"-5 -201 OFFCURVE",
"-9 -201 CURVE",
"-4 -163 OFFCURVE",
"2 -114 OFFCURVE",
"6 -76 CURVE SMOOTH",
"6 -70 OFFCURVE",
"7 -62 OFFCURVE",
"8 -53 CURVE",
"9 -43 OFFCURVE",
"10 -35 OFFCURVE",
"10 -29 CURVE",
"40 -32 LINE",
"60 -33 LINE",
"86 -29 OFFCURVE",
"115 -22 OFFCURVE",
"139 -8 CURVE SMOOTH",
"163 7 OFFCURVE",
"181 27 OFFCURVE",
"186 57 CURVE",
"186 56 LINE",
"213 278 OFFCURVE",
"239 496 OFFCURVE",
"271 718 CURVE"
);
}
);
width = 422;
}
);
unicode = 004A;
},
{
glyphname = K;
lastChange = "2015-11-24 04:11:55 +0000";
layers = (
{
anchors = (
{
name = bottom;
position = "{369, 0}";
},
{
name = top;
position = "{369, 728}";
}
);
layerId = "013FA67F-D7C9-4F04-AAC6-32032829ED9A";
name = "Bold Italic";
paths = (
{
closed = 1;
nodes = (
"183 740 LINE",
"212 736 OFFCURVE",
"250 734 OFFCURVE",
"280 732 CURVE",
"277 681 OFFCURVE",
"274 634 OFFCURVE",
"270 587 CURVE SMOOTH",
"266 539 OFFCURVE",
"262 493 OFFCURVE",
"257 441 CURVE",
"335 512 OFFCURVE",
"415 582 OFFCURVE",
"496 650 CURVE SMOOTH",
"511 663 OFFCURVE",
"526 677 OFFCURVE",
"543 691 CURVE SMOOTH",
"559 705 OFFCURVE",
"575 719 OFFCURVE",
"590 732 CURVE",
"620 733 OFFCURVE",
"651 735 OFFCURVE",
"681 737 CURVE SMOOTH",
"734 741 LINE",
"583 609 LINE SMOOTH",
"543 574 OFFCURVE",
"503 539 OFFCURVE",
"462 503 CURVE SMOOTH",
"422 468 OFFCURVE",
"381 432 OFFCURVE",
"341 397 CURVE",
"345 391 OFFCURVE",
"350 385 OFFCURVE",
"355 380 CURVE SMOOTH",
"360 374 OFFCURVE",
"365 368 OFFCURVE",
"370 363 CURVE",
"419 307 OFFCURVE",
"476 244 OFFCURVE",
"533 181 CURVE SMOOTH",
"589 118 OFFCURVE",
"646 56 OFFCURVE",
"696 2 CURVE",
"606 12 OFFCURVE",
"525 17 OFFCURVE",
"449 18 CURVE",
"411 75 OFFCURVE",
"378 127 OFFCURVE",
"346 179 CURVE SMOOTH",
"314 231 OFFCURVE",
"283 284 OFFCURVE",
"248 343 CURVE",
"244 234 OFFCURVE",
"236 121 OFFCURVE",
"226 15 CURVE",
"217 14 OFFCURVE",
"206 13 OFFCURVE",
"194 13 CURVE",
"182 12 OFFCURVE",
"170 11 OFFCURVE",
"157 10 CURVE",
"132 8 OFFCURVE",
"107 6 OFFCURVE",
"87 4 CURVE",
"140 252 OFFCURVE",
"167 492 OFFCURVE",
"172 730 CURVE"
);
}
);
width = 829;
}
);
unicode = 004B;
},
{
glyphname = L;
lastChange = "2015-11-24 04:11:55 +0000";
layers = (
{
anchors = (
{
name = bottom;
position = "{306, 0}";
},
{
name = dot;
position = "{323, 436}";
},
{
name = top;
position = "{278, 728}";
}
);
layerId = "013FA67F-D7C9-4F04-AAC6-32032829ED9A";
name = "Bold Italic";
paths = (
{
closed = 1;
nodes = (
"183 741 LINE",
"213 736 OFFCURVE",
"243 733 OFFCURVE",
"279 731 CURVE",
"269 544 OFFCURVE",
"255 360 OFFCURVE",
"232 172 CURVE",
"272 174 OFFCURVE",
"312 175 OFFCURVE",
"352 175 CURVE SMOOTH",
"421 175 OFFCURVE",
"492 172 OFFCURVE",
"570 165 CURVE",
"568 142 OFFCURVE",
"565 114 OFFCURVE",
"563 86 CURVE SMOOTH",
"560 57 OFFCURVE",
"558 29 OFFCURVE",
"557 6 CURVE",
"481 14 OFFCURVE",
"408 19 OFFCURVE",
"335 19 CURVE SMOOTH",
"260 19 OFFCURVE",
"181 14 OFFCURVE",
"97 4 CURVE",
"142 250 OFFCURVE",
"166 494 OFFCURVE",
"172 732 CURVE"
);
}
);
width = 689;
}
);
unicode = 004C;
},
{
glyphname = M;
lastChange = "2015-11-24 04:11:55 +0000";
layers = (
{
anchors = (
{
name = top;
position = "{521, 565}";
}
);
layerId = "013FA67F-D7C9-4F04-AAC6-32032829ED9A";
name = "Bold Italic";
paths = (
{
closed = 1;
nodes = (
"182 741 LINE",
"228 736 OFFCURVE",
"279 733 OFFCURVE",
"325 731 CURVE",
"352 661 OFFCURVE",
"377 595 OFFCURVE",
"400 528 CURVE SMOOTH",
"423 461 OFFCURVE",
"445 393 OFFCURVE",
"467 322 CURVE",
"496 376 LINE SMOOTH",
"557 494 OFFCURVE",
"622 618 OFFCURVE",
"692 732 CURVE",
"713 732 OFFCURVE",
"739 734 OFFCURVE",
"765 736 CURVE SMOOTH",
"778 737 OFFCURVE",
"791 738 OFFCURVE",
"804 739 CURVE",
"816 740 OFFCURVE",
"828 741 OFFCURVE",
"839 742 CURVE",
"803 548 OFFCURVE",
"783 361 OFFCURVE",
"783 177 CURVE SMOOTH",
"783 123 OFFCURVE",
"785 58 OFFCURVE",
"789 4 CURVE",
"769 6 OFFCURVE",
"746 8 OFFCURVE",
"722 10 CURVE",
"710 10 OFFCURVE",
"698 11 OFFCURVE",
"687 12 CURVE SMOOTH",
"675 12 OFFCURVE",
"664 13 OFFCURVE",
"655 14 CURVE",
"658 216 OFFCURVE",
"680 410 OFFCURVE",
"713 603 CURVE",
"651 471 OFFCURVE",
"598 340 OFFCURVE",
"543 206 CURVE",
"543 206 LINE",
"539 195 OFFCURVE",
"533 182 OFFCURVE",
"528 168 CURVE SMOOTH",
"522 154 OFFCURVE",
"516 141 OFFCURVE",
"512 130 CURVE",
"478 130 LINE SMOOTH",
"474 130 OFFCURVE",
"470 130 OFFCURVE",
"465 130 CURVE",
"461 130 OFFCURVE",
"456 130 OFFCURVE",
"452 130 CURVE SMOOTH",
"447 130 OFFCURVE",
"443 130 OFFCURVE",
"438 130 CURVE",
"434 130 OFFCURVE",
"429 130 OFFCURVE",
"424 130 CURVE SMOOTH",
"391 130 LINE",
"360 257 LINE SMOOTH",
"333 371 OFFCURVE",
"304 492 OFFCURVE",
"270 606 CURVE",
"269 410 OFFCURVE",
"255 213 OFFCURVE",
"228 13 CURVE",
"209 13 OFFCURVE",
"184 11 OFFCURVE",
"160 10 CURVE SMOOTH",
"135 8 OFFCURVE",
"111 6 OFFCURVE",
"91 4 CURVE",
"147 251 OFFCURVE",
"172 494 OFFCURVE",
"172 731 CURVE"
);
}
);
width = 922;
}
);
unicode = 004D;
},
{
glyphname = N;
lastChange = "2015-11-24 04:11:55 +0000";
layers = (
{
anchors = (
{
name = bottom;
position = "{388, 0}";
},
{
name = top;
position = "{388, 728}";
}
);
layerId = "013FA67F-D7C9-4F04-AAC6-32032829ED9A";
name = "Bold Italic";
paths = (
{
closed = 1;
nodes = (
"179 725 LINE",
"211 721 OFFCURVE",
"241 719 OFFCURVE",
"273 717 CURVE",
"272 717 LINE",
"276 717 OFFCURVE",
"280 717 OFFCURVE",
"285 717 CURVE SMOOTH",
"290 716 OFFCURVE",
"294 716 OFFCURVE",
"297 716 CURVE",
"351 610 OFFCURVE",
"401 497 OFFCURVE",
"449 388 CURVE SMOOTH",
"458 368 OFFCURVE",
"467 349 OFFCURVE",
"474 332 CURVE SMOOTH",
"490 297 OFFCURVE",
"504 264 OFFCURVE",
"520 230 CURVE SMOOTH",
"528 213 OFFCURVE",
"537 194 OFFCURVE",
"547 174 CURVE",
"561 359 OFFCURVE",
"584 546 OFFCURVE",
"620 734 CURVE",
"626 735 OFFCURVE",
"634 735 OFFCURVE",
"643 736 CURVE",
"652 737 OFFCURVE",
"661 738 OFFCURVE",
"671 739 CURVE",
"680 739 OFFCURVE",
"689 740 OFFCURVE",
"698 741 CURVE SMOOTH",
"707 742 OFFCURVE",
"715 743 OFFCURVE",
"721 744 CURVE",
"679 515 OFFCURVE",
"656 291 OFFCURVE",
"656 72 CURVE SMOOTH",
"656 52 OFFCURVE",
"656 24 OFFCURVE",
"657 4 CURVE",
"635 7 OFFCURVE",
"608 9 OFFCURVE",
"582 11 CURVE SMOOTH",
"555 13 OFFCURVE",
"529 15 OFFCURVE",
"507 16 CURVE",
"452 126 OFFCURVE",
"402 241 OFFCURVE",
"353 354 CURVE SMOOTH",
"336 395 OFFCURVE",
"319 436 OFFCURVE",
"302 476 CURVE SMOOTH",
"286 515 OFFCURVE",
"268 556 OFFCURVE",
"250 596 CURVE",
"248 404 OFFCURVE",
"238 214 OFFCURVE",
"220 15 CURVE",
"210 14 OFFCURVE",
"199 13 OFFCURVE",
"188 13 CURVE",
"176 12 OFFCURVE",
"164 11 OFFCURVE",
"152 10 CURVE",
"128 8 OFFCURVE",
"103 6 OFFCURVE",
"84 4 CURVE",
"136 247 OFFCURVE",
"162 482 OFFCURVE",
"168 716 CURVE"
);
}
);
width = 790;
}
);
unicode = 004E;
},
{
glyphname = O;
lastChange = "2015-11-24 04:11:55 +0000";
layers = (
{
anchors = (
{
name = bottom;
position = "{364, -22}";
},
{
name = horncomb;
position = "{705, 505}";
},
{
name = top;
position = "{451, 728}";
}
);
layerId = "013FA67F-D7C9-4F04-AAC6-32032829ED9A";
name = "Bold Italic";
paths = (
{
closed = 1;
nodes = (
"418 653 OFFCURVE",
"387 647 OFFCURVE",
"358 635 CURVE SMOOTH",
"329 623 OFFCURVE",
"302 605 OFFCURVE",
"282 579 CURVE SMOOTH",
"254 546 OFFCURVE",
"236 505 OFFCURVE",
"224 463 CURVE SMOOTH",
"213 421 OFFCURVE",
"208 377 OFFCURVE",
"208 338 CURVE SMOOTH",
"208 316 OFFCURVE",
"210 295 OFFCURVE",
"217 276 CURVE SMOOTH",
"223 257 OFFCURVE",
"233 240 OFFCURVE",
"251 230 CURVE SMOOTH",
"273 216 OFFCURVE",
"299 207 OFFCURVE",
"325 202 CURVE SMOOTH",
"351 197 OFFCURVE",
"379 195 OFFCURVE",
"406 195 CURVE SMOOTH",
"460 195 OFFCURVE",
"519 204 OFFCURVE",
"567 230 CURVE",
"599 250 OFFCURVE",
"616 284 OFFCURVE",
"626 320 CURVE SMOOTH",
"635 356 OFFCURVE",
"637 394 OFFCURVE",
"637 422 CURVE SMOOTH",
"637 479 OFFCURVE",
"628 535 OFFCURVE",
"600 581 CURVE",
"600 581 LINE",
"566 629 OFFCURVE",
"509 653 OFFCURVE",
"449 653 CURVE SMOOTH"
);
},
{
closed = 1;
nodes = (
"499 740 OFFCURVE",
"544 734 OFFCURVE",
"584 718 CURVE SMOOTH",
"625 703 OFFCURVE",
"661 679 OFFCURVE",
"688 644 CURVE SMOOTH",
"710 614 OFFCURVE",
"724 581 OFFCURVE",
"733 546 CURVE SMOOTH",
"742 510 OFFCURVE",
"745 472 OFFCURVE",
"745 436 CURVE SMOOTH",
"745 380 OFFCURVE",
"739 320 OFFCURVE",
"723 262 CURVE SMOOTH",
"707 203 OFFCURVE",
"681 147 OFFCURVE",
"640 101 CURVE",
"606 65 OFFCURVE",
"565 40 OFFCURVE",
"521 26 CURVE SMOOTH",
"477 11 OFFCURVE",
"430 5 OFFCURVE",
"385 5 CURVE SMOOTH",
"341 5 OFFCURVE",
"298 12 OFFCURVE",
"259 28 CURVE SMOOTH",
"219 43 OFFCURVE",
"184 67 OFFCURVE",
"158 101 CURVE SMOOTH",
"136 130 OFFCURVE",
"122 163 OFFCURVE",
"113 199 CURVE SMOOTH",
"104 235 OFFCURVE",
"100 272 OFFCURVE",
"100 309 CURVE SMOOTH",
"100 363 OFFCURVE",
"104 424 OFFCURVE",
"120 483 CURVE SMOOTH",
"135 542 OFFCURVE",
"161 599 OFFCURVE",
"205 644 CURVE",
"204 644 LINE",
"237 680 OFFCURVE",
"277 704 OFFCURVE",
"321 719 CURVE SMOOTH",
"364 734 OFFCURVE",
"410 740 OFFCURVE",
"455 740 CURVE SMOOTH"
);
}
);
width = 803;
}
);
unicode = 004F;
},
{
glyphname = P;
lastChange = "2015-11-24 04:11:55 +0000";
layers = (
{
layerId = "013FA67F-D7C9-4F04-AAC6-32032829ED9A";
name = "Bold Italic";
paths = (
{
closed = 1;
nodes = (
"282 688 LINE",
"281 679 LINE",
"280 679 OFFCURVE",
"279 679 OFFCURVE",
"277 679 CURVE SMOOTH",
"276 679 OFFCURVE",
"274 679 OFFCURVE",
"272 679 CURVE"
);
},
{
closed = 1;
nodes = (
"359 677 OFFCURVE",
"321 677 OFFCURVE",
"281 679 CURVE",
"274 591 OFFCURVE",
"266 513 OFFCURVE",
"256 425 CURVE",
"300 424 OFFCURVE",
"344 424 OFFCURVE",
"388 424 CURVE SMOOTH",
"422 424 OFFCURVE",
"458 438 OFFCURVE",
"484 462 CURVE SMOOTH",
"510 486 OFFCURVE",
"528 519 OFFCURVE",
"528 556 CURVE",
"529 563 OFFCURVE",
"530 570 OFFCURVE",
"530 577 CURVE SMOOTH",
"530 619 OFFCURVE",
"511 645 OFFCURVE",
"485 659 CURVE SMOOTH",
"459 673 OFFCURVE",
"426 677 OFFCURVE",
"399 677 CURVE SMOOTH"
);
},
{
closed = 1;
nodes = (
"182 738 LINE",
"252 730 OFFCURVE",
"322 728 OFFCURVE",
"393 728 CURVE SMOOTH",
"421 728 OFFCURVE",
"449 726 OFFCURVE",
"476 722 CURVE SMOOTH",
"504 717 OFFCURVE",
"530 709 OFFCURVE",
"554 695 CURVE",
"578 679 OFFCURVE",
"594 658 OFFCURVE",
"604 634 CURVE SMOOTH",
"613 611 OFFCURVE",
"617 585 OFFCURVE",
"617 559 CURVE SMOOTH",
"617 523 OFFCURVE",
"612 485 OFFCURVE",
"599 448 CURVE SMOOTH",
"587 411 OFFCURVE",
"566 375 OFFCURVE",
"538 349 CURVE SMOOTH",
"512 325 OFFCURVE",
"483 311 OFFCURVE",
"452 302 CURVE SMOOTH",
"420 293 OFFCURVE",
"388 290 OFFCURVE",
"356 290 CURVE SMOOTH",
"337 290 OFFCURVE",
"319 290 OFFCURVE",
"302 290 CURVE SMOOTH",
"286 290 OFFCURVE",
"267 290 OFFCURVE",
"248 290 CURVE",
"236 200 OFFCURVE",
"222 104 OFFCURVE",
"207 15 CURVE",
"189 14 OFFCURVE",
"166 12 OFFCURVE",
"142 10 CURVE SMOOTH",
"119 8 OFFCURVE",
"95 6 OFFCURVE",
"77 4 CURVE",
"131 250 OFFCURVE",
"159 492 OFFCURVE",
"171 729 CURVE"
);
}
);
width = 640;
}
);
unicode = 0050;
},
{
glyphname = Q;
lastChange = "2015-11-24 04:11:55 +0000";
layers = (
{
layerId = "013FA67F-D7C9-4F04-AAC6-32032829ED9A";
name = "Bold Italic";
paths = (
{
closed = 1;
nodes = (
"385 650 OFFCURVE",
"324 628 OFFCURVE",
"282 577 CURVE SMOOTH",
"254 545 OFFCURVE",
"237 505 OFFCURVE",
"225 464 CURVE SMOOTH",
"213 423 OFFCURVE",
"209 381 OFFCURVE",
"209 343 CURVE SMOOTH",
"209 321 OFFCURVE",
"211 298 OFFCURVE",
"217 278 CURVE SMOOTH",
"223 258 OFFCURVE",
"235 241 OFFCURVE",
"253 230 CURVE SMOOTH",
"294 204 OFFCURVE",
"336 195 OFFCURVE",
"388 187 CURVE",
"406 213 LINE",
"410 219 OFFCURVE",
"414 225 OFFCURVE",
"420 233 CURVE",
"425 240 OFFCURVE",
"429 247 OFFCURVE",
"433 252 CURVE",
"470 234 OFFCURVE",
"505 223 OFFCURVE",
"541 218 CURVE",
"581 238 OFFCURVE",
"605 269 OFFCURVE",
"620 305 CURVE SMOOTH",
"634 341 OFFCURVE",
"639 382 OFFCURVE",
"639 422 CURVE SMOOTH",
"639 478 OFFCURVE",
"630 532 OFFCURVE",
"601 577 CURVE SMOOTH",
"585 602 OFFCURVE",
"562 620 OFFCURVE",
"536 632 CURVE SMOOTH",
"509 644 OFFCURVE",
"479 650 OFFCURVE",
"449 650 CURVE SMOOTH"
);
},
{
closed = 1;
nodes = (
"667 131 OFFCURVE",
"642 93 OFFCURVE",
"610 59 CURVE",
"644 15 OFFCURVE",
"680 -28 OFFCURVE",
"716 -71 CURVE SMOOTH",
"719 -74 OFFCURVE",
"722 -78 OFFCURVE",
"727 -83 CURVE",
"731 -88 OFFCURVE",
"735 -93 OFFCURVE",
"740 -98 CURVE SMOOTH",
"744 -104 OFFCURVE",
"749 -109 OFFCURVE",
"753 -114 CURVE",
"757 -119 OFFCURVE",
"761 -123 OFFCURVE",
"763 -126 CURVE",
"677 -117 OFFCURVE",
"596 -112 OFFCURVE",
"518 -110 CURVE",
"496 -83 LINE",
"497 -83 LINE",
"484 -68 OFFCURVE",
"472 -53 OFFCURVE",
"461 -40 CURVE SMOOTH",
"449 -26 OFFCURVE",
"437 -11 OFFCURVE",
"425 5 CURVE",
"415 4 OFFCURVE",
"405 3 OFFCURVE",
"393 3 CURVE SMOOTH",
"349 3 OFFCURVE",
"304 9 OFFCURVE",
"264 25 CURVE SMOOTH",
"224 40 OFFCURVE",
"189 64 OFFCURVE",
"162 100 CURVE SMOOTH",
"139 132 OFFCURVE",
"124 168 OFFCURVE",
"115 206 CURVE SMOOTH",
"105 244 OFFCURVE",
"101 285 OFFCURVE",
"101 325 CURVE SMOOTH",
"101 377 OFFCURVE",
"106 435 OFFCURVE",
"122 491 CURVE SMOOTH",
"137 546 OFFCURVE",
"163 599 OFFCURVE",
"204 643 CURVE SMOOTH",
"236 676 OFFCURVE",
"275 700 OFFCURVE",
"317 715 CURVE SMOOTH",
"359 731 OFFCURVE",
"403 737 OFFCURVE",
"446 737 CURVE SMOOTH",
"490 737 OFFCURVE",
"537 730 OFFCURVE",
"580 715 CURVE SMOOTH",
"622 699 OFFCURVE",
"661 675 OFFCURVE",
"689 641 CURVE SMOOTH",
"711 613 OFFCURVE",
"725 580 OFFCURVE",
"735 545 CURVE SMOOTH",
"744 510 OFFCURVE",
"748 473 OFFCURVE",
"748 436 CURVE SMOOTH",
"748 396 OFFCURVE",
"745 350 OFFCURVE",
"736 305 CURVE SMOOTH",
"728 259 OFFCURVE",
"713 213 OFFCURVE",
"691 173 CURVE SMOOTH"
);
}
);
width = 924;
}
);
unicode = 0051;
},
{
glyphname = R;
lastChange = "2015-11-24 04:11:55 +0000";
layers = (
{
anchors = (
{
name = bottom;
position = "{366, 0}";
},
{
name = top;
position = "{366, 728}";
}
);
layerId = "013FA67F-D7C9-4F04-AAC6-32032829ED9A";
name = "Bold Italic";
paths = (
{
closed = 1;
nodes = (
"614 516 OFFCURVE",
"606 474 OFFCURVE",
"588 436 CURVE SMOOTH",
"569 399 OFFCURVE",
"541 366 OFFCURVE",
"500 350 CURVE",
"523 338 OFFCURVE",
"540 319 OFFCURVE",
"554 297 CURVE SMOOTH",
"567 276 OFFCURVE",
"578 252 OFFCURVE",
"589 229 CURVE SMOOTH",
"595 214 LINE",
"595 215 LINE",
"609 181 OFFCURVE",
"625 145 OFFCURVE",
"642 108 CURVE SMOOTH",
"659 72 OFFCURVE",
"676 35 OFFCURVE",
"692 3 CURVE",
"670 6 OFFCURVE",
"644 8 OFFCURVE",
"617 11 CURVE SMOOTH",
"590 13 OFFCURVE",
"562 14 OFFCURVE",
"541 16 CURVE",
"519 76 OFFCURVE",
"497 140 OFFCURVE",
"477 202 CURVE",
"478 201 LINE",
"463 235 OFFCURVE",
"447 269 OFFCURVE",
"421 293 CURVE",
"421 292 LINE",
"398 309 OFFCURVE",
"369 314 OFFCURVE",
"339 314 CURVE SMOOTH",
"327 314 OFFCURVE",
"316 314 OFFCURVE",
"307 314 CURVE SMOOTH",
"298 314 OFFCURVE",
"287 314 OFFCURVE",
"275 313 CURVE",
"266 215 OFFCURVE",
"253 112 OFFCURVE",
"239 14 CURVE",
"221 14 OFFCURVE",
"198 12 OFFCURVE",
"174 10 CURVE SMOOTH",
"151 8 OFFCURVE",
"127 6 OFFCURVE",
"109 4 CURVE",
"153 242 OFFCURVE",
"174 473 OFFCURVE",
"174 701 CURVE SMOOTH",
"174 744 LINE",
"255 733 OFFCURVE",
"328 730 OFFCURVE",
"400 728 CURVE SMOOTH",
"451 727 OFFCURVE",
"502 720 OFFCURVE",
"546 695 CURVE",
"571 677 OFFCURVE",
"588 655 OFFCURVE",
"599 631 CURVE SMOOTH",
"609 607 OFFCURVE",
"614 580 OFFCURVE",
"614 554 CURVE SMOOTH"
);
},
{
closed = 1;
nodes = (
"290 681 LINE",
"290 680 OFFCURVE",
"290 678 OFFCURVE",
"290 676 CURVE",
"289 675 OFFCURVE",
"289 673 OFFCURVE",
"289 671 CURVE",
"279 672 LINE"
);
},
{
closed = 1;
nodes = (
"387 668 OFFCURVE",
"368 668 OFFCURVE",
"349 669 CURVE SMOOTH",
"329 669 OFFCURVE",
"309 670 OFFCURVE",
"289 671 CURVE",
"288 628 OFFCURVE",
"286 587 OFFCURVE",
"284 546 CURVE SMOOTH",
"282 505 OFFCURVE",
"279 464 OFFCURVE",
"276 421 CURVE",
"294 420 OFFCURVE",
"313 420 OFFCURVE",
"332 420 CURVE SMOOTH",
"350 420 OFFCURVE",
"369 420 OFFCURVE",
"388 420 CURVE SMOOTH",
"416 420 OFFCURVE",
"452 431 OFFCURVE",
"481 449 CURVE SMOOTH",
"509 467 OFFCURVE",
"532 493 OFFCURVE",
"535 523 CURVE",
"535 524 OFFCURVE",
"535 526 OFFCURVE",
"536 527 CURVE",
"536 528 OFFCURVE",
"536 530 OFFCURVE",
"536 531 CURVE",
"536 539 OFFCURVE",
"537 546 OFFCURVE",
"537 553 CURVE SMOOTH",
"537 587 OFFCURVE",
"530 619 OFFCURVE",
"504 637 CURVE SMOOTH",
"476 657 OFFCURVE",
"443 667 OFFCURVE",
"407 668 CURVE SMOOTH"
);
}
);
width = 825;
}
);
unicode = 0052;
},
{
glyphname = S;
lastChange = "2015-11-24 04:11:55 +0000";
layers = (
{
anchors = (
{
name = bottom;
position = "{347, 0}";
},
{
name = top;
position = "{416, 747}";
}
);
layerId = "013FA67F-D7C9-4F04-AAC6-32032829ED9A";
name = "Bold Italic";
paths = (
{
closed = 1;
nodes = (
"608 678 LINE",
"608 673 OFFCURVE",
"607 668 OFFCURVE",
"606 662 CURVE",
"605 655 OFFCURVE",
"604 649 OFFCURVE",
"603 643 CURVE SMOOTH",
"601 630 OFFCURVE",
"600 617 OFFCURVE",
"598 607 CURVE",
"534 635 OFFCURVE",
"468 653 OFFCURVE",
"404 653 CURVE SMOOTH",
"365 653 OFFCURVE",
"325 648 OFFCURVE",
"287 628 CURVE",
"288 628 LINE",
"252 604 OFFCURVE",
"238 570 OFFCURVE",
"238 536 CURVE SMOOTH",
"238 515 OFFCURVE",
"245 492 OFFCURVE",
"258 477 CURVE",
"272 467 OFFCURVE",
"288 459 OFFCURVE",
"305 454 CURVE SMOOTH",
"323 448 OFFCURVE",
"341 444 OFFCURVE",
"357 440 CURVE",
"387 434 LINE SMOOTH",
"436 424 OFFCURVE",
"485 413 OFFCURVE",
"529 383 CURVE SMOOTH",
"555 365 OFFCURVE",
"573 342 OFFCURVE",
"585 315 CURVE SMOOTH",
"597 289 OFFCURVE",
"602 260 OFFCURVE",
"602 230 CURVE SMOOTH",
"602 200 OFFCURVE",
"599 166 OFFCURVE",
"588 135 CURVE SMOOTH",
"577 105 OFFCURVE",
"558 76 OFFCURVE",
"529 56 CURVE",
"495 33 OFFCURVE",
"459 21 OFFCURVE",
"423 14 CURVE SMOOTH",
"387 7 OFFCURVE",
"350 6 OFFCURVE",
"315 5 CURVE SMOOTH",
"238 5 OFFCURVE",
"161 16 OFFCURVE",
"85 39 CURVE",
"89 63 OFFCURVE",
"93 92 OFFCURVE",
"98 122 CURVE SMOOTH",
"102 151 OFFCURVE",
"106 180 OFFCURVE",
"109 204 CURVE",
"179 164 OFFCURVE",
"252 144 OFFCURVE",
"326 144 CURVE SMOOTH",
"368 144 OFFCURVE",
"413 151 OFFCURVE",
"450 174 CURVE SMOOTH",
"460 181 OFFCURVE",
"472 190 OFFCURVE",
"481 201 CURVE SMOOTH",
"489 211 OFFCURVE",
"496 222 OFFCURVE",
"496 235 CURVE SMOOTH",
"496 269 OFFCURVE",
"470 291 OFFCURVE",
"437 307 CURVE SMOOTH",
"404 323 OFFCURVE",
"365 331 OFFCURVE",
"337 336 CURVE SMOOTH",
"320 340 LINE SMOOTH",
"294 345 OFFCURVE",
"267 353 OFFCURVE",
"242 363 CURVE SMOOTH",
"217 374 OFFCURVE",
"193 388 OFFCURVE",
"174 408 CURVE SMOOTH",
"144 440 OFFCURVE",
"135 485 OFFCURVE",
"135 529 CURVE SMOOTH",
"135 559 OFFCURVE",
"139 590 OFFCURVE",
"151 618 CURVE SMOOTH",
"162 647 OFFCURVE",
"181 672 OFFCURVE",
"208 692 CURVE SMOOTH",
"237 712 OFFCURVE",
"269 723 OFFCURVE",
"301 731 CURVE SMOOTH",
"333 738 OFFCURVE",
"367 740 OFFCURVE",
"399 740 CURVE SMOOTH",
"471 740 OFFCURVE",
"540 732 OFFCURVE",
"608 714 CURVE",
"605 708 LINE",
"613 707 LINE"
);
}
);
width = 695;
}
);
unicode = 0053;
},
{
glyphname = T;
lastChange = "2015-11-24 04:11:55 +0000";
layers = (
{
anchors = (
{
name = bottom;
position = "{433, 19}";
},
{
name = center;
position = "{494, 364}";
},
{
name = top;
position = "{494, 728}";
}
);
layerId = "013FA67F-D7C9-4F04-AAC6-32032829ED9A";
name = "Bold Italic";
paths = (
{
closed = 1;
nodes = (
"183 742 LINE",
"280 732 OFFCURVE",
"378 727 OFFCURVE",
"476 727 CURVE SMOOTH",
"582 727 OFFCURVE",
"688 733 OFFCURVE",
"799 743 CURVE",
"794 710 LINE SMOOTH",
"792 701 OFFCURVE",
"790 691 OFFCURVE",
"788 680 CURVE SMOOTH",
"785 668 OFFCURVE",
"783 658 OFFCURVE",
"782 649 CURVE",
"731 647 OFFCURVE",
"672 645 OFFCURVE",
"622 645 CURVE SMOOTH",
"588 645 OFFCURVE",
"564 645 OFFCURVE",
"531 647 CURVE",
"517 439 OFFCURVE",
"502 225 OFFCURVE",
"498 18 CURVE",
"480 18 OFFCURVE",
"452 19 OFFCURVE",
"433 19 CURVE SMOOTH",
"397 19 LINE SMOOTH",
"394 19 OFFCURVE",
"390 19 OFFCURVE",
"386 19 CURVE SMOOTH",
"381 19 OFFCURVE",
"377 19 OFFCURVE",
"373 19 CURVE",
"368 18 OFFCURVE",
"364 18 OFFCURVE",
"359 18 CURVE SMOOTH",
"355 18 OFFCURVE",
"351 18 OFFCURVE",
"348 18 CURVE",
"376 229 OFFCURVE",
"402 436 OFFCURVE",
"424 646 CURVE",
"416 646 OFFCURVE",
"408 646 OFFCURVE",
"399 646 CURVE SMOOTH",
"381 646 OFFCURVE",
"363 645 OFFCURVE",
"346 645 CURVE SMOOTH",
"337 645 OFFCURVE",
"329 645 OFFCURVE",
"321 645 CURVE SMOOTH",
"275 645 OFFCURVE",
"219 646 OFFCURVE",
"173 650 CURVE",
"173 674 OFFCURVE",
"173 708 OFFCURVE",
"172 733 CURVE"
);
}
);
width = 778;
}
);
unicode = 0054;
},
{
glyphname = U;
lastChange = "2015-11-24 04:11:55 +0000";
layers = (
{
anchors = (
{
name = bottom;
position = "{413, -29}";
},
{
name = horncomb;
position = "{682, 621}";
},
{
name = ogonek;
position = "{526, 28}";
},
{
name = top;
position = "{438, 728}";
}
);
layerId = "013FA67F-D7C9-4F04-AAC6-32032829ED9A";
name = "Bold Italic";
paths = (
{
closed = 1;
nodes = (
"183 742 LINE",
"213 738 OFFCURVE",
"249 734 OFFCURVE",
"279 732 CURVE",
"277 611 OFFCURVE",
"269 483 OFFCURVE",
"259 362 CURVE SMOOTH",
"257 344 OFFCURVE",
"256 326 OFFCURVE",
"256 310 CURVE SMOOTH",
"256 270 OFFCURVE",
"261 233 OFFCURVE",
"282 202 CURVE",
"281 202 LINE",
"294 184 OFFCURVE",
"313 173 OFFCURVE",
"335 166 CURVE SMOOTH",
"357 160 OFFCURVE",
"381 158 OFFCURVE",
"404 158 CURVE SMOOTH",
"426 158 OFFCURVE",
"451 160 OFFCURVE",
"474 167 CURVE SMOOTH",
"497 174 OFFCURVE",
"518 185 OFFCURVE",
"534 203 CURVE",
"551 225 OFFCURVE",
"563 252 OFFCURVE",
"571 280 CURVE SMOOTH",
"579 308 OFFCURVE",
"583 337 OFFCURVE",
"585 364 CURVE SMOOTH",
"588 394 OFFCURVE",
"591 424 OFFCURVE",
"595 455 CURVE SMOOTH",
"601 517 OFFCURVE",
"609 581 OFFCURVE",
"617 643 CURVE SMOOTH",
"621 674 OFFCURVE",
"626 704 OFFCURVE",
"631 733 CURVE",
"652 734 OFFCURVE",
"681 737 OFFCURVE",
"703 739 CURVE SMOOTH",
"741 743 LINE",
"709 583 OFFCURVE",
"693 432 OFFCURVE",
"682 282 CURVE SMOOTH",
"679 247 OFFCURVE",
"674 209 OFFCURVE",
"663 174 CURVE SMOOTH",
"652 138 OFFCURVE",
"634 104 OFFCURVE",
"608 75 CURVE",
"576 45 OFFCURVE",
"541 28 OFFCURVE",
"504 18 CURVE SMOOTH",
"467 8 OFFCURVE",
"429 5 OFFCURVE",
"393 5 CURVE SMOOTH",
"357 5 OFFCURVE",
"320 7 OFFCURVE",
"285 16 CURVE SMOOTH",
"251 25 OFFCURVE",
"219 41 OFFCURVE",
"194 67 CURVE SMOOTH",
"175 89 OFFCURVE",
"163 114 OFFCURVE",
"156 140 CURVE SMOOTH",
"148 166 OFFCURVE",
"146 193 OFFCURVE",
"146 221 CURVE SMOOTH",
"146 243 OFFCURVE",
"147 264 OFFCURVE",
"149 284 CURVE SMOOTH",
"163 424 OFFCURVE",
"172 560 OFFCURVE",
"172 698 CURVE SMOOTH",
"172 732 LINE"
);
}
);
width = 762;
}
);
unicode = 0055;
},
{
glyphname = V;
lastChange = "2015-11-24 04:11:55 +0000";
layers = (
{
layerId = "013FA67F-D7C9-4F04-AAC6-32032829ED9A";
name = "Bold Italic";
paths = (
{
closed = 1;
nodes = (
"368 26 LINE",
"361 55 OFFCURVE",
"354 85 OFFCURVE",
"347 115 CURVE SMOOTH",
"333 174 OFFCURVE",
"315 248 OFFCURVE",
"294 336 CURVE SMOOTH",
"272 425 OFFCURVE",
"249 515 OFFCURVE",
"221 606 CURVE SMOOTH",
"207 651 OFFCURVE",
"191 697 OFFCURVE",
"175 744 CURVE",
"190 742 OFFCURVE",
"210 740 OFFCURVE",
"231 738 CURVE SMOOTH",
"251 736 OFFCURVE",
"271 734 OFFCURVE",
"287 734 CURVE",
"343 598 OFFCURVE",
"391 453 OFFCURVE",
"437 311 CURVE SMOOTH",
"470 214 LINE",
"479 232 OFFCURVE",
"488 251 OFFCURVE",
"497 269 CURVE SMOOTH",
"506 288 OFFCURVE",
"515 306 OFFCURVE",
"525 324 CURVE SMOOTH",
"558 390 OFFCURVE",
"594 461 OFFCURVE",
"631 531 CURVE SMOOTH",
"668 601 OFFCURVE",
"705 670 OFFCURVE",
"744 734 CURVE",
"765 736 OFFCURVE",
"790 738 OFFCURVE",
"812 740 CURVE SMOOTH",
"859 743 LINE",
"803 639 OFFCURVE",
"754 535 OFFCURVE",
"709 433 CURVE SMOOTH",
"664 330 OFFCURVE",
"622 228 OFFCURVE",
"582 126 CURVE SMOOTH",
"538 18 LINE",
"527 19 OFFCURVE",
"515 19 OFFCURVE",
"502 19 CURVE SMOOTH",
"489 19 OFFCURVE",
"477 19 OFFCURVE",
"466 19 CURVE SMOOTH",
"459 19 OFFCURVE",
"451 19 OFFCURVE",
"444 19 CURVE",
"436 18 OFFCURVE",
"429 18 OFFCURVE",
"421 18 CURVE SMOOTH",
"378 18 LINE"
);
}
);
width = 835;
}
);
unicode = 0056;
},
{
glyphname = W;
lastChange = "2015-11-24 04:11:55 +0000";
layers = (
{
anchors = (
{
name = top;
position = "{653, 728}";
}
);
layerId = "013FA67F-D7C9-4F04-AAC6-32032829ED9A";
name = "Bold Italic";
paths = (
{
closed = 1;
nodes = (
"216 740 LINE",
"278 736 LINE",
"305 653 OFFCURVE",
"327 570 OFFCURVE",
"345 486 CURVE SMOOTH",
"363 402 OFFCURVE",
"378 318 OFFCURVE",
"392 234 CURVE",
"430 296 OFFCURVE",
"466 356 OFFCURVE",
"502 419 CURVE SMOOTH",
"514 440 OFFCURVE",
"527 462 OFFCURVE",
"540 484 CURVE SMOOTH",
"553 507 OFFCURVE",
"566 528 OFFCURVE",
"578 549 CURVE",
"667 549 LINE",
"679 514 OFFCURVE",
"694 474 OFFCURVE",
"706 438 CURVE SMOOTH",
"713 419 OFFCURVE",
"720 400 OFFCURVE",
"726 383 CURVE SMOOTH",
"738 348 OFFCURVE",
"750 315 OFFCURVE",
"762 281 CURVE SMOOTH",
"769 263 OFFCURVE",
"776 245 OFFCURVE",
"783 225 CURVE",
"847 399 OFFCURVE",
"915 571 OFFCURVE",
"1005 737 CURVE",
"1022 738 OFFCURVE",
"1044 739 OFFCURVE",
"1061 740 CURVE",
"1064 741 OFFCURVE",
"1068 741 OFFCURVE",
"1073 741 CURVE",
"1077 741 OFFCURVE",
"1082 741 OFFCURVE",
"1087 742 CURVE",
"1097 742 OFFCURVE",
"1106 743 OFFCURVE",
"1112 743 CURVE",
"1052 623 OFFCURVE",
"1004 502 OFFCURVE",
"964 380 CURVE SMOOTH",
"923 258 OFFCURVE",
"890 136 OFFCURVE",
"862 14 CURVE",
"839 14 OFFCURVE",
"813 15 OFFCURVE",
"787 16 CURVE SMOOTH",
"760 16 OFFCURVE",
"734 17 OFFCURVE",
"712 18 CURVE",
"674 128 OFFCURVE",
"647 236 OFFCURVE",
"621 344 CURVE SMOOTH",
"618 356 OFFCURVE",
"617 360 OFFCURVE",
"616 365 CURVE SMOOTH",
"616 367 OFFCURVE",
"615 370 OFFCURVE",
"614 373 CURVE",
"613 375 OFFCURVE",
"612 380 OFFCURVE",
"611 385 CURVE",
"584 326 OFFCURVE",
"556 263 OFFCURVE",
"526 200 CURVE SMOOTH",
"497 138 OFFCURVE",
"467 75 OFFCURVE",
"438 17 CURVE",
"413 17 OFFCURVE",
"385 17 OFFCURVE",
"357 16 CURVE SMOOTH",
"342 15 OFFCURVE",
"328 15 OFFCURVE",
"315 14 CURVE SMOOTH",
"301 14 OFFCURVE",
"288 13 OFFCURVE",
"276 13 CURVE",
"271 135 OFFCURVE",
"263 259 OFFCURVE",
"248 381 CURVE SMOOTH",
"232 503 OFFCURVE",
"208 625 OFFCURVE",
"174 743 CURVE"
);
}
);
width = 1088;
}
);
unicode = 0057;
},
{
glyphname = X;
lastChange = "2015-11-24 04:11:55 +0000";
layers = (
{
layerId = "013FA67F-D7C9-4F04-AAC6-32032829ED9A";
name = "Bold Italic";
paths = (
{
closed = 1;
nodes = (
"180 739 LINE",
"201 736 OFFCURVE",
"220 735 OFFCURVE",
"242 734 CURVE SMOOTH",
"247 733 OFFCURVE",
"253 733 OFFCURVE",
"261 733 CURVE SMOOTH",
"268 732 OFFCURVE",
"274 732 OFFCURVE",
"279 731 CURVE",
"306 681 OFFCURVE",
"332 633 OFFCURVE",
"356 585 CURVE SMOOTH",
"369 560 OFFCURVE",
"381 536 OFFCURVE",
"393 511 CURVE SMOOTH",
"405 487 OFFCURVE",
"418 461 OFFCURVE",
"430 436 CURVE",
"497 535 OFFCURVE",
"566 637 OFFCURVE",
"637 733 CURVE",
"659 735 OFFCURVE",
"683 736 OFFCURVE",
"705 738 CURVE SMOOTH",
"756 742 LINE",
"664 617 OFFCURVE",
"573 479 OFFCURVE",
"489 349 CURVE",
"522 293 OFFCURVE",
"559 234 OFFCURVE",
"596 174 CURVE SMOOTH",
"634 115 OFFCURVE",
"672 57 OFFCURVE",
"708 3 CURVE",
"684 6 OFFCURVE",
"653 8 OFFCURVE",
"623 11 CURVE SMOOTH",
"592 13 OFFCURVE",
"561 15 OFFCURVE",
"537 16 CURVE",
"513 58 OFFCURVE",
"492 99 OFFCURVE",
"471 139 CURVE SMOOTH",
"451 179 OFFCURVE",
"430 220 OFFCURVE",
"409 264 CURVE",
"354 180 OFFCURVE",
"296 96 OFFCURVE",
"237 15 CURVE",
"225 15 OFFCURVE",
"212 14 OFFCURVE",
"196 13 CURVE SMOOTH",
"166 11 OFFCURVE",
"133 9 OFFCURVE",
"103 7 CURVE SMOOTH",
"88 5 OFFCURVE",
"74 4 OFFCURVE",
"62 3 CURVE",
"109 57 OFFCURVE",
"159 116 OFFCURVE",
"208 176 CURVE SMOOTH",
"257 236 OFFCURVE",
"306 295 OFFCURVE",
"352 352 CURVE",
"350 355 OFFCURVE",
"348 359 OFFCURVE",
"347 363 CURVE SMOOTH",
"345 366 OFFCURVE",
"344 370 OFFCURVE",
"342 373 CURVE SMOOTH",
"288 491 OFFCURVE",
"231 611 OFFCURVE",
"170 725 CURVE"
);
}
);
width = 841;
}
);
unicode = 0058;
},
{
glyphname = Y;
lastChange = "2015-11-24 04:11:55 +0000";
layers = (
{
anchors = (
{
name = bottom;
position = "{421, 0}";
},
{
name = top;
position = "{491, 728}";
}
);
layerId = "013FA67F-D7C9-4F04-AAC6-32032829ED9A";
name = "Bold Italic";
paths = (
{
closed = 1;
nodes = (
"181 742 LINE",
"213 738 OFFCURVE",
"248 735 OFFCURVE",
"280 733 CURVE",
"310 673 OFFCURVE",
"339 614 OFFCURVE",
"366 556 CURVE SMOOTH",
"394 497 OFFCURVE",
"420 438 OFFCURVE",
"447 376 CURVE",
"521 496 OFFCURVE",
"597 618 OFFCURVE",
"677 734 CURVE",
"703 736 OFFCURVE",
"731 738 OFFCURVE",
"757 740 CURVE SMOOTH",
"796 744 LINE",
"753 680 OFFCURVE",
"710 612 OFFCURVE",
"668 543 CURVE SMOOTH",
"626 473 OFFCURVE",
"584 403 OFFCURVE",
"546 337 CURVE SMOOTH",
"539 325 OFFCURVE",
"532 312 OFFCURVE",
"524 300 CURVE SMOOTH",
"517 287 OFFCURVE",
"510 275 OFFCURVE",
"503 262 CURVE",
"495 183 OFFCURVE",
"490 96 OFFCURVE",
"486 18 CURVE",
"468 18 OFFCURVE",
"441 19 OFFCURVE",
"424 19 CURVE SMOOTH",
"389 19 LINE SMOOTH",
"386 19 OFFCURVE",
"382 19 OFFCURVE",
"378 19 CURVE SMOOTH",
"374 19 OFFCURVE",
"370 19 OFFCURVE",
"366 19 CURVE",
"361 18 OFFCURVE",
"357 18 OFFCURVE",
"353 18 CURVE SMOOTH",
"349 18 OFFCURVE",
"345 18 OFFCURVE",
"342 18 CURVE",
"346 58 OFFCURVE",
"350 99 OFFCURVE",
"355 140 CURVE SMOOTH",
"359 182 OFFCURVE",
"363 223 OFFCURVE",
"367 262 CURVE",
"305 419 OFFCURVE",
"244 575 OFFCURVE",
"171 728 CURVE"
);
}
);
width = 772;
}
);
unicode = 0059;
},
{
glyphname = Z;
lastChange = "2015-11-24 04:11:55 +0000";
layers = (
{
anchors = (
{
name = bottom;
position = "{382, -27}";
},
{
name = top;
position = "{431, 728}";
}
);
layerId = "013FA67F-D7C9-4F04-AAC6-32032829ED9A";
name = "Bold Italic";
paths = (
{
closed = 1;
nodes = (
"182 741 LINE",
"273 731 OFFCURVE",
"362 728 OFFCURVE",
"454 728 CURVE SMOOTH",
"548 728 OFFCURVE",
"649 733 OFFCURVE",
"756 743 CURVE",
"755 740 OFFCURVE",
"754 736 OFFCURVE",
"754 732 CURVE SMOOTH",
"753 728 OFFCURVE",
"752 724 OFFCURVE",
"751 719 CURVE SMOOTH",
"749 711 OFFCURVE",
"747 702 OFFCURVE",
"747 696 CURVE",
"740 658 LINE",
"698 616 OFFCURVE",
"656 573 OFFCURVE",
"614 530 CURVE SMOOTH",
"572 488 OFFCURVE",
"530 445 OFFCURVE",
"489 402 CURVE SMOOTH",
"468 381 OFFCURVE",
"448 361 OFFCURVE",
"430 342 CURVE SMOOTH",
"392 303 OFFCURVE",
"355 266 OFFCURVE",
"318 228 CURVE SMOOTH",
"299 208 OFFCURVE",
"279 188 OFFCURVE",
"258 167 CURVE",
"312 169 OFFCURVE",
"367 170 OFFCURVE",
"421 170 CURVE SMOOTH",
"512 170 OFFCURVE",
"611 167 OFFCURVE",
"701 161 CURVE",
"700 145 OFFCURVE",
"700 119 OFFCURVE",
"700 103 CURVE SMOOTH",
"700 73 OFFCURVE",
"700 34 OFFCURVE",
"702 4 CURVE",
"598 14 OFFCURVE",
"499 19 OFFCURVE",
"401 19 CURVE SMOOTH",
"306 19 OFFCURVE",
"204 14 OFFCURVE",
"95 4 CURVE",
"100 26 OFFCURVE",
"105 51 OFFCURVE",
"109 77 CURVE SMOOTH",
"114 103 OFFCURVE",
"118 129 OFFCURVE",
"122 151 CURVE",
"203 236 OFFCURVE",
"281 317 OFFCURVE",
"359 397 CURVE SMOOTH",
"438 477 OFFCURVE",
"517 557 OFFCURVE",
"600 640 CURVE",
"548 638 OFFCURVE",
"496 637 OFFCURVE",
"445 637 CURVE SMOOTH",
"357 637 OFFCURVE",
"267 640 OFFCURVE",
"172 649 CURVE",
"172 731 LINE"
);
}
);
width = 835;
}
);
unicode = 005A;
},
{
glyphname = bracketleft;
lastChange = "2015-11-24 04:11:55 +0000";
layers = (
{
layerId = "013FA67F-D7C9-4F04-AAC6-32032829ED9A";
name = "Bold Italic";
paths = (
{
closed = 1;
nodes = (
"193 771 LINE",
"220 759 OFFCURVE",
"251 754 OFFCURVE",
"282 754 CURVE SMOOTH",
"316 754 OFFCURVE",
"355 762 OFFCURVE",
"396 777 CURVE",
"393 741 LINE",
"387 695 LINE",
"349 681 OFFCURVE",
"313 677 OFFCURVE",
"278 677 CURVE SMOOTH",
"276 677 OFFCURVE",
"274 677 OFFCURVE",
"275 677 CURVE",
"275 676 OFFCURVE",
"273 676 OFFCURVE",
"271 677 CURVE",
"253 451 OFFCURVE",
"233 231 OFFCURVE",
"213 5 CURVE",
"220 5 LINE SMOOTH",
"252 5 OFFCURVE",
"287 2 OFFCURVE",
"325 -11 CURVE",
"323 -33 OFFCURVE",
"322 -63 OFFCURVE",
"320 -84 CURVE SMOOTH",
"318 -131 LINE",
"280 -117 OFFCURVE",
"245 -110 OFFCURVE",
"213 -110 CURVE SMOOTH",
"179 -110 OFFCURVE",
"141 -117 OFFCURVE",
"100 -131 CURVE",
"134 164 OFFCURVE",
"161 469 OFFCURVE",
"179 763 CURVE"
);
}
);
width = 479;
}
);
unicode = 005B;
},
{
glyphname = backslash;
lastChange = "2015-11-24 04:11:55 +0000";
layers = (
{
layerId = "013FA67F-D7C9-4F04-AAC6-32032829ED9A";
name = "Bold Italic";
paths = (
{
closed = 1;
nodes = (
"268 718 LINE",
"294 590 OFFCURVE",
"317 462 OFFCURVE",
"340 334 CURVE SMOOTH",
"352 266 OFFCURVE",
"366 191 OFFCURVE",
"380 115 CURVE SMOOTH",
"394 40 OFFCURVE",
"409 -36 OFFCURVE",
"423 -102 CURVE",
"400 -98 LINE",
"372 -90 OFFCURVE",
"346 -84 OFFCURVE",
"312 -82 CURVE",
"288 48 OFFCURVE",
"267 184 OFFCURVE",
"247 314 CURVE SMOOTH",
"241 348 OFFCURVE",
"235 384 OFFCURVE",
"230 421 CURVE SMOOTH",
"218 494 OFFCURVE",
"206 567 OFFCURVE",
"194 640 CURVE SMOOTH",
"187 676 OFFCURVE",
"181 712 OFFCURVE",
"175 746 CURVE",
"210 734 OFFCURVE",
"236 729 OFFCURVE",
"259 726 CURVE"
);
}
);
width = 579;
}
);
unicode = 005C;
},
{
glyphname = bracketright;
lastChange = "2015-11-24 04:11:55 +0000";
layers = (
{
layerId = "013FA67F-D7C9-4F04-AAC6-32032829ED9A";
name = "Bold Italic";
paths = (
{
closed = 1;
nodes = (
"397 762 LINE",
"363 467 OFFCURVE",
"336 164 OFFCURVE",
"319 -131 CURVE",
"282 -117 OFFCURVE",
"247 -110 OFFCURVE",
"215 -110 CURVE SMOOTH",
"181 -110 OFFCURVE",
"144 -117 OFFCURVE",
"103 -131 CURVE",
"110 -69 LINE",
"115 -15 LINE",
"154 -5 OFFCURVE",
"190 0 OFFCURVE",
"223 0 CURVE SMOOTH",
"229 0 LINE",
"234 58 OFFCURVE",
"239 115 OFFCURVE",
"244 171 CURVE SMOOTH",
"254 283 OFFCURVE",
"263 394 OFFCURVE",
"274 506 CURVE SMOOTH",
"279 562 OFFCURVE",
"284 619 OFFCURVE",
"289 677 CURVE",
"280 677 LINE SMOOTH",
"246 677 OFFCURVE",
"211 680 OFFCURVE",
"177 696 CURVE",
"177 701 OFFCURVE",
"177 707 OFFCURVE",
"178 714 CURVE SMOOTH",
"178 722 OFFCURVE",
"179 728 OFFCURVE",
"179 733 CURVE",
"182 777 LINE",
"218 761 OFFCURVE",
"253 754 OFFCURVE",
"284 754 CURVE SMOOTH",
"318 754 OFFCURVE",
"352 760 OFFCURVE",
"384 772 CURVE"
);
}
);
width = 481;
}
);
unicode = 005D;
},
{
glyphname = asciicircum;
lastChange = "2015-11-24 04:11:55 +0000";
layers = (
{
layerId = "013FA67F-D7C9-4F04-AAC6-32032829ED9A";
name = "Bold Italic";
paths = (
{
closed = 1;
nodes = (
"508 737 LINE",
"519 725 OFFCURVE",
"530 713 OFFCURVE",
"541 700 CURVE SMOOTH",
"553 686 OFFCURVE",
"564 674 OFFCURVE",
"574 661 CURVE SMOOTH",
"602 629 OFFCURVE",
"629 597 OFFCURVE",
"661 564 CURVE SMOOTH",
"693 530 OFFCURVE",
"730 496 OFFCURVE",
"775 459 CURVE",
"764 460 OFFCURVE",
"751 460 OFFCURVE",
"736 461 CURVE SMOOTH",
"706 462 OFFCURVE",
"674 463 OFFCURVE",
"644 464 CURVE SMOOTH",
"629 464 OFFCURVE",
"616 464 OFFCURVE",
"604 465 CURVE",
"560 515 OFFCURVE",
"529 568 OFFCURVE",
"496 622 CURVE SMOOTH",
"493 627 OFFCURVE",
"490 632 OFFCURVE",
"488 636 CURVE",
"485 640 OFFCURVE",
"483 644 OFFCURVE",
"480 648 CURVE SMOOTH",
"478 652 OFFCURVE",
"475 656 OFFCURVE",
"472 661 CURVE SMOOTH",
"470 665 OFFCURVE",
"467 670 OFFCURVE",
"463 675 CURVE",
"447 655 OFFCURVE",
"432 636 OFFCURVE",
"416 616 CURVE SMOOTH",
"376 565 OFFCURVE",
"336 514 OFFCURVE",
"286 464 CURVE",
"263 464 OFFCURVE",
"232 464 OFFCURVE",
"200 463 CURVE SMOOTH",
"184 462 OFFCURVE",
"169 462 OFFCURVE",
"154 461 CURVE SMOOTH",
"139 461 OFFCURVE",
"126 460 OFFCURVE",
"114 460 CURVE",
"162 496 OFFCURVE",
"203 529 OFFCURVE",
"240 561 CURVE SMOOTH",
"276 593 OFFCURVE",
"308 623 OFFCURVE",
"339 653 CURVE SMOOTH",
"353 666 OFFCURVE",
"368 680 OFFCURVE",
"383 695 CURVE SMOOTH",
"399 710 OFFCURVE",
"414 724 OFFCURVE",
"428 737 CURVE"
);
}
);
width = 812;
}
);
unicode = 005E;
},
{
glyphname = underscore;
lastChange = "2015-11-24 04:11:55 +0000";
layers = (
{
layerId = "013FA67F-D7C9-4F04-AAC6-32032829ED9A";
name = "Bold Italic";
paths = (
{
closed = 1;
nodes = (
"525 -150 LINE",
"515 -160 OFFCURVE",
"508 -174 OFFCURVE",
"508 -188 CURVE SMOOTH",
"508 -198 OFFCURVE",
"517 -213 OFFCURVE",
"537 -231 CURVE",
"495 -231 OFFCURVE",
"447 -230 OFFCURVE",
"398 -230 CURVE SMOOTH",
"373 -230 OFFCURVE",
"349 -230 OFFCURVE",
"325 -229 CURVE SMOOTH",
"301 -229 OFFCURVE",
"279 -229 OFFCURVE",
"258 -229 CURVE SMOOTH",
"236 -229 OFFCURVE",
"214 -229 OFFCURVE",
"190 -229 CURVE SMOOTH",
"166 -230 OFFCURVE",
"142 -230 OFFCURVE",
"118 -230 CURVE SMOOTH",
"69 -230 OFFCURVE",
"20 -231 OFFCURVE",
"-22 -231 CURVE",
"2 -210 OFFCURVE",
"13 -192 OFFCURVE",
"13 -177 CURVE SMOOTH",
"13 -166 OFFCURVE",
"5 -151 OFFCURVE",
"-12 -133 CURVE",
"28 -133 OFFCURVE",
"74 -134 OFFCURVE",
"119 -134 CURVE SMOOTH",
"142 -135 OFFCURVE",
"164 -135 OFFCURVE",
"187 -135 CURVE SMOOTH",
"209 -135 OFFCURVE",
"230 -135 OFFCURVE",
"250 -135 CURVE SMOOTH",
"340 -135 OFFCURVE",
"429 -135 OFFCURVE",
"519 -133 CURVE"
);
}
);
width = 720;
}
);
unicode = 005F;
},
{
glyphname = grave;
lastChange = "2015-11-24 04:11:55 +0000";
layers = (
{
anchors = (
{
name = _top;
position = "{309, 339}";
}
);
layerId = "013FA67F-D7C9-4F04-AAC6-32032829ED9A";
name = "Bold Italic";
paths = (
{
closed = 1;
nodes = (
"300 805 LINE",
"308 794 OFFCURVE",
"316 782 OFFCURVE",
"323 771 CURVE SMOOTH",
"338 747 OFFCURVE",
"356 718 OFFCURVE",
"382 681 CURVE SMOOTH",
"394 662 OFFCURVE",
"410 642 OFFCURVE",
"429 619 CURVE",
"420 620 OFFCURVE",
"410 620 OFFCURVE",
"399 621 CURVE SMOOTH",
"388 621 OFFCURVE",
"377 622 OFFCURVE",
"366 622 CURVE SMOOTH",
"354 623 OFFCURVE",
"343 623 OFFCURVE",
"333 623 CURVE SMOOTH",
"322 624 OFFCURVE",
"312 624 OFFCURVE",
"303 624 CURVE SMOOTH",
"281 624 LINE",
"277 633 OFFCURVE",
"272 644 OFFCURVE",
"267 656 CURVE SMOOTH",
"262 667 OFFCURVE",
"257 678 OFFCURVE",
"252 688 CURVE SMOOTH",
"244 706 OFFCURVE",
"236 725 OFFCURVE",
"227 745 CURVE SMOOTH",
"217 765 OFFCURVE",
"205 787 OFFCURVE",
"189 814 CURVE",
"203 812 OFFCURVE",
"222 812 OFFCURVE",
"240 811 CURVE SMOOTH",
"259 810 OFFCURVE",
"278 809 OFFCURVE",
"292 809 CURVE"
);
}
);
width = 431;
}
);
unicode = 0060;
},
{
glyphname = a;
lastChange = "2015-11-24 04:11:55 +0000";
layers = (
{
anchors = (
{
name = bottom;
position = "{255, -31}";
},
{
name = ogonek;
position = "{581, 32}";
},
{
name = top;
position = "{322, 554}";
}
);
layerId = "013FA67F-D7C9-4F04-AAC6-32032829ED9A";
name = "Bold Italic";
paths = (
{
closed = 1;
nodes = (
"533 307 OFFCURVE",
"506 191 OFFCURVE",
"545 5 CURVE",
"526 7 OFFCURVE",
"487 10 OFFCURVE",
"468 11 CURVE SMOOTH",
"436 14 LINE",
"442 33 OFFCURVE",
"444 47 OFFCURVE",
"438 82 CURVE",
"418 58 OFFCURVE",
"392 38 OFFCURVE",
"364 25 CURVE SMOOTH",
"336 12 OFFCURVE",
"306 5 OFFCURVE",
"275 5 CURVE SMOOTH",
"268 5 LINE SMOOTH",
"267 5 OFFCURVE",
"266 5 OFFCURVE",
"266 5 CURVE",
"265 4 OFFCURVE",
"264 4 OFFCURVE",
"263 4 CURVE SMOOTH",
"258 4 LINE SMOOTH",
"200 4 OFFCURVE",
"145 29 OFFCURVE",
"114 76 CURVE SMOOTH",
"85 120 OFFCURVE",
"76 171 OFFCURVE",
"76 223 CURVE SMOOTH",
"76 264 OFFCURVE",
"80 311 OFFCURVE",
"92 358 CURVE SMOOTH",
"104 404 OFFCURVE",
"124 448 OFFCURVE",
"156 486 CURVE",
"155 485 LINE",
"174 509 OFFCURVE",
"199 528 OFFCURVE",
"225 540 CURVE SMOOTH",
"252 553 OFFCURVE",
"281 560 OFFCURVE",
"309 560 CURVE SMOOTH",
"323 560 LINE SMOOTH",
"383 560 OFFCURVE",
"439 530 OFFCURVE",
"468 482 CURVE",
"474 528 OFFCURVE",
"475 541 OFFCURVE",
"478 565 CURVE",
"508 565 OFFCURVE",
"508 565 OFFCURVE",
"533 565 CURVE",
"534 565 OFFCURVE",
"558 564 OFFCURVE",
"561 565 CURVE",
"565 565 OFFCURVE",
"576 563 OFFCURVE",
"581 565 CURVE"
);
},
{
closed = 1;
nodes = (
"298 488 LINE SMOOTH",
"265 488 OFFCURVE",
"239 475 OFFCURVE",
"218 455 CURVE SMOOTH",
"197 435 OFFCURVE",
"181 408 OFFCURVE",
"170 379 CURVE SMOOTH",
"158 349 OFFCURVE",
"155 318 OFFCURVE",
"152 289 CURVE",
"152 273 OFFCURVE",
"151 255 OFFCURVE",
"156 239 CURVE SMOOTH",
"160 223 OFFCURVE",
"168 214 OFFCURVE",
"179 202 CURVE",
"191 191 OFFCURVE",
"205 184 OFFCURVE",
"221 181 CURVE SMOOTH",
"237 177 OFFCURVE",
"255 176 OFFCURVE",
"271 176 CURVE",
"305 178 OFFCURVE",
"342 180 OFFCURVE",
"372 199 CURVE",
"371 199 LINE",
"391 213 OFFCURVE",
"401 232 OFFCURVE",
"407 257 CURVE SMOOTH",
"413 283 OFFCURVE",
"414 309 OFFCURVE",
"414 327 CURVE SMOOTH",
"414 353 OFFCURVE",
"411 379 OFFCURVE",
"406 404 CURVE SMOOTH",
"400 430 OFFCURVE",
"388 451 OFFCURVE",
"371 465 CURVE SMOOTH",
"355 480 OFFCURVE",
"334 488 OFFCURVE",
"310 488 CURVE SMOOTH"
);
}
);
width = 638;
}
);
unicode = 0061;
},
{
glyphname = b;
lastChange = "2015-11-24 04:11:55 +0000";
layers = (
{
anchors = (
{
name = bottom;
position = "{339, -22}";
}
);
layerId = "013FA67F-D7C9-4F04-AAC6-32032829ED9A";
name = "Bold Italic";
paths = (
{
closed = 1;
nodes = (
"544 312 LINE SMOOTH",
"544 314 OFFCURVE",
"544 316 OFFCURVE",
"545 318 CURVE",
"545 320 OFFCURVE",
"545 322 OFFCURVE",
"545 324 CURVE SMOOTH",
"545 363 OFFCURVE",
"540 405 OFFCURVE",
"524 436 CURVE SMOOTH",
"507 468 OFFCURVE",
"480 490 OFFCURVE",
"436 490 CURVE SMOOTH",
"396 490 OFFCURVE",
"354 474 OFFCURVE",
"327 440 CURVE",
"295 399 OFFCURVE",
"282 345 OFFCURVE",
"277 296 CURVE",
"278 264 OFFCURVE",
"285 228 OFFCURVE",
"303 203 CURVE",
"315 190 OFFCURVE",
"332 181 OFFCURVE",
"350 176 CURVE SMOOTH",
"367 170 OFFCURVE",
"385 167 OFFCURVE",
"402 167 CURVE",
"434 169 OFFCURVE",
"466 177 OFFCURVE",
"494 197 CURVE",
"493 196 LINE",
"509 208 OFFCURVE",
"520 226 OFFCURVE",
"528 245 CURVE SMOOTH",
"536 263 OFFCURVE",
"541 283 OFFCURVE",
"545 303 CURVE",
"544 301 LINE"
);
},
{
closed = 1;
nodes = (
"271 667 OFFCURVE",
"263 573 OFFCURVE",
"254 485 CURVE",
"272 509 OFFCURVE",
"296 528 OFFCURVE",
"323 541 CURVE SMOOTH",
"350 553 OFFCURVE",
"379 560 OFFCURVE",
"409 560 CURVE SMOOTH",
"424 560 LINE SMOOTH",
"488 560 OFFCURVE",
"534 530 OFFCURVE",
"564 486 CURVE SMOOTH",
"594 441 OFFCURVE",
"608 381 OFFCURVE",
"608 323 CURVE SMOOTH",
"608 283 OFFCURVE",
"604 239 OFFCURVE",
"594 196 CURVE SMOOTH",
"583 153 OFFCURVE",
"565 111 OFFCURVE",
"536 77 CURVE SMOOTH",
"496 29 OFFCURVE",
"437 5 OFFCURVE",
"379 5 CURVE SMOOTH",
"371 5 LINE SMOOTH",
"371 5 OFFCURVE",
"370 5 OFFCURVE",
"369 5 CURVE",
"368 5 OFFCURVE",
"367 5 OFFCURVE",
"367 5 CURVE SMOOTH",
"362 5 LINE SMOOTH",
"332 5 OFFCURVE",
"303 12 OFFCURVE",
"277 26 CURVE SMOOTH",
"251 39 OFFCURVE",
"212 55 OFFCURVE",
"188 83 CURVE",
"127 154 LINE",
"173 411 OFFCURVE",
"174 513 OFFCURVE",
"179 767 CURVE",
"232 756 OFFCURVE",
"273 755 OFFCURVE",
"277 755 CURVE"
);
}
);
width = 686;
}
);
unicode = 0062;
},
{
glyphname = c;
lastChange = "2015-11-24 04:11:55 +0000";
layers = (
{
anchors = (
{
name = bottom;
position = "{327, 0}";
},
{
name = top;
position = "{327, 554}";
}
);
layerId = "013FA67F-D7C9-4F04-AAC6-32032829ED9A";
name = "Bold Italic";
paths = (
{
closed = 1;
nodes = (
"510 525 LINE",
"523 527 LINE",
"521 517 OFFCURVE",
"520 508 OFFCURVE",
"518 500 CURVE SMOOTH",
"517 491 OFFCURVE",
"515 482 OFFCURVE",
"513 473 CURVE",
"513 473 LINE",
"509 443 LINE",
"463 467 OFFCURVE",
"414 479 OFFCURVE",
"370 479 CURVE SMOOTH",
"346 479 OFFCURVE",
"320 476 OFFCURVE",
"297 467 CURVE SMOOTH",
"273 459 OFFCURVE",
"251 445 OFFCURVE",
"234 425 CURVE",
"217 406 OFFCURVE",
"205 381 OFFCURVE",
"197 355 CURVE SMOOTH",
"189 329 OFFCURVE",
"184 302 OFFCURVE",
"181 278 CURVE",
"181 260 OFFCURVE",
"184 243 OFFCURVE",
"189 228 CURVE SMOOTH",
"194 212 OFFCURVE",
"202 198 OFFCURVE",
"214 188 CURVE",
"214 188 LINE",
"246 167 OFFCURVE",
"287 162 OFFCURVE",
"329 159 CURVE",
"328 159 LINE",
"401 157 LINE",
"407 157 LINE SMOOTH",
"427 157 OFFCURVE",
"453 164 OFFCURVE",
"481 178 CURVE",
"481 164 OFFCURVE",
"480 148 OFFCURVE",
"479 131 CURVE SMOOTH",
"479 114 OFFCURVE",
"478 97 OFFCURVE",
"478 84 CURVE SMOOTH",
"478 67 OFFCURVE",
"479 45 OFFCURVE",
"479 27 CURVE",
"427 8 OFFCURVE",
"377 1 OFFCURVE",
"329 1 CURVE SMOOTH",
"292 1 OFFCURVE",
"253 4 OFFCURVE",
"217 15 CURVE SMOOTH",
"181 26 OFFCURVE",
"149 45 OFFCURVE",
"125 75 CURVE",
"125 74 LINE",
"107 96 OFFCURVE",
"95 122 OFFCURVE",
"88 149 CURVE SMOOTH",
"80 177 OFFCURVE",
"78 205 OFFCURVE",
"78 235 CURVE SMOOTH",
"78 273 OFFCURVE",
"82 320 OFFCURVE",
"95 365 CURVE SMOOTH",
"107 409 OFFCURVE",
"128 452 OFFCURVE",
"161 485 CURVE SMOOTH",
"191 513 OFFCURVE",
"229 531 OFFCURVE",
"267 542 CURVE SMOOTH",
"305 554 OFFCURVE",
"345 558 OFFCURVE",
"383 558 CURVE SMOOTH",
"430 558 OFFCURVE",
"476 550 OFFCURVE",
"519 534 CURVE"
);
}
);
width = 607;
}
);
unicode = 0063;
},
{
glyphname = d;
lastChange = "2015-11-24 04:11:55 +0000";
layers = (
{
anchors = (
{
name = bottom;
position = "{271, -29}";
},
{
name = center;
position = "{359, 277}";
},
{
name = top;
position = "{306, 586}";
}
);
layerId = "013FA67F-D7C9-4F04-AAC6-32032829ED9A";
name = "Bold Italic";
paths = (
{
closed = 1;
nodes = (
"324 560 LINE SMOOTH",
"384 560 OFFCURVE",
"439 533 OFFCURVE",
"469 483 CURVE",
"480 573 OFFCURVE",
"496 668 OFFCURVE",
"512 757 CURVE",
"538 759 OFFCURVE",
"568 762 OFFCURVE",
"594 765 CURVE",
"595 765 OFFCURVE",
"597 766 OFFCURVE",
"601 767 CURVE",
"604 767 OFFCURVE",
"609 768 OFFCURVE",
"613 770 CURVE",
"566 512 OFFCURVE",
"538 259 OFFCURVE",
"534 5 CURVE",
"516 7 OFFCURVE",
"488 10 OFFCURVE",
"468 12 CURVE SMOOTH",
"437 14 LINE",
"437 18 OFFCURVE",
"437 23 OFFCURVE",
"437 30 CURVE",
"437 37 OFFCURVE",
"437 43 OFFCURVE",
"437 47 CURVE SMOOTH",
"437 52 OFFCURVE",
"437 56 OFFCURVE",
"437 59 CURVE SMOOTH",
"437 61 OFFCURVE",
"437 63 OFFCURVE",
"437 65 CURVE SMOOTH",
"437 66 OFFCURVE",
"437 68 OFFCURVE",
"438 70 CURVE",
"438 73 OFFCURVE",
"438 77 OFFCURVE",
"438 82 CURVE",
"418 58 OFFCURVE",
"393 39 OFFCURVE",
"365 26 CURVE SMOOTH",
"337 13 OFFCURVE",
"306 5 OFFCURVE",
"276 5 CURVE SMOOTH",
"268 5 LINE SMOOTH",
"268 5 OFFCURVE",
"267 5 OFFCURVE",
"266 5 CURVE",
"265 5 OFFCURVE",
"264 5 OFFCURVE",
"264 5 CURVE SMOOTH",
"259 5 LINE SMOOTH",
"200 5 OFFCURVE",
"146 29 OFFCURVE",
"114 77 CURVE SMOOTH",
"86 121 OFFCURVE",
"76 171 OFFCURVE",
"76 224 CURVE SMOOTH",
"76 264 OFFCURVE",
"81 312 OFFCURVE",
"93 358 CURVE SMOOTH",
"105 404 OFFCURVE",
"125 449 OFFCURVE",
"156 486 CURVE",
"156 486 LINE",
"174 510 OFFCURVE",
"199 528 OFFCURVE",
"226 541 CURVE SMOOTH",
"252 553 OFFCURVE",
"282 560 OFFCURVE",
"310 560 CURVE SMOOTH"
);
},
{
closed = 1;
nodes = (
"149 273 OFFCURVE",
"152 255 OFFCURVE",
"156 239 CURVE SMOOTH",
"160 223 OFFCURVE",
"168 209 OFFCURVE",
"179 197 CURVE",
"179 197 LINE",
"191 185 OFFCURVE",
"205 179 OFFCURVE",
"221 175 CURVE SMOOTH",
"237 172 OFFCURVE",
"255 171 OFFCURVE",
"271 171 CURVE",
"305 172 OFFCURVE",
"342 174 OFFCURVE",
"372 194 CURVE",
"371 193 LINE",
"391 208 OFFCURVE",
"402 232 OFFCURVE",
"408 258 CURVE SMOOTH",
"414 283 OFFCURVE",
"414 309 OFFCURVE",
"414 327 CURVE SMOOTH",
"414 353 OFFCURVE",
"412 379 OFFCURVE",
"406 405 CURVE SMOOTH",
"401 430 OFFCURVE",
"388 451 OFFCURVE",
"372 466 CURVE SMOOTH",
"355 480 OFFCURVE",
"334 488 OFFCURVE",
"311 488 CURVE SMOOTH",
"299 488 LINE SMOOTH",
"265 488 OFFCURVE",
"239 476 OFFCURVE",
"218 456 CURVE SMOOTH",
"197 436 OFFCURVE",
"182 409 OFFCURVE",
"170 379 CURVE SMOOTH",
"159 349 OFFCURVE",
"152 318 OFFCURVE",
"149 289 CURVE"
);
}
);
width = 667;
}
);
unicode = 0064;
},
{
glyphname = e;
lastChange = "2015-11-24 04:11:55 +0000";
layers = (
{
anchors = (
{
name = bottom;
position = "{345, 0}";
},
{
name = ogonek;
position = "{411, 3}";
},
{
name = top;
position = "{345, 554}";
}
);
layerId = "013FA67F-D7C9-4F04-AAC6-32032829ED9A";
name = "Bold Italic";
paths = (
{
closed = 1;
nodes = (
"558 335 LINE",
"558 331 OFFCURVE",
"558 328 OFFCURVE",
"558 326 CURVE",
"557 323 OFFCURVE",
"557 320 OFFCURVE",
"557 317 CURVE",
"557 318 LINE",
"554 298 LINE",
"474 296 OFFCURVE",
"386 296 OFFCURVE",
"306 296 CURVE SMOOTH",
"294 296 OFFCURVE",
"283 296 OFFCURVE",
"271 297 CURVE",
"260 297 OFFCURVE",
"248 297 OFFCURVE",
"236 297 CURVE SMOOTH",
"176 297 LINE",
"176 294 LINE",
"176 285 OFFCURVE",
"175 277 OFFCURVE",
"175 269 CURVE SMOOTH",
"175 249 OFFCURVE",
"177 230 OFFCURVE",
"182 213 CURVE SMOOTH",
"187 196 OFFCURVE",
"196 181 OFFCURVE",
"210 170 CURVE",
"210 171 LINE",
"251 145 OFFCURVE",
"304 138 OFFCURVE",
"352 138 CURVE SMOOTH",
"361 138 LINE SMOOTH",
"387 138 OFFCURVE",
"414 138 OFFCURVE",
"442 142 CURVE SMOOTH",
"469 146 OFFCURVE",
"498 153 OFFCURVE",
"528 168 CURVE",
"528 163 OFFCURVE",
"528 158 OFFCURVE",
"528 152 CURVE",
"528 139 OFFCURVE",
"527 126 OFFCURVE",
"527 114 CURVE SMOOTH",
"527 107 OFFCURVE",
"527 102 OFFCURVE",
"527 97 CURVE SMOOTH",
"527 79 OFFCURVE",
"527 54 OFFCURVE",
"529 35 CURVE",
"459 12 OFFCURVE",
"391 2 OFFCURVE",
"324 2 CURVE",
"290 4 OFFCURVE",
"253 10 OFFCURVE",
"219 22 CURVE SMOOTH",
"184 34 OFFCURVE",
"151 51 OFFCURVE",
"127 75 CURVE",
"108 97 OFFCURVE",
"96 123 OFFCURVE",
"88 151 CURVE SMOOTH",
"80 178 OFFCURVE",
"76 208 OFFCURVE",
"76 236 CURVE SMOOTH",
"76 275 OFFCURVE",
"82 320 OFFCURVE",
"95 364 CURVE SMOOTH",
"109 408 OFFCURVE",
"130 451 OFFCURVE",
"160 483 CURVE SMOOTH",
"186 510 OFFCURVE",
"218 528 OFFCURVE",
"252 540 CURVE SMOOTH",
"286 552 OFFCURVE",
"323 557 OFFCURVE",
"357 557 CURVE",
"385 556 OFFCURVE",
"414 552 OFFCURVE",
"442 544 CURVE SMOOTH",
"469 536 OFFCURVE",
"495 524 OFFCURVE",
"516 503 CURVE",
"534 483 OFFCURVE",
"544 460 OFFCURVE",
"551 435 CURVE SMOOTH",
"557 410 OFFCURVE",
"558 383 OFFCURVE",
"558 357 CURVE SMOOTH",
"558 356 OFFCURVE",
"558 354 OFFCURVE",
"558 352 CURVE",
"558 350 OFFCURVE",
"558 348 OFFCURVE",
"558 346 CURVE SMOOTH",
"558 335 LINE",
"542 342 LINE"
);
},
{
closed = 1;
nodes = (
"480 372 LINE",
"480 375 OFFCURVE",
"480 378 OFFCURVE",
"479 382 CURVE",
"490 382 LINE"
);
},
{
closed = 1;
nodes = (
"352 380 OFFCURVE",
"416 381 OFFCURVE",
"479 382 CURVE",
"476 415 OFFCURVE",
"463 445 OFFCURVE",
"441 467 CURVE SMOOTH",
"419 489 OFFCURVE",
"389 502 OFFCURVE",
"353 502 CURVE SMOOTH",
"312 502 OFFCURVE",
"269 491 OFFCURVE",
"237 461 CURVE",
"213 439 OFFCURVE",
"196 411 OFFCURVE",
"192 381 CURVE",
"208 380 OFFCURVE",
"224 380 OFFCURVE",
"240 380 CURVE SMOOTH",
"255 380 OFFCURVE",
"271 380 OFFCURVE",
"288 380 CURVE SMOOTH"
);
}
);
width = 655;
}
);
unicode = 0065;
},
{
glyphname = f;
lastChange = "2015-11-24 04:11:55 +0000";
layers = (
{
layerId = "013FA67F-D7C9-4F04-AAC6-32032829ED9A";
name = "Bold Italic";
paths = (
{
closed = 1;
nodes = (
"467 735 LINE",
"464 713 OFFCURVE",
"460 684 OFFCURVE",
"457 662 CURVE",
"448 661 OFFCURVE",
"430 661 OFFCURVE",
"421 661 CURVE SMOOTH",
"405 661 OFFCURVE",
"391 661 OFFCURVE",
"376 662 CURVE",
"360 660 OFFCURVE",
"344 658 OFFCURVE",
"331 647 CURVE",
"319 631 OFFCURVE",
"316 607 OFFCURVE",
"313 587 CURVE",
"313 588 LINE",
"313 579 OFFCURVE",
"313 573 OFFCURVE",
"313 568 CURVE",
"313 562 OFFCURVE",
"313 556 OFFCURVE",
"313 548 CURVE",
"356 548 OFFCURVE",
"401 551 OFFCURVE",
"449 555 CURVE",
"449 549 OFFCURVE",
"448 541 OFFCURVE",
"447 533 CURVE SMOOTH",
"445 516 OFFCURVE",
"443 497 OFFCURVE",
"441 480 CURVE SMOOTH",
"440 471 OFFCURVE",
"439 464 OFFCURVE",
"439 457 CURVE",
"394 455 OFFCURVE",
"350 453 OFFCURVE",
"307 453 CURVE",
"297 310 OFFCURVE",
"289 161 OFFCURVE",
"284 18 CURVE",
"274 19 OFFCURVE",
"254 19 OFFCURVE",
"244 19 CURVE SMOOTH",
"217 19 OFFCURVE",
"184 17 OFFCURVE",
"144 13 CURVE",
"167 161 OFFCURVE",
"185 306 OFFCURVE",
"202 454 CURVE",
"191 454 OFFCURVE",
"178 455 OFFCURVE",
"165 456 CURVE",
"151 456 OFFCURVE",
"139 457 OFFCURVE",
"128 458 CURVE",
"130 493 LINE",
"131 498 OFFCURVE",
"131 503 OFFCURVE",
"132 508 CURVE SMOOTH",
"132 514 OFFCURVE",
"132 519 OFFCURVE",
"133 525 CURVE",
"133 536 OFFCURVE",
"134 548 OFFCURVE",
"135 556 CURVE",
"165 552 OFFCURVE",
"191 550 OFFCURVE",
"211 549 CURVE",
"213 558 OFFCURVE",
"214 568 OFFCURVE",
"215 580 CURVE",
"219 601 OFFCURVE",
"224 625 OFFCURVE",
"232 647 CURVE SMOOTH",
"241 669 OFFCURVE",
"253 689 OFFCURVE",
"271 705 CURVE",
"305 729 OFFCURVE",
"344 742 OFFCURVE",
"383 744 CURVE",
"388 744 OFFCURVE",
"393 744 OFFCURVE",
"398 744 CURVE SMOOTH",
"404 744 OFFCURVE",
"409 744 OFFCURVE",
"414 744 CURVE SMOOTH",
"428 744 OFFCURVE",
"442 744 OFFCURVE",
"457 746 CURVE"
);
}
);
width = 475;
}
);
unicode = 0066;
},
{
glyphname = g;
lastChange = "2015-11-24 04:11:55 +0000";
layers = (
{
anchors = (
{
name = bottom;
position = "{267, -237}";
},
{
name = top;
position = "{354, 554}";
}
);
layerId = "013FA67F-D7C9-4F04-AAC6-32032829ED9A";
name = "Bold Italic";
paths = (
{
closed = 1;
nodes = (
"417 288 LINE",
"419 301 OFFCURVE",
"419 313 OFFCURVE",
"419 325 CURVE SMOOTH",
"419 377 OFFCURVE",
"406 415 OFFCURVE",
"384 440 CURVE SMOOTH",
"361 464 OFFCURVE",
"329 476 OFFCURVE",
"291 476 CURVE SMOOTH",
"253 476 OFFCURVE",
"212 461 OFFCURVE",
"187 431 CURVE SMOOTH",
"172 411 OFFCURVE",
"162 387 OFFCURVE",
"155 362 CURVE SMOOTH",
"148 338 OFFCURVE",
"144 312 OFFCURVE",
"142 288 CURVE",
"142 285 OFFCURVE",
"142 283 OFFCURVE",
"142 280 CURVE SMOOTH",
"143 278 OFFCURVE",
"143 275 OFFCURVE",
"143 273 CURVE SMOOTH",
"143 255 OFFCURVE",
"145 237 OFFCURVE",
"148 221 CURVE SMOOTH",
"152 205 OFFCURVE",
"158 190 OFFCURVE",
"168 178 CURVE",
"181 169 OFFCURVE",
"196 164 OFFCURVE",
"212 162 CURVE SMOOTH",
"228 160 OFFCURVE",
"245 159 OFFCURVE",
"261 159 CURVE SMOOTH",
"297 159 OFFCURVE",
"335 165 OFFCURVE",
"368 178 CURVE",
"386 190 OFFCURVE",
"397 208 OFFCURVE",
"404 228 CURVE SMOOTH",
"412 248 OFFCURVE",
"415 269 OFFCURVE",
"417 289 CURVE"
);
},
{
closed = 1;
nodes = (
"522 59 LINE SMOOTH",
"517 21 OFFCURVE",
"512 -17 OFFCURVE",
"502 -54 CURVE SMOOTH",
"491 -91 OFFCURVE",
"475 -128 OFFCURVE",
"447 -158 CURVE",
"418 -186 OFFCURVE",
"384 -202 OFFCURVE",
"348 -210 CURVE SMOOTH",
"312 -218 OFFCURVE",
"275 -220 OFFCURVE",
"240 -220 CURVE SMOOTH",
"190 -220 OFFCURVE",
"137 -215 OFFCURVE",
"82 -200 CURVE",
"86 -176 OFFCURVE",
"90 -146 OFFCURVE",
"94 -116 CURVE SMOOTH",
"96 -101 OFFCURVE",
"98 -86 OFFCURVE",
"99 -72 CURVE SMOOTH",
"101 -57 OFFCURVE",
"103 -44 OFFCURVE",
"104 -32 CURVE",
"154 -60 OFFCURVE",
"204 -70 OFFCURVE",
"252 -70 CURVE SMOOTH",
"274 -70 OFFCURVE",
"297 -67 OFFCURVE",
"319 -60 CURVE SMOOTH",
"340 -53 OFFCURVE",
"360 -43 OFFCURVE",
"376 -25 CURVE",
"401 1 OFFCURVE",
"420 30 OFFCURVE",
"429 63 CURVE",
"429 67 OFFCURVE",
"430 73 OFFCURVE",
"430 79 CURVE",
"387 33 OFFCURVE",
"330 11 OFFCURVE",
"266 11 CURVE SMOOTH",
"238 11 OFFCURVE",
"210 18 OFFCURVE",
"185 30 CURVE SMOOTH",
"160 43 OFFCURVE",
"137 62 OFFCURVE",
"123 84 CURVE SMOOTH",
"91 132 OFFCURVE",
"81 192 OFFCURVE",
"81 250 CURVE SMOOTH",
"81 286 OFFCURVE",
"85 329 OFFCURVE",
"95 371 CURVE SMOOTH",
"105 412 OFFCURVE",
"123 452 OFFCURVE",
"151 484 CURVE SMOOTH",
"171 507 OFFCURVE",
"196 524 OFFCURVE",
"224 536 CURVE SMOOTH",
"251 547 OFFCURVE",
"281 553 OFFCURVE",
"309 553 CURVE SMOOTH",
"324 553 LINE SMOOTH",
"355 553 OFFCURVE",
"385 545 OFFCURVE",
"412 531 CURVE SMOOTH",
"438 517 OFFCURVE",
"461 497 OFFCURVE",
"477 473 CURVE",
"478 476 OFFCURVE",
"479 480 OFFCURVE",
"480 483 CURVE",
"481 487 OFFCURVE",
"482 490 OFFCURVE",
"483 493 CURVE",
"496 547 LINE",
"529 549 LINE",
"528 549 LINE",
"596 558 LINE",
"562 390 OFFCURVE",
"540 231 OFFCURVE",
"524 77 CURVE SMOOTH"
);
}
);
width = 648;
}
);
unicode = 0067;
},
{
glyphname = h;
lastChange = "2015-11-24 04:11:55 +0000";
layers = (
{
anchors = (
{
name = bottom;
position = "{337, -4}";
},
{
name = center;
position = "{302, 277}";
},
{
name = top;
position = "{302, 554}";
}
);
layerId = "013FA67F-D7C9-4F04-AAC6-32032829ED9A";
name = "Bold Italic";
paths = (
{
closed = 1;
nodes = (
"576 266 OFFCURVE",
"574 197 OFFCURVE",
"574 129 CURVE SMOOTH",
"574 120 OFFCURVE",
"574 109 OFFCURVE",
"575 99 CURVE",
"575 88 OFFCURVE",
"575 77 OFFCURVE",
"575 66 CURVE",
"575 44 OFFCURVE",
"576 22 OFFCURVE",
"577 4 CURVE",
"561 6 OFFCURVE",
"539 8 OFFCURVE",
"518 10 CURVE SMOOTH",
"507 11 OFFCURVE",
"497 12 OFFCURVE",
"487 13 CURVE SMOOTH",
"476 14 OFFCURVE",
"467 15 OFFCURVE",
"459 16 CURVE",
"465 119 OFFCURVE",
"476 231 OFFCURVE",
"486 335 CURVE",
"488 345 OFFCURVE",
"488 356 OFFCURVE",
"488 366 CURVE SMOOTH",
"488 392 OFFCURVE",
"484 419 OFFCURVE",
"474 441 CURVE",
"456 471 OFFCURVE",
"424 485 OFFCURVE",
"392 485 CURVE SMOOTH",
"354 485 OFFCURVE",
"313 469 OFFCURVE",
"286 439 CURVE SMOOTH",
"257 405 OFFCURVE",
"241 359 OFFCURVE",
"237 315 CURVE SMOOTH",
"236 301 OFFCURVE",
"235 287 OFFCURVE",
"234 273 CURVE SMOOTH",
"233 259 OFFCURVE",
"232 245 OFFCURVE",
"231 230 CURVE SMOOTH",
"226 161 OFFCURVE",
"220 85 OFFCURVE",
"212 15 CURVE",
"204 15 OFFCURVE",
"195 14 OFFCURVE",
"185 13 CURVE SMOOTH",
"174 12 OFFCURVE",
"163 11 OFFCURVE",
"153 10 CURVE SMOOTH",
"131 8 OFFCURVE",
"109 5 OFFCURVE",
"92 3 CURVE",
"142 259 OFFCURVE",
"169 510 OFFCURVE",
"179 764 CURVE",
"185 763 OFFCURVE",
"193 762 OFFCURVE",
"202 762 CURVE",
"210 761 OFFCURVE",
"219 760 OFFCURVE",
"228 759 CURVE SMOOTH",
"246 757 OFFCURVE",
"264 755 OFFCURVE",
"278 754 CURVE",
"274 705 OFFCURVE",
"270 661 OFFCURVE",
"267 618 CURVE SMOOTH",
"263 574 OFFCURVE",
"258 531 OFFCURVE",
"252 481 CURVE",
"294 529 OFFCURVE",
"350 560 OFFCURVE",
"412 560 CURVE SMOOTH",
"425 560 LINE SMOOTH",
"451 560 OFFCURVE",
"478 556 OFFCURVE",
"502 545 CURVE SMOOTH",
"525 534 OFFCURVE",
"545 517 OFFCURVE",
"557 493 CURVE SMOOTH",
"577 453 OFFCURVE",
"582 413 OFFCURVE",
"582 375 CURVE SMOOTH",
"582 362 OFFCURVE",
"581 349 OFFCURVE",
"580 336 CURVE SMOOTH"
);
}
);
width = 710;
}
);
unicode = 0068;
},
{
glyphname = i;
lastChange = "2015-11-24 04:11:55 +0000";
layers = (
{
anchors = (
{
name = bottom;
position = "{163, -14}";
}
);
layerId = "013FA67F-D7C9-4F04-AAC6-32032829ED9A";
name = "Bold Italic";
paths = (
{
closed = 1;
nodes = (
"173 552 LINE",
"182 549 OFFCURVE",
"191 547 OFFCURVE",
"200 547 CURVE SMOOTH",
"212 547 OFFCURVE",
"227 551 OFFCURVE",
"246 556 CURVE",
"238 468 OFFCURVE",
"231 372 OFFCURVE",
"224 276 CURVE SMOOTH",
"217 179 OFFCURVE",
"210 82 OFFCURVE",
"204 -6 CURVE",
"186 10 OFFCURVE",
"170 19 OFFCURVE",
"158 19 CURVE SMOOTH",
"145 19 OFFCURVE",
"127 11 OFFCURVE",
"104 -7 CURVE",
"114 81 OFFCURVE",
"124 175 OFFCURVE",
"133 269 CURVE SMOOTH",
"143 362 OFFCURVE",
"152 456 OFFCURVE",
"160 544 CURVE"
);
},
{
closed = 1;
nodes = (
"192 759 LINE",
"200 754 OFFCURVE",
"208 751 OFFCURVE",
"219 751 CURVE SMOOTH",
"230 751 OFFCURVE",
"246 758 OFFCURVE",
"267 772 CURVE",
"266 765 OFFCURVE",
"265 754 OFFCURVE",
"265 742 CURVE",
"264 736 OFFCURVE",
"264 731 OFFCURVE",
"264 725 CURVE SMOOTH",
"263 720 OFFCURVE",
"263 716 OFFCURVE",
"263 712 CURVE",
"263 702 OFFCURVE",
"262 691 OFFCURVE",
"261 679 CURVE SMOOTH",
"261 667 OFFCURVE",
"260 656 OFFCURVE",
"259 645 CURVE",
"243 637 OFFCURVE",
"226 631 OFFCURVE",
"210 631 CURVE SMOOTH",
"194 631 OFFCURVE",
"179 636 OFFCURVE",
"164 648 CURVE",
"170 703 LINE",
"176 753 LINE"
);
}
);
width = 339;
}
);
unicode = 0069;
},
{
glyphname = j;
lastChange = "2015-11-24 04:11:55 +0000";
layers = (
{
layerId = "013FA67F-D7C9-4F04-AAC6-32032829ED9A";
name = "Bold Italic";
paths = (
{
closed = 1;
nodes = (
"209 541 LINE",
"233 541 OFFCURVE",
"262 544 OFFCURVE",
"292 548 CURVE",
"268 369 OFFCURVE",
"245 182 OFFCURVE",
"225 2 CURVE SMOOTH",
"223 -22 OFFCURVE",
"220 -48 OFFCURVE",
"212 -72 CURVE SMOOTH",
"204 -97 OFFCURVE",
"193 -120 OFFCURVE",
"173 -139 CURVE",
"155 -155 OFFCURVE",
"136 -165 OFFCURVE",
"116 -172 CURVE SMOOTH",
"95 -180 OFFCURVE",
"74 -184 OFFCURVE",
"54 -188 CURVE SMOOTH",
"49 -189 OFFCURVE",
"44 -190 OFFCURVE",
"40 -190 CURVE",
"30 -192 OFFCURVE",
"20 -194 OFFCURVE",
"6 -198 CURVE SMOOTH",
"-1 -200 OFFCURVE",
"-9 -203 OFFCURVE",
"-17 -206 CURVE",
"-9 -148 LINE SMOOTH",
"-5 -121 OFFCURVE",
"0 -86 OFFCURVE",
"4 -59 CURVE",
"33 -53 LINE",
"61 -48 OFFCURVE",
"90 -42 OFFCURVE",
"110 -24 CURVE",
"118 -14 OFFCURVE",
"124 1 OFFCURVE",
"128 16 CURVE SMOOTH",
"132 30 OFFCURVE",
"134 46 OFFCURVE",
"136 60 CURVE",
"136 61 OFFCURVE",
"136 62 OFFCURVE",
"136 63 CURVE",
"137 64 OFFCURVE",
"137 65 OFFCURVE",
"137 66 CURVE",
"141 97 OFFCURVE",
"145 129 OFFCURVE",
"150 160 CURVE SMOOTH",
"154 192 OFFCURVE",
"158 223 OFFCURVE",
"162 255 CURVE SMOOTH",
"169 302 OFFCURVE",
"175 348 OFFCURVE",
"181 394 CURVE SMOOTH",
"187 440 OFFCURVE",
"193 486 OFFCURVE",
"200 533 CURVE"
);
},
{
closed = 1;
nodes = (
"249 749 LINE",
"273 753 OFFCURVE",
"300 758 OFFCURVE",
"332 768 CURVE",
"331 763 OFFCURVE",
"331 756 OFFCURVE",
"330 749 CURVE SMOOTH",
"330 742 OFFCURVE",
"329 735 OFFCURVE",
"328 727 CURVE SMOOTH",
"327 712 OFFCURVE",
"326 697 OFFCURVE",
"325 686 CURVE",
"325 680 OFFCURVE",
"324 673 OFFCURVE",
"324 665 CURVE SMOOTH",
"323 657 OFFCURVE",
"323 650 OFFCURVE",
"322 645 CURVE",
"290 636 OFFCURVE",
"257 632 OFFCURVE",
"223 628 CURVE",
"227 652 LINE SMOOTH",
"229 667 OFFCURVE",
"232 682 OFFCURVE",
"234 697 CURVE SMOOTH",
"236 711 OFFCURVE",
"238 726 OFFCURVE",
"240 741 CURVE"
);
}
);
width = 362;
}
);
unicode = 006A;
},
{
glyphname = k;
lastChange = "2015-11-24 04:11:55 +0000";
layers = (
{
anchors = (
{
name = bottom;
position = "{294, 0}";
}
);
layerId = "013FA67F-D7C9-4F04-AAC6-32032829ED9A";
name = "Bold Italic";
paths = (
{
closed = 1;
nodes = (
"188 763 LINE",
"214 759 OFFCURVE",
"249 756 OFFCURVE",
"276 755 CURVE",
"272 685 OFFCURVE",
"269 619 OFFCURVE",
"264 554 CURVE SMOOTH",
"259 488 OFFCURVE",
"253 423 OFFCURVE",
"245 353 CURVE",
"275 385 OFFCURVE",
"305 418 OFFCURVE",
"336 451 CURVE SMOOTH",
"366 483 OFFCURVE",
"396 516 OFFCURVE",
"427 548 CURVE",
"443 548 OFFCURVE",
"465 548 OFFCURVE",
"488 549 CURVE SMOOTH",
"499 549 OFFCURVE",
"510 549 OFFCURVE",
"521 550 CURVE",
"531 550 OFFCURVE",
"541 550 OFFCURVE",
"549 550 CURVE",
"525 524 OFFCURVE",
"498 493 OFFCURVE",
"471 462 CURVE SMOOTH",
"457 447 OFFCURVE",
"444 432 OFFCURVE",
"431 417 CURVE SMOOTH",
"417 401 OFFCURVE",
"405 387 OFFCURVE",
"393 374 CURVE SMOOTH",
"328 300 LINE",
"346 282 LINE SMOOTH",
"387 238 OFFCURVE",
"432 190 OFFCURVE",
"477 142 CURVE SMOOTH",
"522 94 OFFCURVE",
"566 45 OFFCURVE",
"605 2 CURVE",
"533 11 OFFCURVE",
"468 17 OFFCURVE",
"408 18 CURVE",
"393 39 OFFCURVE",
"378 59 OFFCURVE",
"363 78 CURVE SMOOTH",
"335 116 OFFCURVE",
"307 153 OFFCURVE",
"280 192 CURVE SMOOTH",
"266 211 OFFCURVE",
"251 232 OFFCURVE",
"236 253 CURVE",
"235 225 OFFCURVE",
"233 196 OFFCURVE",
"231 167 CURVE SMOOTH",
"229 138 OFFCURVE",
"227 109 OFFCURVE",
"225 80 CURVE SMOOTH",
"225 71 OFFCURVE",
"224 61 OFFCURVE",
"223 48 CURVE",
"222 36 OFFCURVE",
"221 25 OFFCURVE",
"221 16 CURVE",
"212 15 OFFCURVE",
"202 14 OFFCURVE",
"191 13 CURVE SMOOTH",
"179 12 OFFCURVE",
"168 11 OFFCURVE",
"156 10 CURVE SMOOTH",
"132 8 OFFCURVE",
"109 6 OFFCURVE",
"91 4 CURVE",
"140 257 OFFCURVE",
"169 508 OFFCURVE",
"177 754 CURVE"
);
}
);
width = 739;
}
);
unicode = 006B;
},
{
glyphname = l;
lastChange = "2015-11-24 04:11:55 +0000";
layers = (
{
anchors = (
{
name = bottom;
position = "{150, 0}";
},
{
name = dot;
position = "{249, 429}";
},
{
name = top;
position = "{223, 728}";
},
{
name = topright;
position = "{313, 728}";
}
);
layerId = "013FA67F-D7C9-4F04-AAC6-32032829ED9A";
name = "Bold Italic";
paths = (
{
closed = 1;
nodes = (
"190 760 LINE",
"206 753 OFFCURVE",
"224 751 OFFCURVE",
"244 751 CURVE SMOOTH",
"246 751 OFFCURVE",
"250 751 OFFCURVE",
"253 751 CURVE",
"257 751 OFFCURVE",
"262 752 OFFCURVE",
"270 752 CURVE",
"251 546 OFFCURVE",
"233 342 OFFCURVE",
"216 134 CURVE",
"234 133 OFFCURVE",
"253 128 OFFCURVE",
"273 122 CURVE",
"271 105 OFFCURVE",
"270 83 OFFCURVE",
"268 61 CURVE SMOOTH",
"268 50 OFFCURVE",
"267 39 OFFCURVE",
"266 29 CURVE SMOOTH",
"266 18 OFFCURVE",
"265 9 OFFCURVE",
"265 0 CURVE",
"236 13 OFFCURVE",
"210 19 OFFCURVE",
"186 19 CURVE SMOOTH",
"163 19 OFFCURVE",
"134 12 OFFCURVE",
"100 -1 CURVE",
"132 247 OFFCURVE",
"157 505 OFFCURVE",
"176 753 CURVE"
);
}
);
width = 399;
}
);
unicode = 006C;
},
{
glyphname = m;
lastChange = "2015-11-24 04:11:55 +0000";
layers = (
{
layerId = "013FA67F-D7C9-4F04-AAC6-32032829ED9A";
name = "Bold Italic";
paths = (
{
closed = 1;
nodes = (
"218 470 LINE",
"219 470 LINE",
"219 470 LINE"
);
},
{
closed = 1;
nodes = (
"416 559 OFFCURVE",
"454 552 OFFCURVE",
"486 534 CURVE SMOOTH",
"517 517 OFFCURVE",
"542 490 OFFCURVE",
"553 453 CURVE",
"573 483 OFFCURVE",
"599 510 OFFCURVE",
"631 530 CURVE SMOOTH",
"667 554 OFFCURVE",
"713 562 OFFCURVE",
"753 562 CURVE SMOOTH",
"779 562 OFFCURVE",
"805 555 OFFCURVE",
"827 542 CURVE SMOOTH",
"848 528 OFFCURVE",
"865 508 OFFCURVE",
"873 482 CURVE",
"873 483 LINE",
"881 455 OFFCURVE",
"883 427 OFFCURVE",
"883 401 CURVE SMOOTH",
"883 378 OFFCURVE",
"881 357 OFFCURVE",
"879 335 CURVE SMOOTH",
"874 286 OFFCURVE",
"872 237 OFFCURVE",
"872 188 CURVE SMOOTH",
"872 130 OFFCURVE",
"876 70 OFFCURVE",
"887 5 CURVE",
"878 5 OFFCURVE",
"868 6 OFFCURVE",
"856 6 CURVE SMOOTH",
"845 7 OFFCURVE",
"833 8 OFFCURVE",
"821 8 CURVE SMOOTH",
"809 9 OFFCURVE",
"797 9 OFFCURVE",
"786 10 CURVE SMOOTH",
"774 10 OFFCURVE",
"764 10 OFFCURVE",
"754 11 CURVE",
"754 35 LINE SMOOTH",
"754 139 OFFCURVE",
"769 244 OFFCURVE",
"786 348 CURVE",
"788 363 LINE",
"788 372 OFFCURVE",
"789 380 OFFCURVE",
"790 388 CURVE SMOOTH",
"790 397 OFFCURVE",
"791 405 OFFCURVE",
"791 412 CURVE SMOOTH",
"791 466 OFFCURVE",
"772 489 OFFCURVE",
"730 489 CURVE SMOOTH",
"686 489 OFFCURVE",
"643 474 OFFCURVE",
"614 437 CURVE",
"584 402 OFFCURVE",
"571 357 OFFCURVE",
"568 313 CURVE",
"556 215 OFFCURVE",
"547 113 OFFCURVE",
"541 15 CURVE",
"406 15 LINE",
"429 124 OFFCURVE",
"452 243 OFFCURVE",
"471 351 CURVE",
"471 350 LINE",
"472 360 OFFCURVE",
"473 370 OFFCURVE",
"473 381 CURVE SMOOTH",
"473 407 OFFCURVE",
"469 432 OFFCURVE",
"457 454 CURVE",
"458 453 LINE",
"448 469 OFFCURVE",
"434 479 OFFCURVE",
"419 485 CURVE SMOOTH",
"404 491 OFFCURVE",
"388 493 OFFCURVE",
"372 493 CURVE SMOOTH",
"327 493 OFFCURVE",
"293 468 OFFCURVE",
"269 434 CURVE SMOOTH",
"245 400 OFFCURVE",
"231 355 OFFCURVE",
"229 314 CURVE SMOOTH",
"224 214 OFFCURVE",
"215 114 OFFCURVE",
"193 10 CURVE",
"184 9 OFFCURVE",
"174 9 OFFCURVE",
"163 9 CURVE SMOOTH",
"140 8 OFFCURVE",
"116 7 OFFCURVE",
"94 6 CURVE SMOOTH",
"82 5 OFFCURVE",
"72 5 OFFCURVE",
"63 4 CURVE",
"113 162 OFFCURVE",
"136 319 OFFCURVE",
"136 471 CURVE SMOOTH",
"136 496 OFFCURVE",
"136 530 OFFCURVE",
"134 555 CURVE",
"184 552 LINE",
"233 550 LINE",
"231 531 OFFCURVE",
"229 506 OFFCURVE",
"227 483 CURVE",
"263 531 OFFCURVE",
"320 559 OFFCURVE",
"377 559 CURVE SMOOTH"
);
}
);
width = 1020;
}
);
unicode = 006D;
},
{
glyphname = n;
lastChange = "2015-11-24 04:11:55 +0000";
layers = (
{
anchors = (
{
name = bottom;
position = "{323, 0}";
},
{
name = top;
position = "{323, 554}";
}
);
layerId = "013FA67F-D7C9-4F04-AAC6-32032829ED9A";
name = "Bold Italic";
paths = (
{
closed = 1;
nodes = (
"565 277 OFFCURVE",
"563 219 OFFCURVE",
"563 161 CURVE SMOOTH",
"563 112 OFFCURVE",
"565 60 OFFCURVE",
"570 4 CURVE",
"551 6 OFFCURVE",
"526 8 OFFCURVE",
"502 10 CURVE SMOOTH",
"478 11 OFFCURVE",
"453 13 OFFCURVE",
"433 13 CURVE",
"441 119 OFFCURVE",
"455 232 OFFCURVE",
"471 338 CURVE",
"471 339 OFFCURVE",
"471 341 OFFCURVE",
"471 343 CURVE SMOOTH",
"471 344 OFFCURVE",
"471 346 OFFCURVE",
"472 348 CURVE",
"472 347 LINE",
"473 359 OFFCURVE",
"474 370 OFFCURVE",
"474 381 CURVE SMOOTH",
"474 403 OFFCURVE",
"471 423 OFFCURVE",
"463 442 CURVE",
"463 442 LINE",
"455 456 OFFCURVE",
"444 464 OFFCURVE",
"432 470 CURVE SMOOTH",
"419 476 OFFCURVE",
"405 478 OFFCURVE",
"391 478 CURVE SMOOTH",
"371 478 OFFCURVE",
"348 476 OFFCURVE",
"327 470 CURVE SMOOTH",
"306 463 OFFCURVE",
"286 453 OFFCURVE",
"271 436 CURVE SMOOTH",
"241 404 OFFCURVE",
"230 360 OFFCURVE",
"226 318 CURVE",
"226 318 LINE",
"223 219 OFFCURVE",
"215 113 OFFCURVE",
"205 13 CURVE",
"195 13 OFFCURVE",
"185 12 OFFCURVE",
"173 11 CURVE SMOOTH",
"150 10 OFFCURVE",
"126 8 OFFCURVE",
"102 7 CURVE SMOOTH",
"91 6 OFFCURVE",
"80 5 OFFCURVE",
"71 4 CURVE",
"113 189 OFFCURVE",
"133 374 OFFCURVE",
"135 560 CURVE",
"148 559 OFFCURVE",
"166 557 OFFCURVE",
"184 556 CURVE SMOOTH",
"193 555 OFFCURVE",
"202 554 OFFCURVE",
"210 554 CURVE SMOOTH",
"219 553 OFFCURVE",
"226 553 OFFCURVE",
"233 552 CURVE",
"232 508 LINE SMOOTH",
"232 505 OFFCURVE",
"232 503 OFFCURVE",
"232 503 CURVE",
"231 502 OFFCURVE",
"231 502 OFFCURVE",
"231 501 CURVE",
"231 501 OFFCURVE",
"231 500 OFFCURVE",
"231 499 CURVE SMOOTH",
"231 499 OFFCURVE",
"231 497 OFFCURVE",
"231 494 CURVE",
"288 534 OFFCURVE",
"346 558 OFFCURVE",
"415 558 CURVE SMOOTH",
"441 558 OFFCURVE",
"468 553 OFFCURVE",
"492 543 CURVE SMOOTH",
"515 532 OFFCURVE",
"535 515 OFFCURVE",
"548 491 CURVE",
"566 451 OFFCURVE",
"570 411 OFFCURVE",
"570 372 CURVE SMOOTH",
"570 360 OFFCURVE",
"570 347 OFFCURVE",
"569 335 CURVE SMOOTH"
);
}
);
width = 703;
}
);
unicode = 006E;
},
{
glyphname = o;
lastChange = "2015-11-24 04:11:55 +0000";
layers = (
{
anchors = (
{
name = bottom;
position = "{290, -29}";
},
{
name = horncomb;
position = "{513, 418}";
},
{
name = top;
position = "{342, 554}";
}
);
layerId = "013FA67F-D7C9-4F04-AAC6-32032829ED9A";
name = "Bold Italic";
paths = (
{
closed = 1;
nodes = (
"296 484 OFFCURVE",
"254 468 OFFCURVE",
"228 434 CURVE SMOOTH",
"208 409 OFFCURVE",
"196 379 OFFCURVE",
"188 348 CURVE SMOOTH",
"180 318 OFFCURVE",
"178 285 OFFCURVE",
"178 257 CURVE SMOOTH",
"178 227 OFFCURVE",
"182 199 OFFCURVE",
"205 181 CURVE",
"204 182 LINE",
"234 162 OFFCURVE",
"271 159 OFFCURVE",
"307 159 CURVE SMOOTH",
"343 159 OFFCURVE",
"381 164 OFFCURVE",
"413 182 CURVE",
"412 182 LINE",
"435 198 OFFCURVE",
"447 224 OFFCURVE",
"453 252 CURVE SMOOTH",
"459 280 OFFCURVE",
"460 309 OFFCURVE",
"460 327 CURVE SMOOTH",
"460 365 OFFCURVE",
"454 403 OFFCURVE",
"435 435 CURVE SMOOTH",
"416 467 OFFCURVE",
"377 483 OFFCURVE",
"337 484 CURVE SMOOTH"
);
},
{
closed = 1;
nodes = (
"375 557 OFFCURVE",
"409 553 OFFCURVE",
"439 542 CURVE SMOOTH",
"469 531 OFFCURVE",
"496 513 OFFCURVE",
"516 486 CURVE SMOOTH",
"548 441 OFFCURVE",
"558 387 OFFCURVE",
"558 333 CURVE SMOOTH",
"558 293 OFFCURVE",
"554 246 OFFCURVE",
"542 200 CURVE SMOOTH",
"531 154 OFFCURVE",
"511 109 OFFCURVE",
"480 73 CURVE",
"456 47 OFFCURVE",
"426 29 OFFCURVE",
"393 18 CURVE SMOOTH",
"360 7 OFFCURVE",
"325 2 OFFCURVE",
"292 2 CURVE SMOOTH",
"260 2 OFFCURVE",
"226 6 OFFCURVE",
"196 17 CURVE SMOOTH",
"166 28 OFFCURVE",
"138 46 OFFCURVE",
"120 73 CURVE",
"120 73 LINE",
"87 117 OFFCURVE",
"78 172 OFFCURVE",
"78 228 CURVE SMOOTH",
"78 267 OFFCURVE",
"82 314 OFFCURVE",
"93 360 CURVE SMOOTH",
"105 406 OFFCURVE",
"124 451 OFFCURVE",
"155 487 CURVE",
"180 511 OFFCURVE",
"211 529 OFFCURVE",
"243 540 CURVE SMOOTH",
"276 552 OFFCURVE",
"310 557 OFFCURVE",
"342 557 CURVE SMOOTH"
);
}
);
width = 634;
}
);
unicode = 006F;
},
{
glyphname = p;
lastChange = "2015-11-24 04:11:55 +0000";
layers = (
{
layerId = "013FA67F-D7C9-4F04-AAC6-32032829ED9A";
name = "Bold Italic";
paths = (
{
closed = 1;
nodes = (
"334 -2 LINE SMOOTH",
"305 -2 OFFCURVE",
"276 5 OFFCURVE",
"250 17 CURVE SMOOTH",
"225 30 OFFCURVE",
"203 49 OFFCURVE",
"189 75 CURVE",
"178 -13 OFFCURVE",
"162 -105 OFFCURVE",
"148 -192 CURVE",
"141 -193 OFFCURVE",
"133 -194 OFFCURVE",
"124 -194 CURVE",
"116 -195 OFFCURVE",
"107 -196 OFFCURVE",
"98 -197 CURVE",
"88 -198 OFFCURVE",
"79 -199 OFFCURVE",
"71 -200 CURVE SMOOTH",
"62 -201 OFFCURVE",
"54 -202 OFFCURVE",
"47 -202 CURVE",
"97 52 OFFCURVE",
"124 302 OFFCURVE",
"134 554 CURVE",
"148 552 OFFCURVE",
"165 551 OFFCURVE",
"183 549 CURVE SMOOTH",
"201 547 OFFCURVE",
"219 546 OFFCURVE",
"232 545 CURVE",
"225 496 LINE",
"222 481 LINE",
"242 506 OFFCURVE",
"267 524 OFFCURVE",
"296 536 CURVE SMOOTH",
"324 548 OFFCURVE",
"354 554 OFFCURVE",
"384 554 CURVE SMOOTH",
"398 554 LINE SMOOTH",
"426 554 OFFCURVE",
"454 546 OFFCURVE",
"480 534 CURVE SMOOTH",
"505 521 OFFCURVE",
"528 503 OFFCURVE",
"544 482 CURVE",
"571 440 OFFCURVE",
"582 387 OFFCURVE",
"582 336 CURVE SMOOTH",
"582 294 OFFCURVE",
"577 246 OFFCURVE",
"565 200 CURVE SMOOTH",
"553 154 OFFCURVE",
"533 110 OFFCURVE",
"502 73 CURVE",
"502 73 LINE",
"483 49 OFFCURVE",
"459 31 OFFCURVE",
"432 18 CURVE SMOOTH",
"406 5 OFFCURVE",
"376 -2 OFFCURVE",
"347 -2 CURVE SMOOTH"
);
},
{
closed = 1;
nodes = (
"517 294 LINE",
"518 310 OFFCURVE",
"519 324 OFFCURVE",
"519 339 CURVE SMOOTH",
"519 378 OFFCURVE",
"511 415 OFFCURVE",
"492 442 CURVE SMOOTH",
"474 470 OFFCURVE",
"445 487 OFFCURVE",
"405 487 CURVE SMOOTH",
"361 487 OFFCURVE",
"318 471 OFFCURVE",
"290 435 CURVE SMOOTH",
"270 410 OFFCURVE",
"257 380 OFFCURVE",
"250 349 CURVE SMOOTH",
"243 318 OFFCURVE",
"241 286 OFFCURVE",
"241 257 CURVE SMOOTH",
"241 225 OFFCURVE",
"246 193 OFFCURVE",
"270 174 CURVE",
"270 174 LINE",
"299 155 OFFCURVE",
"334 148 OFFCURVE",
"370 148 CURVE SMOOTH",
"405 148 OFFCURVE",
"441 154 OFFCURVE",
"471 174 CURVE",
"470 174 LINE",
"486 187 OFFCURVE",
"497 205 OFFCURVE",
"503 225 CURVE SMOOTH",
"510 245 OFFCURVE",
"513 266 OFFCURVE",
"516 286 CURVE",
"516 287 OFFCURVE",
"516 288 OFFCURVE",
"516 290 CURVE",
"517 291 OFFCURVE",
"517 292 OFFCURVE",
"517 293 CURVE SMOOTH"
);
}
);
width = 657;
}
);
unicode = 0070;
},
{
glyphname = q;
lastChange = "2015-11-24 04:11:55 +0000";
layers = (
{
layerId = "013FA67F-D7C9-4F04-AAC6-32032829ED9A";
name = "Bold Italic";
paths = (
{
closed = 1;
nodes = (
"147 288 OFFCURVE",
"147 286 OFFCURVE",
"147 284 CURVE",
"146 282 OFFCURVE",
"146 280 OFFCURVE",
"146 279 CURVE",
"146 271 OFFCURVE",
"145 263 OFFCURVE",
"145 255 CURVE SMOOTH",
"145 223 OFFCURVE",
"150 192 OFFCURVE",
"172 173 CURVE",
"171 173 LINE",
"198 154 OFFCURVE",
"234 150 OFFCURVE",
"269 150 CURVE SMOOTH",
"305 150 OFFCURVE",
"342 156 OFFCURVE",
"374 174 CURVE",
"373 174 LINE",
"397 190 OFFCURVE",
"410 220 OFFCURVE",
"417 250 CURVE SMOOTH",
"423 279 OFFCURVE",
"424 310 OFFCURVE",
"424 330 CURVE SMOOTH",
"424 368 OFFCURVE",
"418 403 OFFCURVE",
"400 434 CURVE SMOOTH",
"378 470 OFFCURVE",
"337 484 OFFCURVE",
"293 484 CURVE SMOOTH",
"275 484 OFFCURVE",
"256 479 OFFCURVE",
"238 471 CURVE SMOOTH",
"221 463 OFFCURVE",
"205 451 OFFCURVE",
"193 435 CURVE SMOOTH",
"177 414 OFFCURVE",
"166 390 OFFCURVE",
"159 365 CURVE SMOOTH",
"152 341 OFFCURVE",
"149 315 OFFCURVE",
"147 289 CURVE"
);
},
{
closed = 1;
nodes = (
"417 -105 OFFCURVE",
"423 -13 OFFCURVE",
"432 74 CURVE",
"414 50 OFFCURVE",
"390 31 OFFCURVE",
"363 18 CURVE SMOOTH",
"336 5 OFFCURVE",
"306 -2 OFFCURVE",
"278 -2 CURVE SMOOTH",
"264 -2 LINE SMOOTH",
"206 -2 OFFCURVE",
"151 25 OFFCURVE",
"121 73 CURVE SMOOTH",
"89 123 OFFCURVE",
"80 182 OFFCURVE",
"80 242 CURVE SMOOTH",
"80 280 OFFCURVE",
"84 324 OFFCURVE",
"95 366 CURVE SMOOTH",
"106 408 OFFCURVE",
"123 448 OFFCURVE",
"151 482 CURVE SMOOTH",
"191 528 OFFCURVE",
"250 554 OFFCURVE",
"307 554 CURVE SMOOTH",
"324 554 LINE SMOOTH",
"354 554 OFFCURVE",
"384 545 OFFCURVE",
"410 531 CURVE SMOOTH",
"437 517 OFFCURVE",
"460 496 OFFCURVE",
"476 473 CURVE",
"487 518 LINE",
"495 547 LINE",
"509 548 OFFCURVE",
"527 550 OFFCURVE",
"545 552 CURVE SMOOTH",
"554 553 OFFCURVE",
"563 554 OFFCURVE",
"572 555 CURVE",
"580 555 OFFCURVE",
"588 556 OFFCURVE",
"595 557 CURVE",
"545 303 OFFCURVE",
"516 52 OFFCURVE",
"509 -199 CURVE",
"509 -199 OFFCURVE",
"508 -199 OFFCURVE",
"507 -199 CURVE SMOOTH",
"505 -199 OFFCURVE",
"503 -199 OFFCURVE",
"502 -198 CURVE",
"500 -198 OFFCURVE",
"499 -198 OFFCURVE",
"497 -198 CURVE SMOOTH",
"496 -198 OFFCURVE",
"495 -198 OFFCURVE",
"494 -198 CURVE",
"470 -195 OFFCURVE",
"437 -192 OFFCURVE",
"411 -191 CURVE"
);
}
);
width = 685;
}
);
unicode = 0071;
},
{
glyphname = r;
lastChange = "2015-11-24 04:11:55 +0000";
layers = (
{
anchors = (
{
name = bottom;
position = "{180, 0}";
},
{
name = top;
position = "{180, 554}";
}
);
layerId = "013FA67F-D7C9-4F04-AAC6-32032829ED9A";
name = "Bold Italic";
paths = (
{
closed = 1;
nodes = (
"404 456 LINE",
"395 460 OFFCURVE",
"386 461 OFFCURVE",
"376 461 CURVE SMOOTH",
"353 461 OFFCURVE",
"327 459 OFFCURVE",
"303 451 CURVE SMOOTH",
"279 443 OFFCURVE",
"258 431 OFFCURVE",
"242 409 CURVE SMOOTH",
"215 371 OFFCURVE",
"205 323 OFFCURVE",
"201 279 CURVE",
"201 279 LINE",
"196 193 OFFCURVE",
"192 101 OFFCURVE",
"184 15 CURVE",
"146 13 OFFCURVE",
"104 9 OFFCURVE",
"58 3 CURVE",
"96 189 OFFCURVE",
"119 369 OFFCURVE",
"133 548 CURVE",
"152 546 OFFCURVE",
"179 544 OFFCURVE",
"198 543 CURVE",
"200 543 OFFCURVE",
"204 543 OFFCURVE",
"209 542 CURVE SMOOTH",
"215 542 OFFCURVE",
"218 542 OFFCURVE",
"220 542 CURVE",
"217 492 LINE",
"227 498 OFFCURVE",
"237 503 OFFCURVE",
"247 508 CURVE SMOOTH",
"270 521 LINE SMOOTH",
"290 533 OFFCURVE",
"313 542 OFFCURVE",
"337 547 CURVE SMOOTH",
"360 553 OFFCURVE",
"383 555 OFFCURVE",
"405 555 CURVE SMOOTH",
"430 555 LINE",
"428 542 OFFCURVE",
"426 527 OFFCURVE",
"423 510 CURVE SMOOTH",
"421 493 OFFCURVE",
"418 478 OFFCURVE",
"417 464 CURVE"
);
}
);
width = 452;
}
);
unicode = 0072;
},
{
glyphname = s;
lastChange = "2015-11-24 04:11:55 +0000";
layers = (
{
anchors = (
{
name = bottom;
position = "{274, 0}";
},
{
name = top;
position = "{348, 554}";
}
);
layerId = "013FA67F-D7C9-4F04-AAC6-32032829ED9A";
name = "Bold Italic";
paths = (
{
closed = 1;
nodes = (
"495 534 LINE",
"489 503 LINE",
"488 496 OFFCURVE",
"486 486 OFFCURVE",
"485 477 CURVE",
"484 472 OFFCURVE",
"483 467 OFFCURVE",
"483 463 CURVE",
"482 458 OFFCURVE",
"481 454 OFFCURVE",
"481 451 CURVE",
"424 477 OFFCURVE",
"370 484 OFFCURVE",
"316 484 CURVE SMOOTH",
"289 484 OFFCURVE",
"258 480 OFFCURVE",
"233 467 CURVE SMOOTH",
"209 455 OFFCURVE",
"191 433 OFFCURVE",
"191 401 CURVE SMOOTH",
"191 372 OFFCURVE",
"210 354 OFFCURVE",
"236 342 CURVE SMOOTH",
"262 330 OFFCURVE",
"293 324 OFFCURVE",
"315 320 CURVE",
"324 317 LINE SMOOTH",
"346 312 OFFCURVE",
"369 306 OFFCURVE",
"390 298 CURVE SMOOTH",
"411 289 OFFCURVE",
"431 278 OFFCURVE",
"448 262 CURVE SMOOTH",
"472 239 OFFCURVE",
"481 203 OFFCURVE",
"481 171 CURVE SMOOTH",
"481 146 OFFCURVE",
"476 120 OFFCURVE",
"466 98 CURVE SMOOTH",
"456 75 OFFCURVE",
"440 54 OFFCURVE",
"416 40 CURVE SMOOTH",
"390 23 OFFCURVE",
"361 14 OFFCURVE",
"331 8 CURVE SMOOTH",
"301 3 OFFCURVE",
"270 2 OFFCURVE",
"242 2 CURVE SMOOTH",
"183 2 OFFCURVE",
"121 11 OFFCURVE",
"60 26 CURVE",
"63 46 OFFCURVE",
"67 72 OFFCURVE",
"71 97 CURVE SMOOTH",
"74 122 OFFCURVE",
"78 147 OFFCURVE",
"80 167 CURVE",
"136 137 OFFCURVE",
"194 121 OFFCURVE",
"251 121 CURVE SMOOTH",
"262 121 LINE",
"265 120 OFFCURVE",
"267 120 OFFCURVE",
"269 120 CURVE SMOOTH",
"270 120 OFFCURVE",
"272 120 OFFCURVE",
"274 120 CURVE SMOOTH",
"295 120 OFFCURVE",
"320 124 OFFCURVE",
"340 134 CURVE SMOOTH",
"360 144 OFFCURVE",
"382 158 OFFCURVE",
"377 183 CURVE SMOOTH",
"373 200 OFFCURVE",
"365 212 OFFCURVE",
"357 220 CURVE",
"345 230 OFFCURVE",
"328 236 OFFCURVE",
"312 241 CURVE SMOOTH",
"295 246 OFFCURVE",
"278 250 OFFCURVE",
"263 253 CURVE SMOOTH",
"244 258 LINE SMOOTH",
"224 262 OFFCURVE",
"205 267 OFFCURVE",
"186 275 CURVE SMOOTH",
"167 283 OFFCURVE",
"148 292 OFFCURVE",
"133 306 CURVE SMOOTH",
"111 328 OFFCURVE",
"104 363 OFFCURVE",
"104 395 CURVE SMOOTH",
"104 422 OFFCURVE",
"110 451 OFFCURVE",
"123 476 CURVE SMOOTH",
"136 501 OFFCURVE",
"156 522 OFFCURVE",
"186 534 CURVE SMOOTH",
"234 553 OFFCURVE",
"276 557 OFFCURVE",
"319 557 CURVE SMOOTH",
"377 557 OFFCURVE",
"434 554 OFFCURVE",
"489 536 CURVE"
);
}
);
width = 583;
}
);
unicode = 0073;
},
{
glyphname = t;
lastChange = "2015-11-24 04:11:55 +0000";
layers = (
{
anchors = (
{
name = bottom;
position = "{306, 0}";
},
{
name = center;
position = "{306, 277}";
},
{
name = top;
position = "{278, 653}";
}
);
layerId = "013FA67F-D7C9-4F04-AAC6-32032829ED9A";
name = "Bold Italic";
paths = (
{
closed = 1;
nodes = (
"311 665 LINE",
"310 654 OFFCURVE",
"309 643 OFFCURVE",
"308 632 CURVE",
"306 620 OFFCURVE",
"305 609 OFFCURVE",
"303 598 CURVE",
"303 598 LINE",
"297 546 LINE",
"306 546 LINE SMOOTH",
"322 546 OFFCURVE",
"342 547 OFFCURVE",
"361 548 CURVE SMOOTH",
"371 548 OFFCURVE",
"381 548 OFFCURVE",
"390 549 CURVE SMOOTH",
"400 549 OFFCURVE",
"409 550 OFFCURVE",
"417 550 CURVE",
"414 516 LINE",
"413 504 OFFCURVE",
"410 484 OFFCURVE",
"408 473 CURVE",
"376 471 OFFCURVE",
"335 470 OFFCURVE",
"302 470 CURVE SMOOTH",
"290 470 LINE",
"288 448 OFFCURVE",
"285 424 OFFCURVE",
"283 402 CURVE SMOOTH",
"280 376 OFFCURVE",
"277 351 OFFCURVE",
"275 325 CURVE SMOOTH",
"272 300 OFFCURVE",
"269 274 OFFCURVE",
"267 248 CURVE",
"267 246 OFFCURVE",
"267 244 OFFCURVE",
"267 243 CURVE",
"266 241 OFFCURVE",
"266 239 OFFCURVE",
"266 238 CURVE",
"266 230 OFFCURVE",
"265 223 OFFCURVE",
"265 215 CURVE SMOOTH",
"265 199 OFFCURVE",
"266 182 OFFCURVE",
"276 170 CURVE",
"275 172 LINE",
"290 156 OFFCURVE",
"317 155 OFFCURVE",
"341 154 CURVE SMOOTH",
"369 152 OFFCURVE",
"405 150 OFFCURVE",
"433 146 CURVE",
"432 136 OFFCURVE",
"432 125 OFFCURVE",
"431 112 CURVE SMOOTH",
"431 100 OFFCURVE",
"431 87 OFFCURVE",
"430 75 CURVE SMOOTH",
"429 49 OFFCURVE",
"428 24 OFFCURVE",
"428 3 CURVE",
"416 5 OFFCURVE",
"402 7 OFFCURVE",
"387 9 CURVE",
"380 10 OFFCURVE",
"373 11 OFFCURVE",
"365 12 CURVE",
"358 12 OFFCURVE",
"351 13 OFFCURVE",
"345 14 CURVE SMOOTH",
"332 15 LINE",
"315 17 LINE SMOOTH",
"294 19 OFFCURVE",
"271 20 OFFCURVE",
"249 26 CURVE SMOOTH",
"227 31 OFFCURVE",
"206 40 OFFCURVE",
"190 54 CURVE",
"164 79 OFFCURVE",
"159 113 OFFCURVE",
"159 147 CURVE SMOOTH",
"159 163 OFFCURVE",
"160 179 OFFCURVE",
"161 193 CURVE SMOOTH",
"164 217 OFFCURVE",
"167 240 OFFCURVE",
"169 264 CURVE SMOOTH",
"175 310 OFFCURVE",
"180 355 OFFCURVE",
"184 402 CURVE SMOOTH",
"187 425 OFFCURVE",
"189 448 OFFCURVE",
"191 472 CURVE",
"171 474 OFFCURVE",
"147 475 OFFCURVE",
"130 477 CURVE",
"131 483 OFFCURVE",
"131 491 OFFCURVE",
"131 500 CURVE SMOOTH",
"132 509 OFFCURVE",
"132 516 OFFCURVE",
"133 522 CURVE",
"133 522 LINE",
"135 556 LINE",
"157 553 LINE SMOOTH",
"165 552 OFFCURVE",
"171 551 OFFCURVE",
"176 551 CURVE SMOOTH",
"181 550 OFFCURVE",
"188 549 OFFCURVE",
"196 549 CURVE",
"198 570 OFFCURVE",
"200 592 OFFCURVE",
"203 615 CURVE SMOOTH",
"205 638 OFFCURVE",
"207 660 OFFCURVE",
"209 680 CURVE",
"245 677 OFFCURVE",
"274 676 OFFCURVE",
"302 676 CURVE"
);
}
);
width = 561;
}
);
unicode = 0074;
},
{
glyphname = u;
lastChange = "2015-11-24 04:11:55 +0000";
layers = (
{
anchors = (
{
name = bottom;
position = "{283, -17}";
},
{
name = horncomb;
position = "{559, 446}";
},
{
name = ogonek;
position = "{589, 0}";
},
{
name = top;
position = "{364, 554}";
}
);
layerId = "013FA67F-D7C9-4F04-AAC6-32032829ED9A";
name = "Bold Italic";
paths = (
{
closed = 1;
nodes = (
"130 318 OFFCURVE",
"135 409 OFFCURVE",
"135 503 CURVE SMOOTH",
"135 506 OFFCURVE",
"135 510 OFFCURVE",
"135 514 CURVE",
"135 517 OFFCURVE",
"135 521 OFFCURVE",
"135 524 CURVE SMOOTH",
"135 557 LINE",
"138 557 OFFCURVE",
"141 557 OFFCURVE",
"145 556 CURVE SMOOTH",
"149 556 OFFCURVE",
"153 555 OFFCURVE",
"158 555 CURVE SMOOTH",
"162 554 OFFCURVE",
"166 554 OFFCURVE",
"171 553 CURVE SMOOTH",
"175 553 OFFCURVE",
"178 552 OFFCURVE",
"181 552 CURVE",
"218 549 LINE",
"216 469 OFFCURVE",
"212 382 OFFCURVE",
"206 302 CURVE",
"206 295 LINE SMOOTH",
"206 293 OFFCURVE",
"206 292 OFFCURVE",
"206 290 CURVE",
"206 289 OFFCURVE",
"206 287 OFFCURVE",
"206 286 CURVE SMOOTH",
"206 256 OFFCURVE",
"209 225 OFFCURVE",
"222 199 CURVE",
"221 200 LINE",
"238 170 OFFCURVE",
"267 160 OFFCURVE",
"295 160 CURVE SMOOTH",
"335 160 OFFCURVE",
"375 170 OFFCURVE",
"405 202 CURVE",
"405 202 LINE",
"435 235 OFFCURVE",
"449 278 OFFCURVE",
"456 321 CURVE",
"456 320 LINE",
"464 394 OFFCURVE",
"477 475 OFFCURVE",
"489 548 CURVE",
"505 549 OFFCURVE",
"526 550 OFFCURVE",
"547 552 CURVE SMOOTH",
"568 554 OFFCURVE",
"589 555 OFFCURVE",
"605 557 CURVE",
"565 372 OFFCURVE",
"544 189 OFFCURVE",
"544 5 CURVE",
"537 6 OFFCURVE",
"530 6 OFFCURVE",
"521 7 CURVE SMOOTH",
"504 8 OFFCURVE",
"486 10 OFFCURVE",
"468 11 CURVE SMOOTH",
"460 11 OFFCURVE",
"452 11 OFFCURVE",
"446 12 CURVE",
"447 32 OFFCURVE",
"449 59 OFFCURVE",
"451 80 CURVE",
"409 32 OFFCURVE",
"349 1 OFFCURVE",
"287 1 CURVE SMOOTH",
"274 1 LINE SMOOTH",
"246 1 OFFCURVE",
"219 5 OFFCURVE",
"195 16 CURVE SMOOTH",
"171 26 OFFCURVE",
"150 43 OFFCURVE",
"137 67 CURVE",
"122 103 OFFCURVE",
"117 138 OFFCURVE",
"117 173 CURVE SMOOTH",
"117 191 OFFCURVE",
"118 208 OFFCURVE",
"120 224 CURVE SMOOTH"
);
}
);
width = 677;
}
);
unicode = 0075;
},
{
glyphname = v;
lastChange = "2015-11-24 04:11:55 +0000";
layers = (
{
layerId = "013FA67F-D7C9-4F04-AAC6-32032829ED9A";
name = "Bold Italic";
paths = (
{
closed = 1;
nodes = (
"170 553 LINE SMOOTH",
"192 551 OFFCURVE",
"217 549 OFFCURVE",
"238 548 CURVE",
"282 443 OFFCURVE",
"320 329 OFFCURVE",
"356 220 CURVE SMOOTH",
"358 216 OFFCURVE",
"359 212 OFFCURVE",
"360 208 CURVE",
"361 205 OFFCURVE",
"362 202 OFFCURVE",
"363 198 CURVE SMOOTH",
"365 191 OFFCURVE",
"368 184 OFFCURVE",
"372 173 CURVE",
"401 230 LINE SMOOTH",
"454 337 OFFCURVE",
"510 446 OFFCURVE",
"571 548 CURVE",
"578 549 OFFCURVE",
"587 549 OFFCURVE",
"596 550 CURVE",
"606 551 OFFCURVE",
"615 552 OFFCURVE",
"625 552 CURVE SMOOTH",
"645 554 OFFCURVE",
"665 555 OFFCURVE",
"679 557 CURVE",
"635 479 OFFCURVE",
"597 403 OFFCURVE",
"563 328 CURVE SMOOTH",
"528 254 OFFCURVE",
"497 180 OFFCURVE",
"466 106 CURVE SMOOTH",
"428 15 LINE",
"419 15 OFFCURVE",
"409 15 OFFCURVE",
"398 15 CURVE SMOOTH",
"387 15 OFFCURVE",
"377 15 OFFCURVE",
"369 15 CURVE SMOOTH",
"334 15 LINE SMOOTH",
"327 15 OFFCURVE",
"320 15 OFFCURVE",
"312 15 CURVE",
"303 15 OFFCURVE",
"296 15 OFFCURVE",
"290 15 CURVE",
"284 36 OFFCURVE",
"278 59 OFFCURVE",
"272 83 CURVE SMOOTH",
"260 130 OFFCURVE",
"247 184 OFFCURVE",
"230 250 CURVE SMOOTH",
"213 316 OFFCURVE",
"194 383 OFFCURVE",
"172 452 CURVE SMOOTH",
"160 486 OFFCURVE",
"148 521 OFFCURVE",
"135 557 CURVE"
);
}
);
width = 695;
}
);
unicode = 0076;
},
{
glyphname = w;
lastChange = "2015-11-24 04:11:55 +0000";
layers = (
{
anchors = (
{
name = top;
position = "{512, 554}";
}
);
layerId = "013FA67F-D7C9-4F04-AAC6-32032829ED9A";
name = "Bold Italic";
paths = (
{
closed = 1;
nodes = (
"142 555 LINE",
"167 553 OFFCURVE",
"199 551 OFFCURVE",
"225 550 CURVE",
"267 428 OFFCURVE",
"292 309 OFFCURVE",
"312 189 CURVE",
"323 209 OFFCURVE",
"335 229 OFFCURVE",
"346 247 CURVE SMOOTH",
"357 266 OFFCURVE",
"368 285 OFFCURVE",
"380 304 CURVE SMOOTH",
"386 315 OFFCURVE",
"392 326 OFFCURVE",
"400 339 CURVE SMOOTH",
"407 351 OFFCURVE",
"414 362 OFFCURVE",
"420 373 CURVE",
"495 373 LINE SMOOTH",
"509 373 OFFCURVE",
"529 373 OFFCURVE",
"543 374 CURVE",
"556 340 OFFCURVE",
"568 311 OFFCURVE",
"580 281 CURVE SMOOTH",
"592 251 OFFCURVE",
"604 222 OFFCURVE",
"618 189 CURVE",
"660 309 OFFCURVE",
"705 430 OFFCURVE",
"769 550 CURVE",
"802 552 LINE SMOOTH",
"810 553 OFFCURVE",
"824 554 OFFCURVE",
"837 554 CURVE",
"843 555 OFFCURVE",
"849 555 OFFCURVE",
"856 556 CURVE SMOOTH",
"862 556 OFFCURVE",
"867 556 OFFCURVE",
"871 557 CURVE",
"824 467 OFFCURVE",
"786 377 OFFCURVE",
"754 285 CURVE SMOOTH",
"722 194 OFFCURVE",
"697 102 OFFCURVE",
"677 11 CURVE",
"663 12 OFFCURVE",
"649 12 OFFCURVE",
"634 13 CURVE SMOOTH",
"618 13 OFFCURVE",
"604 13 OFFCURVE",
"591 14 CURVE",
"585 14 OFFCURVE",
"577 14 OFFCURVE",
"569 14 CURVE SMOOTH",
"560 15 OFFCURVE",
"552 15 OFFCURVE",
"546 15 CURVE",
"530 55 OFFCURVE",
"518 91 OFFCURVE",
"506 127 CURVE SMOOTH",
"493 163 OFFCURVE",
"482 200 OFFCURVE",
"470 241 CURVE",
"432 166 OFFCURVE",
"392 87 OFFCURVE",
"351 14 CURVE",
"330 14 OFFCURVE",
"304 13 OFFCURVE",
"282 13 CURVE SMOOTH",
"278 13 OFFCURVE",
"274 13 OFFCURVE",
"269 13 CURVE",
"258 12 OFFCURVE",
"247 12 OFFCURVE",
"237 12 CURVE SMOOTH",
"232 12 OFFCURVE",
"228 12 OFFCURVE",
"224 12 CURVE",
"217 104 OFFCURVE",
"208 195 OFFCURVE",
"193 284 CURVE SMOOTH",
"179 373 OFFCURVE",
"159 459 OFFCURVE",
"132 543 CURVE"
);
}
);
width = 887;
}
);
unicode = 0077;
},
{
glyphname = x;
lastChange = "2015-11-24 04:11:55 +0000";
layers = (
{
layerId = "013FA67F-D7C9-4F04-AAC6-32032829ED9A";
name = "Bold Italic";
paths = (
{
closed = 1;
nodes = (
"639 538 LINE",
"567 451 OFFCURVE",
"502 363 OFFCURVE",
"434 272 CURVE",
"434 272 LINE",
"433 270 OFFCURVE",
"432 269 OFFCURVE",
"431 268 CURVE SMOOTH",
"431 268 OFFCURVE",
"429 266 OFFCURVE",
"428 264 CURVE",
"458 222 OFFCURVE",
"492 177 OFFCURVE",
"526 132 CURVE SMOOTH",
"560 87 OFFCURVE",
"595 43 OFFCURVE",
"627 3 CURVE",
"605 5 OFFCURVE",
"577 7 OFFCURVE",
"548 9 CURVE SMOOTH",
"520 11 OFFCURVE",
"491 12 OFFCURVE",
"470 13 CURVE",
"450 43 OFFCURVE",
"432 72 OFFCURVE",
"415 101 CURVE SMOOTH",
"397 130 OFFCURVE",
"380 159 OFFCURVE",
"363 191 CURVE",
"316 131 OFFCURVE",
"266 70 OFFCURVE",
"217 13 CURVE",
"195 12 OFFCURVE",
"166 11 OFFCURVE",
"137 9 CURVE SMOOTH",
"123 8 OFFCURVE",
"108 7 OFFCURVE",
"94 6 CURVE",
"80 5 OFFCURVE",
"68 4 OFFCURVE",
"57 3 CURVE",
"97 45 OFFCURVE",
"140 90 OFFCURVE",
"183 135 CURVE SMOOTH",
"225 181 OFFCURVE",
"267 226 OFFCURVE",
"305 270 CURVE",
"279 316 OFFCURVE",
"251 365 OFFCURVE",
"222 414 CURVE SMOOTH",
"193 462 OFFCURVE",
"163 511 OFFCURVE",
"134 555 CURVE",
"141 554 OFFCURVE",
"150 553 OFFCURVE",
"159 553 CURVE SMOOTH",
"169 552 OFFCURVE",
"178 551 OFFCURVE",
"188 551 CURVE",
"208 549 OFFCURVE",
"228 548 OFFCURVE",
"242 547 CURVE",
"288 476 OFFCURVE",
"327 410 OFFCURVE",
"369 336 CURVE",
"427 408 OFFCURVE",
"488 480 OFFCURVE",
"549 548 CURVE",
"575 550 OFFCURVE",
"605 551 OFFCURVE",
"631 554 CURVE"
);
}
);
width = 760;
}
);
unicode = 0078;
},
{
glyphname = y;
lastChange = "2015-11-24 04:11:55 +0000";
layers = (
{
anchors = (
{
name = bottom;
position = "{417, -114}";
},
{
name = top;
position = "{337, 554}";
}
);
layerId = "013FA67F-D7C9-4F04-AAC6-32032829ED9A";
name = "Bold Italic";
paths = (
{
closed = 1;
nodes = (
"393 -35 LINE",
"381 -59 OFFCURVE",
"367 -83 OFFCURVE",
"352 -106 CURVE SMOOTH",
"336 -128 OFFCURVE",
"318 -150 OFFCURVE",
"294 -168 CURVE",
"272 -183 OFFCURVE",
"249 -191 OFFCURVE",
"226 -196 CURVE SMOOTH",
"202 -201 OFFCURVE",
"177 -203 OFFCURVE",
"153 -204 CURVE",
"149 -205 OFFCURVE",
"145 -205 OFFCURVE",
"140 -205 CURVE",
"131 -206 OFFCURVE",
"121 -207 OFFCURVE",
"111 -208 CURVE SMOOTH",
"107 -208 OFFCURVE",
"103 -209 OFFCURVE",
"99 -209 CURVE",
"101 -199 OFFCURVE",
"104 -185 OFFCURVE",
"106 -171 CURVE SMOOTH",
"108 -157 OFFCURVE",
"110 -143 OFFCURVE",
"112 -132 CURVE SMOOTH",
"113 -125 OFFCURVE",
"114 -117 OFFCURVE",
"116 -107 CURVE SMOOTH",
"117 -98 OFFCURVE",
"119 -89 OFFCURVE",
"120 -82 CURVE",
"124 -81 OFFCURVE",
"131 -81 OFFCURVE",
"138 -80 CURVE SMOOTH",
"146 -80 OFFCURVE",
"152 -80 OFFCURVE",
"156 -79 CURVE",
"186 -78 OFFCURVE",
"215 -77 OFFCURVE",
"238 -59 CURVE",
"238 -60 LINE",
"255 -45 OFFCURVE",
"270 -30 OFFCURVE",
"285 -13 CURVE",
"295 6 OFFCURVE",
"306 25 OFFCURVE",
"318 43 CURVE",
"327 59 LINE",
"314 96 LINE SMOOTH",
"286 169 OFFCURVE",
"257 249 OFFCURVE",
"226 328 CURVE SMOOTH",
"196 408 OFFCURVE",
"165 486 OFFCURVE",
"135 558 CURVE",
"148 556 OFFCURVE",
"168 553 OFFCURVE",
"187 551 CURVE SMOOTH",
"206 549 OFFCURVE",
"225 546 OFFCURVE",
"239 546 CURVE",
"267 494 OFFCURVE",
"294 445 OFFCURVE",
"321 396 CURVE SMOOTH",
"347 346 OFFCURVE",
"373 297 OFFCURVE",
"399 244 CURVE",
"453 343 OFFCURVE",
"513 450 OFFCURVE",
"572 546 CURVE",
"586 547 OFFCURVE",
"606 549 OFFCURVE",
"626 552 CURVE SMOOTH",
"636 553 OFFCURVE",
"646 554 OFFCURVE",
"655 555 CURVE SMOOTH",
"665 556 OFFCURVE",
"673 557 OFFCURVE",
"680 558 CURVE",
"600 411 OFFCURVE",
"524 248 OFFCURVE",
"454 97 CURVE SMOOTH"
);
}
);
width = 696;
}
);
unicode = 0079;
},
{
glyphname = z;
lastChange = "2015-11-24 04:11:55 +0000";
layers = (
{
anchors = (
{
name = bottom;
position = "{244, -28}";
},
{
name = top;
position = "{321, 554}";
}
);
layerId = "013FA67F-D7C9-4F04-AAC6-32032829ED9A";
name = "Bold Italic";
paths = (
{
closed = 1;
nodes = (
"143 553 LINE",
"205 547 OFFCURVE",
"268 544 OFFCURVE",
"331 544 CURVE SMOOTH",
"403 544 OFFCURVE",
"479 548 OFFCURVE",
"562 557 CURVE",
"560 544 OFFCURVE",
"557 528 OFFCURVE",
"554 512 CURVE SMOOTH",
"552 503 OFFCURVE",
"551 495 OFFCURVE",
"549 488 CURVE SMOOTH",
"548 480 OFFCURVE",
"546 473 OFFCURVE",
"545 466 CURVE",
"525 445 OFFCURVE",
"504 424 OFFCURVE",
"483 402 CURVE SMOOTH",
"462 380 OFFCURVE",
"441 359 OFFCURVE",
"421 338 CURVE SMOOTH",
"403 320 OFFCURVE",
"387 303 OFFCURVE",
"372 287 CURVE SMOOTH",
"341 254 OFFCURVE",
"311 223 OFFCURVE",
"280 191 CURVE SMOOTH",
"264 175 OFFCURVE",
"247 158 OFFCURVE",
"230 140 CURVE",
"243 141 OFFCURVE",
"257 141 OFFCURVE",
"270 141 CURVE SMOOTH",
"283 141 OFFCURVE",
"296 141 OFFCURVE",
"310 141 CURVE SMOOTH",
"373 141 OFFCURVE",
"445 138 OFFCURVE",
"508 134 CURVE",
"507 120 OFFCURVE",
"507 97 OFFCURVE",
"507 83 CURVE SMOOTH",
"507 61 OFFCURVE",
"507 27 OFFCURVE",
"508 5 CURVE",
"433 12 OFFCURVE",
"360 15 OFFCURVE",
"291 15 CURVE SMOOTH",
"220 15 OFFCURVE",
"144 11 OFFCURVE",
"61 4 CURVE",
"65 24 OFFCURVE",
"70 48 OFFCURVE",
"74 73 CURVE SMOOTH",
"78 97 OFFCURVE",
"82 121 OFFCURVE",
"86 142 CURVE",
"146 200 OFFCURVE",
"202 254 OFFCURVE",
"259 308 CURVE SMOOTH",
"288 335 OFFCURVE",
"316 362 OFFCURVE",
"345 389 CURVE SMOOTH",
"374 416 OFFCURVE",
"404 444 OFFCURVE",
"435 472 CURVE",
"397 471 OFFCURVE",
"358 470 OFFCURVE",
"320 470 CURVE SMOOTH",
"258 470 OFFCURVE",
"196 472 OFFCURVE",
"132 478 CURVE",
"132 543 LINE"
);
}
);
width = 641;
}
);
unicode = 007A;
},
{
glyphname = braceleft;
lastChange = "2015-11-24 04:11:55 +0000";
layers = (
{
layerId = "013FA67F-D7C9-4F04-AAC6-32032829ED9A";
name = "Bold Italic";
paths = (
{
closed = 1;
nodes = (
"426 -63 LINE",
"426 -70 OFFCURVE",
"426 -76 OFFCURVE",
"426 -83 CURVE",
"425 -89 OFFCURVE",
"425 -96 OFFCURVE",
"424 -103 CURVE SMOOTH",
"424 -111 OFFCURVE",
"423 -122 OFFCURVE",
"423 -134 CURVE",
"422 -139 OFFCURVE",
"422 -145 OFFCURVE",
"422 -150 CURVE SMOOTH",
"421 -155 OFFCURVE",
"421 -160 OFFCURVE",
"421 -164 CURVE",
"376 -157 LINE SMOOTH",
"351 -153 OFFCURVE",
"324 -149 OFFCURVE",
"298 -141 CURVE SMOOTH",
"272 -134 OFFCURVE",
"248 -123 OFFCURVE",
"228 -107 CURVE",
"203 -77 OFFCURVE",
"198 -39 OFFCURVE",
"198 -1 CURVE SMOOTH",
"198 28 OFFCURVE",
"201 54 OFFCURVE",
"204 82 CURVE SMOOTH",
"208 109 OFFCURVE",
"211 136 OFFCURVE",
"211 162 CURVE SMOOTH",
"211 190 OFFCURVE",
"209 219 OFFCURVE",
"195 241 CURVE",
"196 241 LINE",
"187 251 OFFCURVE",
"175 258 OFFCURVE",
"161 262 CURVE SMOOTH",
"146 266 OFFCURVE",
"130 267 OFFCURVE",
"116 268 CURVE SMOOTH",
"113 268 LINE SMOOTH",
"111 268 OFFCURVE",
"110 268 OFFCURVE",
"109 268 CURVE",
"108 268 OFFCURVE",
"107 268 OFFCURVE",
"105 268 CURVE SMOOTH",
"83 268 LINE",
"83 271 OFFCURVE",
"83 274 OFFCURVE",
"83 277 CURVE SMOOTH",
"84 281 OFFCURVE",
"84 284 OFFCURVE",
"84 288 CURVE",
"85 296 OFFCURVE",
"86 303 OFFCURVE",
"86 308 CURVE SMOOTH",
"90 347 LINE",
"97 347 OFFCURVE",
"102 347 OFFCURVE",
"104 347 CURVE",
"107 347 OFFCURVE",
"109 347 OFFCURVE",
"111 346 CURVE SMOOTH",
"112 346 OFFCURVE",
"114 346 OFFCURVE",
"115 346 CURVE SMOOTH",
"116 346 OFFCURVE",
"118 346 OFFCURVE",
"119 346 CURVE SMOOTH",
"149 346 OFFCURVE",
"187 353 OFFCURVE",
"211 371 CURVE",
"222 383 OFFCURVE",
"230 398 OFFCURVE",
"234 414 CURVE SMOOTH",
"239 430 OFFCURVE",
"242 447 OFFCURVE",
"244 462 CURVE",
"245 480 OFFCURVE",
"247 500 OFFCURVE",
"249 518 CURVE SMOOTH",
"255 574 LINE",
"259 598 OFFCURVE",
"262 624 OFFCURVE",
"270 648 CURVE SMOOTH",
"278 672 OFFCURVE",
"290 695 OFFCURVE",
"311 713 CURVE",
"356 739 OFFCURVE",
"405 749 OFFCURVE",
"453 756 CURVE",
"458 757 OFFCURVE",
"463 758 OFFCURVE",
"469 759 CURVE",
"475 760 OFFCURVE",
"481 761 OFFCURVE",
"487 763 CURVE",
"500 765 OFFCURVE",
"512 767 OFFCURVE",
"521 769 CURVE",
"519 759 OFFCURVE",
"516 744 OFFCURVE",
"513 729 CURVE SMOOTH",
"512 721 OFFCURVE",
"511 714 OFFCURVE",
"509 706 CURVE SMOOTH",
"508 699 OFFCURVE",
"507 693 OFFCURVE",
"506 688 CURVE",
"487 682 OFFCURVE",
"475 681 OFFCURVE",
"464 679 CURVE SMOOTH",
"434 674 OFFCURVE",
"402 669 OFFCURVE",
"378 651 CURVE",
"379 652 LINE",
"361 633 OFFCURVE",
"357 604 OFFCURVE",
"353 577 CURVE SMOOTH",
"352 568 LINE",
"352 569 LINE",
"349 549 OFFCURVE",
"347 530 OFFCURVE",
"345 511 CURVE SMOOTH",
"342 491 OFFCURVE",
"340 473 OFFCURVE",
"338 453 CURVE SMOOTH",
"334 417 OFFCURVE",
"328 378 OFFCURVE",
"306 344 CURVE",
"290 324 OFFCURVE",
"267 311 OFFCURVE",
"243 303 CURVE",
"264 295 OFFCURVE",
"285 281 OFFCURVE",
"295 259 CURVE SMOOTH",
"306 232 OFFCURVE",
"307 205 OFFCURVE",
"307 177 CURVE SMOOTH",
"307 159 LINE",
"301 101 LINE",
"301 91 OFFCURVE",
"300 81 OFFCURVE",
"299 72 CURVE SMOOTH",
"298 62 OFFCURVE",
"297 52 OFFCURVE",
"296 43 CURVE",
"296 19 OFFCURVE",
"297 -4 OFFCURVE",
"311 -22 CURVE",
"326 -37 OFFCURVE",
"355 -43 OFFCURVE",
"379 -47 CURVE",
"390 -49 LINE SMOOTH",
"392 -49 OFFCURVE",
"395 -50 OFFCURVE",
"398 -50 CURVE",
"400 -50 OFFCURVE",
"403 -50 OFFCURVE",
"404 -51 CURVE SMOOTH",
"409 -52 OFFCURVE",
"413 -53 OFFCURVE",
"416 -53 CURVE"
);
}
);
width = 590;
}
);
unicode = 007B;
},
{
glyphname = bar;
lastChange = "2015-11-24 04:11:55 +0000";
layers = (
{
layerId = "013FA67F-D7C9-4F04-AAC6-32032829ED9A";
name = "Bold Italic";
paths = (
{
closed = 1;
nodes = (
"140 -214 LINE",
"132 -213 OFFCURVE",
"125 -212 OFFCURVE",
"119 -212 CURVE SMOOTH",
"99 -212 OFFCURVE",
"74 -222 OFFCURVE",
"44 -241 CURVE",
"56 -161 OFFCURVE",
"69 -74 OFFCURVE",
"82 15 CURVE SMOOTH",
"94 102 OFFCURVE",
"106 190 OFFCURVE",
"117 270 CURVE",
"122 270 OFFCURVE",
"129 270 OFFCURVE",
"137 270 CURVE SMOOTH",
"145 270 OFFCURVE",
"153 270 OFFCURVE",
"161 270 CURVE SMOOTH",
"169 270 OFFCURVE",
"177 270 OFFCURVE",
"185 270 CURVE",
"193 270 OFFCURVE",
"200 270 OFFCURVE",
"206 270 CURVE",
"187 115 OFFCURVE",
"169 -50 OFFCURVE",
"151 -206 CURVE"
);
},
{
closed = 1;
nodes = (
"149 535 LINE SMOOTH",
"158 606 OFFCURVE",
"168 688 OFFCURVE",
"178 760 CURVE",
"185 759 OFFCURVE",
"191 758 OFFCURVE",
"193 757 CURVE SMOOTH",
"196 757 OFFCURVE",
"198 757 OFFCURVE",
"200 757 CURVE SMOOTH",
"220 757 OFFCURVE",
"246 768 OFFCURVE",
"274 788 CURVE",
"269 751 OFFCURVE",
"263 712 OFFCURVE",
"258 672 CURVE SMOOTH",
"252 631 OFFCURVE",
"246 591 OFFCURVE",
"241 550 CURVE SMOOTH",
"235 509 OFFCURVE",
"229 468 OFFCURVE",
"224 428 CURVE SMOOTH",
"218 387 OFFCURVE",
"213 349 OFFCURVE",
"208 311 CURVE",
"191 310 OFFCURVE",
"178 310 OFFCURVE",
"166 310 CURVE SMOOTH",
"163 310 OFFCURVE",
"159 310 OFFCURVE",
"155 310 CURVE SMOOTH",
"147 310 OFFCURVE",
"138 310 OFFCURVE",
"130 311 CURVE",
"126 311 OFFCURVE",
"123 311 OFFCURVE",
"120 311 CURVE"
);
}
);
width = 329;
}
);
unicode = 007C;
},
{
glyphname = braceright;
lastChange = "2015-11-24 04:11:55 +0000";
layers = (
{
layerId = "013FA67F-D7C9-4F04-AAC6-32032829ED9A";
name = "Bold Italic";
paths = (
{
closed = 1;
nodes = (
"138 -70 LINE SMOOTH",
"154 -68 OFFCURVE",
"173 -66 OFFCURVE",
"190 -61 CURVE SMOOTH",
"207 -57 OFFCURVE",
"223 -51 OFFCURVE",
"235 -41 CURVE",
"234 -41 LINE",
"254 -20 OFFCURVE",
"259 11 OFFCURVE",
"262 39 CURVE",
"262 40 OFFCURVE",
"262 41 OFFCURVE",
"263 41 CURVE",
"263 42 OFFCURVE",
"263 43 OFFCURVE",
"263 44 CURVE",
"264 53 LINE SMOOTH",
"265 71 OFFCURVE",
"267 89 OFFCURVE",
"268 107 CURVE SMOOTH",
"272 142 OFFCURVE",
"274 177 OFFCURVE",
"282 213 CURVE SMOOTH",
"286 231 OFFCURVE",
"293 248 OFFCURVE",
"304 264 CURVE",
"319 284 OFFCURVE",
"344 297 OFFCURVE",
"372 305 CURVE",
"347 312 OFFCURVE",
"323 326 OFFCURVE",
"311 349 CURVE",
"311 349 LINE",
"300 370 OFFCURVE",
"298 396 OFFCURVE",
"298 419 CURVE SMOOTH",
"298 451 OFFCURVE",
"300 482 OFFCURVE",
"304 514 CURVE SMOOTH",
"307 545 OFFCURVE",
"310 577 OFFCURVE",
"310 605 CURVE SMOOTH",
"310 623 OFFCURVE",
"307 644 OFFCURVE",
"297 658 CURVE",
"287 667 OFFCURVE",
"273 673 OFFCURVE",
"257 678 CURVE SMOOTH",
"241 682 OFFCURVE",
"224 685 OFFCURVE",
"210 688 CURVE SMOOTH",
"178 694 LINE",
"179 732 LINE",
"181 775 LINE",
"189 773 OFFCURVE",
"200 770 OFFCURVE",
"211 768 CURVE SMOOTH",
"217 767 OFFCURVE",
"223 766 OFFCURVE",
"228 765 CURVE SMOOTH",
"234 764 OFFCURVE",
"239 763 OFFCURVE",
"243 763 CURVE",
"265 759 OFFCURVE",
"290 755 OFFCURVE",
"313 748 CURVE SMOOTH",
"337 741 OFFCURVE",
"359 730 OFFCURVE",
"377 716 CURVE",
"401 690 OFFCURVE",
"407 655 OFFCURVE",
"407 619 CURVE SMOOTH",
"407 603 OFFCURVE",
"406 589 OFFCURVE",
"405 575 CURVE SMOOTH",
"395 462 LINE SMOOTH",
"394 453 OFFCURVE",
"394 443 OFFCURVE",
"394 434 CURVE SMOOTH",
"394 410 OFFCURVE",
"398 387 OFFCURVE",
"410 370 CURVE",
"420 360 OFFCURVE",
"433 354 OFFCURVE",
"448 351 CURVE SMOOTH",
"462 347 OFFCURVE",
"478 347 OFFCURVE",
"492 347 CURVE SMOOTH",
"494 347 OFFCURVE",
"496 347 OFFCURVE",
"497 347 CURVE",
"499 347 OFFCURVE",
"500 347 OFFCURVE",
"502 347 CURVE SMOOTH",
"503 347 OFFCURVE",
"505 347 OFFCURVE",
"508 347 CURVE",
"513 347 OFFCURVE",
"519 346 OFFCURVE",
"526 346 CURVE",
"521 268 LINE",
"495 268 LINE SMOOTH",
"479 268 OFFCURVE",
"461 268 OFFCURVE",
"445 265 CURVE SMOOTH",
"428 261 OFFCURVE",
"412 255 OFFCURVE",
"399 243 CURVE",
"400 243 LINE",
"388 230 OFFCURVE",
"381 214 OFFCURVE",
"376 198 CURVE SMOOTH",
"372 181 OFFCURVE",
"369 163 OFFCURVE",
"367 147 CURVE",
"366 135 OFFCURVE",
"365 122 OFFCURVE",
"364 110 CURVE",
"363 97 OFFCURVE",
"362 85 OFFCURVE",
"361 72 CURVE SMOOTH",
"358 36 LINE SMOOTH",
"356 12 OFFCURVE",
"353 -14 OFFCURVE",
"346 -38 CURVE SMOOTH",
"338 -62 OFFCURVE",
"327 -86 OFFCURVE",
"306 -104 CURVE",
"286 -118 OFFCURVE",
"265 -127 OFFCURVE",
"244 -133 CURVE SMOOTH",
"222 -139 OFFCURVE",
"201 -143 OFFCURVE",
"179 -146 CURVE",
"173 -148 OFFCURVE",
"166 -149 OFFCURVE",
"159 -150 CURVE SMOOTH",
"152 -151 OFFCURVE",
"145 -152 OFFCURVE",
"138 -154 CURVE",
"119 -157 LINE",
"119 -157 LINE",
"99 -161 LINE",
"99 -155 OFFCURVE",
"100 -149 OFFCURVE",
"102 -141 CURVE",
"103 -134 OFFCURVE",
"104 -126 OFFCURVE",
"105 -117 CURVE SMOOTH",
"106 -109 OFFCURVE",
"107 -101 OFFCURVE",
"108 -94 CURVE",
"109 -86 OFFCURVE",
"110 -79 OFFCURVE",
"111 -74 CURVE"
);
}
);
width = 598;
}
);
unicode = 007D;
},
{
glyphname = asciitilde;
lastChange = "2015-11-24 04:11:55 +0000";
layers = (
{
layerId = "013FA67F-D7C9-4F04-AAC6-32032829ED9A";
name = "Bold Italic";
paths = (
{
closed = 1;
nodes = (
"703 399 LINE",
"715 403 LINE",
"702 381 OFFCURVE",
"693 356 OFFCURVE",
"690 328 CURVE",
"658 305 LINE SMOOTH",
"636 287 OFFCURVE",
"613 269 OFFCURVE",
"588 256 CURVE SMOOTH",
"564 242 OFFCURVE",
"537 233 OFFCURVE",
"509 233 CURVE",
"468 234 OFFCURVE",
"436 250 OFFCURVE",
"402 266 CURVE SMOOTH",
"373 281 LINE",
"339 301 OFFCURVE",
"302 319 OFFCURVE",
"262 320 CURVE",
"234 319 OFFCURVE",
"207 307 OFFCURVE",
"182 289 CURVE",
"182 290 LINE",
"149 267 OFFCURVE",
"112 242 OFFCURVE",
"78 222 CURVE",
"66 233 LINE",
"83 263 OFFCURVE",
"92 294 OFFCURVE",
"94 326 CURVE",
"119 347 OFFCURVE",
"146 366 OFFCURVE",
"175 379 CURVE SMOOTH",
"204 392 OFFCURVE",
"235 399 OFFCURVE",
"265 399 CURVE SMOOTH",
"310 399 OFFCURVE",
"355 387 OFFCURVE",
"397 370 CURVE",
"400 368 LINE",
"405 366 OFFCURVE",
"408 365 OFFCURVE",
"412 363 CURVE",
"446 349 OFFCURVE",
"484 335 OFFCURVE",
"522 335 CURVE SMOOTH",
"548 335 OFFCURVE",
"574 342 OFFCURVE",
"598 353 CURVE SMOOTH",
"623 363 OFFCURVE",
"647 378 OFFCURVE",
"670 392 CURVE SMOOTH",
"676 395 OFFCURVE",
"682 399 OFFCURVE",
"689 403 CURVE SMOOTH",
"695 406 OFFCURVE",
"701 409 OFFCURVE",
"707 413 CURVE"
);
}
);
width = 763;
}
);
unicode = 007E;
},
{
glyphname = exclamdown;
lastChange = "2015-11-24 04:11:55 +0000";
layers = (
{
layerId = "013FA67F-D7C9-4F04-AAC6-32032829ED9A";
name = "Bold Italic";
paths = (
{
closed = 1;
nodes = (
"282 597 LINE",
"262 591 OFFCURVE",
"243 588 OFFCURVE",
"224 588 CURVE SMOOTH",
"206 588 OFFCURVE",
"186 592 OFFCURVE",
"164 599 CURVE",
"169 668 LINE SMOOTH",
"169 673 OFFCURVE",
"170 679 OFFCURVE",
"170 686 CURVE SMOOTH",
"171 692 OFFCURVE",
"171 699 OFFCURVE",
"172 706 CURVE SMOOTH",
"173 720 OFFCURVE",
"173 734 OFFCURVE",
"175 745 CURVE",
"197 733 OFFCURVE",
"218 728 OFFCURVE",
"235 728 CURVE SMOOTH",
"253 728 OFFCURVE",
"276 733 OFFCURVE",
"304 747 CURVE",
"289 605 LINE"
);
},
{
closed = 1;
nodes = (
"229 6 LINE",
"214 15 OFFCURVE",
"196 19 OFFCURVE",
"176 19 CURVE SMOOTH",
"156 19 OFFCURVE",
"132 12 OFFCURVE",
"103 -2 CURVE",
"110 50 OFFCURVE",
"117 107 OFFCURVE",
"123 164 CURVE SMOOTH",
"130 220 OFFCURVE",
"136 277 OFFCURVE",
"142 329 CURVE SMOOTH",
"149 385 LINE SMOOTH",
"152 404 OFFCURVE",
"155 424 OFFCURVE",
"158 446 CURVE SMOOTH",
"161 467 OFFCURVE",
"164 488 OFFCURVE",
"166 506 CURVE",
"186 503 OFFCURVE",
"202 502 OFFCURVE",
"214 502 CURVE SMOOTH",
"228 502 OFFCURVE",
"248 503 OFFCURVE",
"270 507 CURVE",
"269 491 OFFCURVE",
"268 474 OFFCURVE",
"268 455 CURVE SMOOTH",
"267 435 OFFCURVE",
"266 418 OFFCURVE",
"266 402 CURVE SMOOTH",
"265 378 OFFCURVE",
"265 353 OFFCURVE",
"263 329 CURVE SMOOTH",
"256 223 OFFCURVE",
"249 120 OFFCURVE",
"244 14 CURVE"
);
}
);
width = 375;
}
);
unicode = 00A1;
},
{
glyphname = cent;
lastChange = "2015-11-24 04:11:55 +0000";
layers = (
{
layerId = "013FA67F-D7C9-4F04-AAC6-32032829ED9A";
name = "Bold Italic";
paths = (
{
closed = 1;
nodes = (
"297 121 LINE",
"298 121 OFFCURVE",
"298 121 OFFCURVE",
"298 121 CURVE",
"299 120 OFFCURVE",
"299 120 OFFCURVE",
"300 120 CURVE",
"296 120 LINE",
"294 116 LINE",
"294 119 LINE",
"294 120 LINE",
"294 120 OFFCURVE",
"294 121 OFFCURVE",
"294 121 CURVE",
"295 121 LINE",
"299 123 LINE"
);
},
{
closed = 1;
nodes = (
"177 217 OFFCURVE",
"189 187 OFFCURVE",
"210 164 CURVE SMOOTH",
"230 141 OFFCURVE",
"260 126 OFFCURVE",
"294 121 CURVE",
"306 245 OFFCURVE",
"318 360 OFFCURVE",
"332 486 CURVE",
"278 480 OFFCURVE",
"240 445 OFFCURVE",
"214 401 CURVE SMOOTH",
"189 357 OFFCURVE",
"177 303 OFFCURVE",
"177 257 CURVE SMOOTH"
);
},
{
closed = 1;
nodes = (
"520 494 LINE",
"515 450 LINE",
"473 472 OFFCURVE",
"430 486 OFFCURVE",
"391 489 CURVE",
"384 425 OFFCURVE",
"377 364 OFFCURVE",
"370 303 CURVE SMOOTH",
"364 242 OFFCURVE",
"357 181 OFFCURVE",
"351 117 CURVE",
"393 120 OFFCURVE",
"436 133 OFFCURVE",
"482 153 CURVE",
"482 148 OFFCURVE",
"482 143 OFFCURVE",
"481 138 CURVE",
"481 126 OFFCURVE",
"480 113 OFFCURVE",
"479 101 CURVE SMOOTH",
"478 95 OFFCURVE",
"478 90 OFFCURVE",
"477 86 CURVE SMOOTH",
"475 66 OFFCURVE",
"473 40 OFFCURVE",
"473 21 CURVE",
"424 4 OFFCURVE",
"382 -3 OFFCURVE",
"340 -5 CURVE",
"335 -63 LINE",
"334 -75 OFFCURVE",
"333 -88 OFFCURVE",
"332 -101 CURVE SMOOTH",
"332 -108 OFFCURVE",
"331 -115 OFFCURVE",
"331 -122 CURVE SMOOTH",
"330 -128 OFFCURVE",
"330 -134 OFFCURVE",
"329 -140 CURVE",
"327 -140 OFFCURVE",
"325 -140 OFFCURVE",
"322 -139 CURVE SMOOTH",
"319 -139 OFFCURVE",
"316 -139 OFFCURVE",
"313 -138 CURVE",
"309 -138 OFFCURVE",
"306 -138 OFFCURVE",
"303 -138 CURVE SMOOTH",
"300 -137 OFFCURVE",
"298 -137 OFFCURVE",
"296 -137 CURVE SMOOTH",
"290 -137 OFFCURVE",
"279 -137 OFFCURVE",
"269 -135 CURVE",
"277 -58 LINE SMOOTH",
"278 -48 OFFCURVE",
"279 -38 OFFCURVE",
"279 -29 CURVE SMOOTH",
"280 -21 OFFCURVE",
"281 -11 OFFCURVE",
"282 0 CURVE",
"252 4 OFFCURVE",
"221 13 OFFCURVE",
"192 26 CURVE SMOOTH",
"163 39 OFFCURVE",
"137 57 OFFCURVE",
"119 82 CURVE SMOOTH",
"87 125 OFFCURVE",
"77 179 OFFCURVE",
"77 233 CURVE SMOOTH",
"77 272 OFFCURVE",
"81 317 OFFCURVE",
"94 361 CURVE SMOOTH",
"106 404 OFFCURVE",
"127 446 OFFCURVE",
"159 478 CURVE",
"159 478 LINE",
"183 504 OFFCURVE",
"212 521 OFFCURVE",
"244 534 CURVE SMOOTH",
"275 546 OFFCURVE",
"309 552 OFFCURVE",
"341 556 CURVE",
"343 575 OFFCURVE",
"345 596 OFFCURVE",
"348 616 CURVE SMOOTH",
"357 692 LINE",
"385 692 LINE SMOOTH",
"393 692 OFFCURVE",
"410 693 OFFCURVE",
"417 693 CURVE",
"414 670 OFFCURVE",
"411 648 OFFCURVE",
"408 625 CURVE SMOOTH",
"405 603 OFFCURVE",
"402 580 OFFCURVE",
"400 557 CURVE",
"442 555 OFFCURVE",
"483 548 OFFCURVE",
"521 530 CURVE",
"513 522 LINE",
"525 524 LINE"
);
}
);
width = 602;
}
);
unicode = 00A2;
},
{
glyphname = sterling;
lastChange = "2015-11-24 04:11:55 +0000";
layers = (
{
layerId = "013FA67F-D7C9-4F04-AAC6-32032829ED9A";
name = "Bold Italic";
paths = (
{
closed = 1;
nodes = (
"584 691 LINE SMOOTH",
"583 686 OFFCURVE",
"582 681 OFFCURVE",
"580 674 CURVE",
"578 661 OFFCURVE",
"575 648 OFFCURVE",
"573 635 CURVE SMOOTH",
"572 628 OFFCURVE",
"571 622 OFFCURVE",
"570 617 CURVE",
"530 637 OFFCURVE",
"489 651 OFFCURVE",
"449 651 CURVE SMOOTH",
"431 651 OFFCURVE",
"412 648 OFFCURVE",
"393 642 CURVE SMOOTH",
"375 636 OFFCURVE",
"356 626 OFFCURVE",
"344 613 CURVE",
"330 595 OFFCURVE",
"321 574 OFFCURVE",
"315 551 CURVE SMOOTH",
"309 529 OFFCURVE",
"306 505 OFFCURVE",
"303 483 CURVE SMOOTH",
"301 469 OFFCURVE",
"300 456 OFFCURVE",
"298 443 CURVE SMOOTH",
"297 430 OFFCURVE",
"295 417 OFFCURVE",
"294 403 CURVE SMOOTH",
"292 389 LINE",
"300 389 OFFCURVE",
"309 389 OFFCURVE",
"317 389 CURVE SMOOTH",
"325 388 OFFCURVE",
"333 388 OFFCURVE",
"341 388 CURVE SMOOTH",
"361 388 OFFCURVE",
"382 387 OFFCURVE",
"406 387 CURVE SMOOTH",
"429 387 OFFCURVE",
"451 387 OFFCURVE",
"471 386 CURVE",
"466 351 LINE",
"463 318 LINE",
"365 320 LINE",
"285 322 LINE",
"262 128 LINE",
"347 127 OFFCURVE",
"433 123 OFFCURVE",
"523 114 CURVE",
"521 87 OFFCURVE",
"519 53 OFFCURVE",
"519 28 CURVE SMOOTH",
"519 24 OFFCURVE",
"519 19 OFFCURVE",
"519 12 CURVE",
"518 5 OFFCURVE",
"518 0 OFFCURVE",
"518 -4 CURVE",
"422 9 OFFCURVE",
"331 15 OFFCURVE",
"242 15 CURVE SMOOTH",
"175 15 OFFCURVE",
"103 11 OFFCURVE",
"23 4 CURVE",
"25 11 OFFCURVE",
"27 19 OFFCURVE",
"28 28 CURVE SMOOTH",
"30 37 OFFCURVE",
"32 46 OFFCURVE",
"34 56 CURVE SMOOTH",
"37 74 OFFCURVE",
"41 92 OFFCURVE",
"43 107 CURVE",
"46 122 LINE",
"84 125 OFFCURVE",
"120 126 OFFCURVE",
"157 128 CURVE",
"160 145 OFFCURVE",
"162 161 OFFCURVE",
"164 177 CURVE SMOOTH",
"166 193 OFFCURVE",
"168 209 OFFCURVE",
"171 225 CURVE SMOOTH",
"173 240 OFFCURVE",
"175 256 OFFCURVE",
"177 273 CURVE SMOOTH",
"178 289 OFFCURVE",
"180 305 OFFCURVE",
"182 323 CURVE",
"154 323 OFFCURVE",
"119 323 OFFCURVE",
"91 324 CURVE",
"100 393 LINE",
"115 393 OFFCURVE",
"130 392 OFFCURVE",
"145 392 CURVE SMOOTH",
"160 391 OFFCURVE",
"175 391 OFFCURVE",
"190 391 CURVE",
"195 440 LINE SMOOTH",
"196 450 OFFCURVE",
"197 460 OFFCURVE",
"198 470 CURVE SMOOTH",
"200 489 OFFCURVE",
"202 513 OFFCURVE",
"209 545 CURVE SMOOTH",
"215 577 OFFCURVE",
"225 609 OFFCURVE",
"241 638 CURVE SMOOTH",
"257 667 OFFCURVE",
"281 690 OFFCURVE",
"311 705 CURVE SMOOTH",
"341 721 OFFCURVE",
"374 730 OFFCURVE",
"406 734 CURVE SMOOTH",
"423 736 OFFCURVE",
"438 737 OFFCURVE",
"453 737 CURVE SMOOTH",
"497 737 OFFCURVE",
"540 730 OFFCURVE",
"582 717 CURVE",
"575 708 LINE",
"587 710 LINE"
);
}
);
width = 653;
}
);
unicode = 00A3;
},
{
glyphname = currency;
lastChange = "2015-11-24 04:11:55 +0000";
layers = (
{
layerId = "013FA67F-D7C9-4F04-AAC6-32032829ED9A";
name = "Bold Italic";
paths = (
{
closed = 1;
nodes = (
"440 526 OFFCURVE",
"477 514 OFFCURVE",
"509 493 CURVE",
"535 517 LINE",
"625 598 LINE",
"676 538 LINE",
"629 495 LINE SMOOTH",
"618 485 OFFCURVE",
"607 474 OFFCURVE",
"596 465 CURVE SMOOTH",
"586 455 OFFCURVE",
"575 444 OFFCURVE",
"563 434 CURVE",
"568 420 OFFCURVE",
"573 404 OFFCURVE",
"577 388 CURVE SMOOTH",
"581 371 OFFCURVE",
"584 354 OFFCURVE",
"584 340 CURVE SMOOTH",
"584 294 OFFCURVE",
"568 249 OFFCURVE",
"541 211 CURVE",
"571 177 OFFCURVE",
"607 139 OFFCURVE",
"637 107 CURVE",
"623 95 OFFCURVE",
"613 85 OFFCURVE",
"607 78 CURVE",
"577 48 LINE",
"560 66 OFFCURVE",
"544 83 OFFCURVE",
"527 100 CURVE SMOOTH",
"511 117 OFFCURVE",
"494 134 OFFCURVE",
"478 151 CURVE",
"444 131 OFFCURVE",
"405 118 OFFCURVE",
"367 118 CURVE SMOOTH",
"327 118 OFFCURVE",
"290 132 OFFCURVE",
"258 150 CURVE",
"219 115 LINE",
"143 47 LINE",
"141 49 OFFCURVE",
"139 52 OFFCURVE",
"136 55 CURVE",
"130 61 OFFCURVE",
"125 68 OFFCURVE",
"120 75 CURVE",
"117 78 OFFCURVE",
"115 80 OFFCURVE",
"113 83 CURVE SMOOTH",
"93 107 LINE",
"118 130 OFFCURVE",
"149 158 OFFCURVE",
"173 182 CURVE SMOOTH",
"205 212 LINE",
"192 243 OFFCURVE",
"183 273 OFFCURVE",
"183 308 CURVE SMOOTH",
"183 352 OFFCURVE",
"200 396 OFFCURVE",
"225 433 CURVE",
"184 479 LINE",
"131 537 LINE",
"135 541 OFFCURVE",
"141 546 OFFCURVE",
"148 553 CURVE",
"154 559 OFFCURVE",
"159 564 OFFCURVE",
"164 568 CURVE",
"192 596 LINE",
"238 548 LINE",
"289 493 LINE",
"323 515 OFFCURVE",
"362 526 OFFCURVE",
"401 526 CURVE SMOOTH"
);
},
{
closed = 1;
nodes = (
"501 324 LINE",
"502 326 OFFCURVE",
"502 328 OFFCURVE",
"502 330 CURVE SMOOTH",
"502 332 OFFCURVE",
"502 334 OFFCURVE",
"502 337 CURVE SMOOTH",
"502 368 OFFCURVE",
"490 394 OFFCURVE",
"470 413 CURVE SMOOTH",
"451 431 OFFCURVE",
"424 441 OFFCURVE",
"393 441 CURVE SMOOTH",
"358 441 OFFCURVE",
"326 426 OFFCURVE",
"302 402 CURVE SMOOTH",
"279 378 OFFCURVE",
"265 344 OFFCURVE",
"265 308 CURVE SMOOTH",
"265 277 OFFCURVE",
"277 250 OFFCURVE",
"297 231 CURVE SMOOTH",
"316 213 OFFCURVE",
"343 202 OFFCURVE",
"374 202 CURVE SMOOTH",
"406 202 OFFCURVE",
"437 216 OFFCURVE",
"461 238 CURVE SMOOTH",
"484 260 OFFCURVE",
"499 290 OFFCURVE",
"501 323 CURVE"
);
}
);
width = 748;
}
);
unicode = 00A4;
},
{
glyphname = yen;
lastChange = "2015-11-24 04:11:55 +0000";
layers = (
{
layerId = "013FA67F-D7C9-4F04-AAC6-32032829ED9A";
name = "Bold Italic";
paths = (
{
closed = 1;
nodes = (
"656 209 LINE",
"593 211 OFFCURVE",
"539 213 OFFCURVE",
"476 213 CURVE",
"474 149 OFFCURVE",
"473 82 OFFCURVE",
"473 18 CURVE",
"456 18 OFFCURVE",
"430 19 OFFCURVE",
"413 19 CURVE SMOOTH",
"408 19 OFFCURVE",
"402 19 OFFCURVE",
"396 19 CURVE",
"391 18 OFFCURVE",
"385 18 OFFCURVE",
"379 18 CURVE SMOOTH",
"334 18 LINE",
"339 51 OFFCURVE",
"345 83 OFFCURVE",
"351 116 CURVE SMOOTH",
"356 148 OFFCURVE",
"362 181 OFFCURVE",
"367 213 CURVE",
"305 213 OFFCURVE",
"235 211 OFFCURVE",
"175 208 CURVE",
"175 214 OFFCURVE",
"176 221 OFFCURVE",
"177 229 CURVE SMOOTH",
"179 244 OFFCURVE",
"181 261 OFFCURVE",
"183 277 CURVE",
"184 284 OFFCURVE",
"184 291 OFFCURVE",
"185 297 CURVE",
"242 298 LINE SMOOTH",
"286 299 OFFCURVE",
"331 299 OFFCURVE",
"376 299 CURVE",
"377 318 LINE",
"359 351 LINE SMOOTH",
"355 357 OFFCURVE",
"352 363 OFFCURVE",
"349 368 CURVE",
"345 373 OFFCURVE",
"342 379 OFFCURVE",
"338 386 CURVE",
"314 386 OFFCURVE",
"288 386 OFFCURVE",
"261 386 CURVE SMOOTH",
"234 386 OFFCURVE",
"209 386 OFFCURVE",
"184 387 CURVE",
"185 391 OFFCURVE",
"185 397 OFFCURVE",
"186 405 CURVE SMOOTH",
"187 420 OFFCURVE",
"188 425 OFFCURVE",
"189 439 CURVE SMOOTH",
"189 447 OFFCURVE",
"190 452 OFFCURVE",
"190 456 CURVE",
"232 455 OFFCURVE",
"266 454 OFFCURVE",
"308 454 CURVE",
"288 500 OFFCURVE",
"265 550 OFFCURVE",
"243 600 CURVE SMOOTH",
"220 650 OFFCURVE",
"197 699 OFFCURVE",
"175 745 CURVE",
"189 743 OFFCURVE",
"211 740 OFFCURVE",
"231 738 CURVE SMOOTH",
"252 736 OFFCURVE",
"272 733 OFFCURVE",
"288 733 CURVE",
"314 677 OFFCURVE",
"340 624 OFFCURVE",
"364 571 CURVE SMOOTH",
"388 517 OFFCURVE",
"411 463 OFFCURVE",
"436 406 CURVE",
"501 516 OFFCURVE",
"571 627 OFFCURVE",
"641 733 CURVE",
"665 735 OFFCURVE",
"691 737 OFFCURVE",
"715 740 CURVE SMOOTH",
"758 744 LINE",
"692 648 OFFCURVE",
"630 551 OFFCURVE",
"568 454 CURVE",
"584 454 OFFCURVE",
"597 455 OFFCURVE",
"612 455 CURVE SMOOTH",
"685 456 LINE",
"685 454 OFFCURVE",
"685 451 OFFCURVE",
"685 447 CURVE SMOOTH",
"684 444 OFFCURVE",
"684 440 OFFCURVE",
"684 436 CURVE",
"683 428 OFFCURVE",
"682 420 OFFCURVE",
"682 416 CURVE SMOOTH",
"681 412 OFFCURVE",
"681 407 OFFCURVE",
"680 402 CURVE SMOOTH",
"680 396 OFFCURVE",
"680 391 OFFCURVE",
"679 387 CURVE",
"526 386 LINE",
"502 346 LINE SMOOTH",
"498 340 OFFCURVE",
"495 336 OFFCURVE",
"493 332 CURVE",
"490 328 OFFCURVE",
"487 323 OFFCURVE",
"483 318 CURVE",
"483 313 OFFCURVE",
"483 310 OFFCURVE",
"482 309 CURVE SMOOTH",
"482 307 OFFCURVE",
"482 304 OFFCURVE",
"481 299 CURVE",
"543 299 OFFCURVE",
"612 298 OFFCURVE",
"671 297 CURVE",
"671 291 OFFCURVE",
"670 284 OFFCURVE",
"670 275 CURVE SMOOTH",
"669 266 OFFCURVE",
"669 258 OFFCURVE",
"668 252 CURVE",
"667 218 LINE"
);
}
);
width = 754;
}
);
unicode = 00A5;
},
{
glyphname = brokenbar;
lastChange = "2015-11-24 04:11:55 +0000";
layers = (
{
layerId = "013FA67F-D7C9-4F04-AAC6-32032829ED9A";
name = "Bold Italic";
paths = (
{
closed = 1;
nodes = (
"216 203 LINE",
"213 173 OFFCURVE",
"211 142 OFFCURVE",
"208 109 CURVE SMOOTH",
"206 77 OFFCURVE",
"203 44 OFFCURVE",
"200 11 CURVE SMOOTH",
"198 -23 OFFCURVE",
"195 -56 OFFCURVE",
"193 -88 CURVE SMOOTH",
"190 -121 OFFCURVE",
"188 -152 OFFCURVE",
"185 -182 CURVE",
"168 -160 OFFCURVE",
"154 -150 OFFCURVE",
"142 -150 CURVE SMOOTH",
"131 -150 OFFCURVE",
"114 -160 OFFCURVE",
"92 -182 CURVE",
"98 -122 OFFCURVE",
"105 -53 OFFCURVE",
"111 16 CURVE SMOOTH",
"117 84 OFFCURVE",
"123 153 OFFCURVE",
"129 213 CURVE",
"135 214 OFFCURVE",
"144 214 OFFCURVE",
"153 215 CURVE SMOOTH",
"163 215 OFFCURVE",
"170 215 OFFCURVE",
"177 215 CURVE SMOOTH",
"187 215 OFFCURVE",
"198 215 OFFCURVE",
"208 214 CURVE"
);
},
{
closed = 1;
nodes = (
"262 701 LINE",
"250 581 OFFCURVE",
"238 454 OFFCURVE",
"228 334 CURVE",
"212 331 OFFCURVE",
"196 329 OFFCURVE",
"181 329 CURVE SMOOTH",
"170 329 OFFCURVE",
"157 331 OFFCURVE",
"140 336 CURVE",
"142 366 OFFCURVE",
"145 398 OFFCURVE",
"148 432 CURVE SMOOTH",
"150 465 OFFCURVE",
"153 500 OFFCURVE",
"156 534 CURVE SMOOTH",
"162 603 OFFCURVE",
"167 672 OFFCURVE",
"172 732 CURVE",
"180 719 OFFCURVE",
"188 710 OFFCURVE",
"195 704 CURVE SMOOTH",
"202 698 OFFCURVE",
"208 695 OFFCURVE",
"213 695 CURVE SMOOTH",
"226 695 OFFCURVE",
"237 699 OFFCURVE",
"245 709 CURVE"
);
}
);
width = 358;
}
);
unicode = 00A6;
},
